<!-- Generator: Adobe Illustrator 19.2.1, SVG Export Plug-In  -->
<svg version="1.1"
	 xmlns="http://www.w3.org/2000/svg" xmlns:xlink="http://www.w3.org/1999/xlink" xmlns:a="http://ns.adobe.com/AdobeSVGViewerExtensions/3.0/"
	 x="0px" y="0px" width="1812.89px" height="305.905px" viewBox="0 0 1812.89 305.905"
	 style="enable-background:new 0 0 1812.89 305.905;" xml:space="preserve">
<style type="text/css">
	.st0{fill:#58595B;}
	.st1{fill:#54B5E6;}
</style>
<defs>
</defs>
<g>
	<path class="st0" d="M1196.801,36.417h-4.941v-4.832h14.916v4.832h-4.886v31.536h-5.089V36.417z"/>
	<path class="st0" d="M1207.971,50.549V48.99c0-12.263,3.848-17.873,9.351-17.873c5.511,0,9.351,5.61,9.351,17.873v1.559
		c0,12.261-3.84,17.873-9.351,17.873C1211.819,68.422,1207.971,62.81,1207.971,50.549z M1221.482,50.549V48.99
		c0-9.404-1.717-13.197-4.161-13.197c-2.443,0-4.152,3.793-4.152,13.197v1.559c0,9.404,1.709,13.195,4.152,13.195
		C1219.765,63.744,1221.482,59.953,1221.482,50.549z"/>
	<path class="st0" d="M1230.31,31.585h5.144v31.536h7.431v4.832h-12.575V31.585z"/>
	<path class="st0" d="M1245.641,31.585h13.457v4.832h-8.313v10.807h7.431v4.832h-7.431v11.066h8.469v4.832h-13.613V31.585z"/>
	<path class="st0" d="M1262.68,31.585h5.924c6.439,0,11.013,3.585,11.013,11.326v0.363c0,4.832-2.029,8.001-4.886,9.716
		l5.511,14.963h-5.511l-4.886-13.301c-0.203,0-0.468,0.053-0.671,0.053h-1.35v13.248h-5.144V31.585z M1268.706,50.081
		c3.427,0,5.768-2.078,5.768-6.754v-0.312c0-4.988-2.498-6.65-5.924-6.65h-0.726v13.716H1268.706z"/>
	<path class="st0" d="M1288.392,31.48h5.456l7.228,36.474h-5.144l-1.46-8.104h-6.853l-1.459,8.104h-4.988L1288.392,31.48z
		 M1293.691,55.225l-2.646-14.601l-2.654,14.601H1293.691z"/>
	<path class="st0" d="M1303.768,31.585h5.253c6.026,0,11.216,2.857,11.216,9.195v0.209c0,4.882-2.802,7.222-5.659,8.417
		c3.427,1.194,6.127,3.585,6.127,8.313v0.363c0,6.287-4.832,9.872-11.794,9.872h-5.144V31.585z M1309.435,47.38
		c3.583,0,5.768-2.028,5.768-5.665v-0.104c0-3.532-2.24-5.3-5.565-5.3h-0.726V47.38H1309.435z M1309.435,63.225
		c3.684,0,6.127-1.975,6.127-5.507V57.51c0-3.635-2.334-5.663-6.026-5.663h-0.625v11.379H1309.435z"/>
	<path class="st0" d="M1324.133,31.585h5.097v36.368h-5.097V31.585z"/>
	<path class="st0" d="M1333.797,31.585h5.144v31.536h7.431v4.832h-12.575V31.585z"/>
	<path class="st0" d="M1349.329,31.585h5.097v36.368h-5.097V31.585z"/>
	<path class="st0" d="M1358.993,31.585h5.456c7.688,0,12.364,5.923,12.364,17.612v1.143c0,11.691-4.676,17.613-12.364,17.613h-5.456
		V31.585z M1364.917,63.278c3.739,0,6.705-3.481,6.705-12.938v-1.143c0-9.455-3.013-12.936-6.76-12.936h-0.726v27.017H1364.917z"/>
	<path class="st0" d="M1385.126,31.48h5.456l7.228,36.474h-5.144l-1.46-8.104h-6.853l-1.46,8.104h-4.988L1385.126,31.48z
		 M1390.426,55.225l-2.646-14.601l-2.654,14.601H1390.426z"/>
	<path class="st0" d="M1400.503,31.585h5.456c7.688,0,12.364,5.923,12.364,17.612v1.143c0,11.691-4.676,17.613-12.364,17.613h-5.456
		V31.585z M1406.427,63.278c3.739,0,6.705-3.481,6.705-12.938v-1.143c0-9.455-3.013-12.936-6.76-12.936h-0.726v27.017H1406.427z"/>
</g>
<g>
	<path class="st0" d="M1684.879,0.466h13.457V5.3h-8.313v10.807h7.431v4.831h-7.431v11.067h8.469v4.832h-13.613V0.466z"/>
	<path class="st0" d="M1701.037,35.537v-5.404c2.287,1.403,4.16,2.131,5.924,2.131c2.186,0,3.848-1.247,3.848-3.741V28.42
		c0-2.078-0.679-3.585-4.005-7.585c-4.465-5.353-6.081-7.638-6.081-11.744V8.988c0-5.351,3.638-8.884,8.313-8.884
		c2.443,0,4.005,0.468,5.612,1.3v5.403c-1.975-1.196-3.38-1.766-5.042-1.766c-2.076,0-3.739,1.401-3.739,3.688v0.103
		c0,2.028,0.679,3.118,4.004,7.066c4.832,5.716,6.073,8.157,6.073,12.263v0.103c0,5.351-3.786,8.936-8.516,8.936
		C1705.041,37.199,1702.957,36.524,1701.037,35.537z"/>
	<path class="st0" d="M1721.612,5.3h-4.941V0.466h14.916V5.3h-4.886v31.536h-5.089V5.3z"/>
	<path class="st0" d="M1734.444,26.601V0.466h5.089v26.601c0,3.794,1.459,5.509,3.59,5.509c2.178,0,3.638-1.715,3.638-5.509V0.466
		h5.034v26.135c0,7.17-3.582,10.704-8.672,10.704C1738.027,37.305,1734.444,33.771,1734.444,26.601z"/>
	<path class="st0" d="M1756.058,0.466h5.456c7.688,0,12.364,5.924,12.364,17.613v1.143c0,11.691-4.675,17.614-12.364,17.614h-5.456
		V0.466z M1761.982,32.161c3.739,0,6.697-3.481,6.697-12.938V18.08c0-9.454-3.013-12.936-6.752-12.936h-0.726v27.017H1761.982z"/>
	<path class="st0" d="M1777.719,0.466h5.097v36.37h-5.097V0.466z"/>
	<path class="st0" d="M1786.656,19.432v-1.559c0-12.263,3.848-17.873,9.351-17.873c5.511,0,9.351,5.61,9.351,17.873v1.559
		c0,12.261-3.841,17.873-9.351,17.873C1790.504,37.305,1786.656,31.693,1786.656,19.432z M1800.167,19.432v-1.559
		c0-9.404-1.717-13.197-4.161-13.197c-2.443,0-4.152,3.793-4.152,13.197v1.559c0,9.404,1.709,13.195,4.152,13.195
		C1798.45,32.627,1800.167,28.836,1800.167,19.432z"/>
	<path class="st0" d="M1676.831,81.568v-1.143c0-12.573,4.675-17.873,10.335-17.873c1.772,0,2.7,0.262,4.004,0.884v5.3
		c-1.304-0.781-2.342-1.196-3.536-1.196c-3.169,0-5.612,3.378-5.612,12.834v1.247c0,9.82,2.443,12.833,5.667,12.833
		c1.093,0,2.287-0.363,3.583-1.144v5.041c-1.296,0.779-2.646,1.091-4.418,1.091C1681.195,99.441,1676.831,94.038,1676.831,81.568z"
		/>
	<path class="st0" d="M1692.88,81.777v-1.559c0-12.262,3.848-17.873,9.351-17.873c5.511,0,9.351,5.61,9.351,17.873v1.559
		c0,12.261-3.84,17.873-9.351,17.873C1696.728,99.65,1692.88,94.038,1692.88,81.777z M1706.391,81.777v-1.559
		c0-9.404-1.717-13.197-4.16-13.197s-4.153,3.793-4.153,13.197v1.559c0,9.404,1.71,13.195,4.153,13.195
		S1706.391,91.181,1706.391,81.777z"/>
	<path class="st0" d="M1715.219,62.813h5.253l5.144,15.429l5.144-15.429h5.245v36.368h-4.941V74.399l-5.401,16.001h-0.156
		l-5.401-16.001v24.783h-4.886V62.813z"/>
	<path class="st0" d="M1740.369,62.813h5.3c6.807,0,11.373,3.948,11.373,12.001v0.104c0,7.794-4.363,11.897-10.904,12.262h-0.624
		v12.001h-5.144V62.813z M1746.184,82.452c3.435-0.105,5.714-2.547,5.714-7.378v-0.103c0-5.041-2.178-7.431-5.604-7.431h-0.781
		v14.912H1746.184z"/>
	<path class="st0" d="M1763.489,62.708h5.456l7.22,36.474h-5.144l-1.452-8.104h-6.861l-1.452,8.104h-4.988L1763.489,62.708z
		 M1768.789,86.452l-2.654-14.6l-2.646,14.6H1768.789z"/>
	<path class="st0" d="M1778.866,62.813h5.924c6.439,0,11.014,3.584,11.014,11.326v0.363c0,4.832-2.03,8-4.886,9.716l5.511,14.963
		h-5.511l-4.886-13.301c-0.203,0-0.468,0.053-0.671,0.053h-1.35v13.248h-5.144V62.813z M1784.892,81.309
		c3.427,0,5.768-2.078,5.768-6.754v-0.313c0-4.988-2.498-6.65-5.924-6.65h-0.726v13.716H1784.892z"/>
	<path class="st0" d="M1799.277,62.813h13.457v4.832h-8.313v10.807h7.431v4.831h-7.431V94.35h8.469v4.832h-13.613V62.813z"/>
</g>
<g>
	<path class="st1" d="M0,197.923h16.944c9.997,0,16.436,5.14,16.436,13.895v0.113c0,9.319-7.173,14.232-17.001,14.232h-5.422v11.297
		H0V197.923z M16.153,217.578c3.897,0,6.269-2.033,6.269-5.14v-0.113c0-3.389-2.373-5.197-6.326-5.197h-5.14v10.449H16.153z"/>
	<path class="st1" d="M37.214,197.923h10.957v29.935h19.147v9.602H37.214V197.923z"/>
	<path class="st1" d="M71.21,197.923h31.798v9.32H82.054v5.986h18.977v8.642H82.054v6.269h21.236v9.319H71.21V197.923z"/>
	<path class="st1" d="M106.447,217.804v-0.113c0-11.522,9.037-20.559,21.294-20.559c6.948,0,11.861,2.147,16.041,5.762l-6.439,7.737
		c-2.825-2.371-5.649-3.727-9.546-3.727c-5.704,0-10.11,4.8-10.11,10.844v0.113c0,6.382,4.462,10.957,10.732,10.957
		c2.655,0,4.687-0.564,6.326-1.637v-4.802h-7.795v-8.02h18.187v17.792c-4.179,3.446-9.997,6.1-17.17,6.1
		C115.655,238.25,106.447,229.778,106.447,217.804z"/>
	<path class="st1" d="M150.385,197.923h18.696c6.043,0,10.223,1.582,12.877,4.293c2.315,2.259,3.502,5.309,3.502,9.206v0.113
		c0,6.044-3.22,10.053-8.133,12.144l9.432,13.781h-12.652l-7.964-11.974h-0.113h-4.687v11.974h-10.957V197.923z M168.572,216.9
		c3.727,0,5.874-1.807,5.874-4.688V212.1c0-3.106-2.26-4.688-5.931-4.688h-7.173v9.488H168.572z"/>
	<path class="st1" d="M190.423,197.923h11.013v39.537h-11.013V197.923z"/>
	<path class="st1" d="M207.816,197.923h15.25c14.119,0,22.309,8.133,22.309,19.543v0.113c0,11.41-8.302,19.881-22.536,19.881
		h-15.023V197.923z M223.236,227.745c6.551,0,10.901-3.615,10.901-9.997v-0.113c0-6.326-4.349-9.997-10.901-9.997h-4.462v20.107
		H223.236z"/>
	<path class="st1" d="M257.964,222.662l-15.023-24.739h12.482l8.133,14.403l8.19-14.403h12.256l-15.023,24.569v14.968h-11.015
		V222.662z"/>
	<path class="st1" d="M285.63,207.19v-0.065c0-6.49,5.27-11.991,11.957-11.991c6.687,0,11.892,5.436,11.892,11.925v0.066
		c0,6.489-5.27,11.99-11.959,11.99C290.834,219.115,285.63,213.68,285.63,207.19z M308.096,207.125v-0.066
		c0-5.831-4.513-10.607-10.509-10.607c-6.027,0-10.573,4.843-10.573,10.674v0.065c0,5.831,4.512,10.607,10.507,10.607
		C303.55,217.798,308.096,212.955,308.096,207.125z M292.317,200.437h5.896c2.01,0,3.393,0.528,4.283,1.418
		c0.724,0.724,1.087,1.68,1.087,2.898v0.066c0,1.943-1.022,3.227-2.602,3.887l3.031,4.415h-4.052l-2.569-3.854h-0.065h-1.483v3.854
		h-3.524V200.437z M298.148,206.532c1.218,0,1.91-0.56,1.91-1.483v-0.066c0-1.02-0.757-1.515-1.943-1.515h-2.274v3.065H298.148z"/>
	<path class="st0" d="M315.164,222.156v-2.937h42.806v2.937H315.164z"/>
	<path class="st0" d="M397.556,228.17c-0.791,2.166-1.901,3.982-3.331,5.45c-1.431,1.469-3.135,2.58-5.111,3.332
		c-1.977,0.753-4.17,1.13-6.579,1.13c-2.371,0-4.546-0.367-6.523-1.102c-1.977-0.734-3.69-1.826-5.139-3.275
		c-1.449-1.449-2.57-3.227-3.36-5.337c-0.79-2.108-1.186-4.555-1.186-7.341v-23.097h2.937v22.814c0,4.708,1.177,8.33,3.53,10.872
		c2.353,2.541,5.638,3.812,9.854,3.812c1.996,0,3.803-0.301,5.422-0.904c1.618-0.602,3.002-1.506,4.15-2.711
		c1.148-1.204,2.033-2.71,2.655-4.517c0.622-1.807,0.931-3.897,0.931-6.268v-23.097h2.937v22.758
		C398.742,223.511,398.347,226.005,397.556,228.17z"/>
	<path class="st0" d="M439.684,237.46l-27.84-35.126v35.126h-2.824v-39.531h2.767l27.276,34.392v-34.392h2.823v39.531H439.684z"/>
	<path class="st0" d="M496.721,215.604c-0.829,1.582-1.948,2.9-3.359,3.953c-1.413,1.055-3.05,1.845-4.913,2.373
		c-1.864,0.528-3.832,0.79-5.902,0.79h-10.673v14.74h-2.937v-39.531h14.344c2.183,0,4.169,0.273,5.957,0.818
		c1.789,0.546,3.333,1.337,4.631,2.372c1.299,1.037,2.306,2.297,3.022,3.784c0.714,1.488,1.073,3.191,1.073,5.111v0.113
		C497.964,212.198,497.549,214.024,496.721,215.604z M495.027,210.182c0-1.589-0.292-2.982-0.876-4.174
		c-0.584-1.193-1.403-2.187-2.457-2.983c-1.054-0.794-2.315-1.401-3.783-1.817c-1.469-0.416-3.088-0.625-4.857-0.625h-11.181v19.484
		h10.842c1.845,0,3.521-0.227,5.026-0.682c1.506-0.454,2.796-1.107,3.869-1.959c1.073-0.852,1.91-1.884,2.513-3.097
		c0.601-1.211,0.904-2.554,0.904-4.032V210.182z"/>
	<path class="st0" d="M505.813,237.46v-39.531h28.123v2.653h-25.187v15.643h22.645v2.655h-22.645v15.924h25.469v2.655H505.813z"/>
	<path class="st0" d="M571.263,237.46l-12.593-16.377h-12.932v16.377h-2.937v-39.531h16.602c2.146,0,4.085,0.273,5.817,0.818
		c1.731,0.546,3.21,1.319,4.433,2.315c1.223,0.999,2.174,2.185,2.851,3.558c0.678,1.375,1.017,2.89,1.017,4.546v0.113
		c0,1.657-0.292,3.135-0.875,4.433c-0.584,1.299-1.394,2.419-2.428,3.36c-1.036,0.941-2.26,1.703-3.671,2.287
		c-1.413,0.584-2.947,0.988-4.603,1.213l13.045,16.886H571.263z M570.585,209.251c0-2.681-0.988-4.795-2.964-6.344
		c-1.977-1.548-4.772-2.324-8.386-2.324h-13.496v17.846h13.327c1.656,0,3.191-0.207,4.602-0.623
		c1.411-0.415,2.626-1.009,3.643-1.784c1.016-0.774,1.816-1.72,2.4-2.834c0.583-1.113,0.875-2.389,0.875-3.824V209.251z"/>
	<path class="st0" d="M585.776,200.582v16.322h22.363v2.653h-22.363v17.902h-2.937v-39.531h27.84v2.653H585.776z"/>
	<path class="st0" d="M619.489,237.46v-39.531h2.937v39.531H619.489z"/>
	<path class="st0" d="M633.777,237.46v-39.531h2.937v36.876h23.21v2.655H633.777z"/>
	<path class="st0" d="M716.733,225.487c-1.016,2.41-2.457,4.5-4.32,6.268c-1.863,1.771-4.085,3.162-6.663,4.179
		c-2.579,1.017-5.413,1.525-8.499,1.525h-13.158v-39.531h13.158c3.086,0,5.92,0.499,8.499,1.497c2.578,0.998,4.8,2.381,6.663,4.15
		c1.864,1.771,3.304,3.85,4.32,6.241c1.017,2.391,1.526,4.98,1.526,7.765v0.113C718.258,220.481,717.749,223.078,716.733,225.487z
		 M715.209,217.694c0-2.341-0.424-4.551-1.271-6.628s-2.043-3.891-3.586-5.44c-1.544-1.549-3.427-2.776-5.648-3.684
		c-2.221-0.906-4.706-1.36-7.454-1.36h-10.221v34.222h10.221c2.747,0,5.233-0.444,7.454-1.331c2.221-0.887,4.104-2.096,5.648-3.626
		c1.543-1.529,2.739-3.324,3.586-5.382c0.847-2.059,1.271-4.278,1.271-6.658V217.694z"/>
	<path class="st0" d="M727.463,237.46v-39.531h28.124v2.653H730.4v15.643h22.645v2.655H730.4v15.924h25.469v2.655H727.463z"/>
	<path class="st0" d="M794.495,200.582v36.877h-2.937v-36.877h-13.78v-2.653h30.495v2.653H794.495z"/>
	<path class="st0" d="M849.866,225.46c-0.96,2.465-2.307,4.64-4.039,6.523c-1.732,1.883-3.831,3.379-6.297,4.49
		c-2.465,1.109-5.186,1.666-8.159,1.666c-3.013,0-5.732-0.557-8.161-1.666c-2.428-1.11-4.508-2.598-6.24-4.462
		c-1.731-1.864-3.068-4.019-4.01-6.466c-0.941-2.447-1.411-5.026-1.411-7.736v-0.114c0-2.71,0.48-5.298,1.44-7.765
		c0.96-2.465,2.306-4.639,4.038-6.523c1.731-1.881,3.82-3.378,6.268-4.49c2.447-1.109,5.175-1.666,8.189-1.666
		c2.973,0,5.684,0.557,8.132,1.666c2.447,1.112,4.536,2.598,6.268,4.462c1.731,1.864,3.068,4.019,4.01,6.466
		s1.413,5.026,1.413,7.736c0.036,0.039,0.036,0.076,0,0.113C851.306,220.405,850.826,222.994,849.866,225.46z M848.255,217.694
		c0-2.447-0.422-4.752-1.27-6.917c-0.847-2.165-2.015-4.047-3.502-5.648c-1.488-1.599-3.266-2.87-5.337-3.812
		c-2.071-0.94-4.329-1.411-6.776-1.411c-2.448,0-4.698,0.461-6.748,1.384c-2.053,0.923-3.822,2.183-5.309,3.783
		c-1.488,1.6-2.644,3.473-3.473,5.619c-0.828,2.147-1.242,4.443-1.242,6.89v0.113c0,2.448,0.424,4.754,1.271,6.919
		c0.847,2.165,2.013,4.047,3.501,5.646c1.488,1.601,3.266,2.872,5.337,3.813c2.071,0.941,4.329,1.411,6.777,1.411
		c2.447,0,4.696-0.46,6.748-1.384c2.052-0.923,3.82-2.183,5.308-3.784c1.488-1.599,2.645-3.473,3.473-5.619
		c0.828-2.146,1.242-4.442,1.242-6.889V217.694z"/>
	<path class="st0" d="M860.51,237.46v-39.531h2.937v36.876h23.21v2.655H860.51z"/>
	<path class="st0" d="M894.675,237.46v-39.531h28.124v2.653h-25.187v15.643h22.645v2.655h-22.645v15.924h25.469v2.655H894.675z"/>
	<path class="st0" d="M960.182,237.46l-12.593-16.377h-12.932v16.377h-2.937v-39.531h16.602c2.146,0,4.085,0.273,5.817,0.818
		c1.731,0.546,3.21,1.319,4.433,2.315c1.223,0.999,2.175,2.185,2.852,3.558c0.678,1.375,1.017,2.89,1.017,4.546v0.113
		c0,1.657-0.292,3.135-0.875,4.433c-0.584,1.299-1.394,2.419-2.428,3.36c-1.036,0.941-2.26,1.703-3.671,2.287
		c-1.413,0.584-2.947,0.988-4.603,1.213l13.045,16.886H960.182z M959.504,209.251c0-2.681-0.988-4.795-2.964-6.344
		c-1.977-1.548-4.772-2.324-8.386-2.324h-13.496v17.846h13.327c1.656,0,3.191-0.207,4.602-0.623
		c1.411-0.415,2.626-1.009,3.642-1.784c1.016-0.774,1.816-1.72,2.4-2.834c0.583-1.113,0.875-2.389,0.875-3.824V209.251z"/>
	<path class="st0" d="M1004.796,237.46l-5.026-11.069h-23.324l-5.026,11.069h-3.049l18.411-39.813h2.824l18.41,39.813H1004.796z
		 M988.136,200.866l-10.447,22.871h20.838L988.136,200.866z"/>
	<path class="st0" d="M1045.796,231.174c-0.677,1.335-1.634,2.463-2.874,3.383c-1.241,0.921-2.725,1.635-4.453,2.142
		c-1.73,0.508-3.665,0.761-5.807,0.761h-17.136v-39.531h16.289c1.917,0,3.664,0.227,5.24,0.679c1.578,0.453,2.922,1.103,4.031,1.952
		c1.108,0.849,1.973,1.876,2.593,3.083c0.619,1.207,0.93,2.547,0.93,4.017v0.113c0,1.359-0.198,2.547-0.593,3.564
		c-0.394,1.019-0.91,1.905-1.549,2.66c-0.639,0.754-1.361,1.386-2.168,1.896c-0.808,0.509-1.606,0.933-2.394,1.272
		c1.164,0.301,2.291,0.705,3.382,1.212c1.09,0.508,2.038,1.146,2.846,1.916c0.808,0.771,1.456,1.672,1.945,2.706
		c0.489,1.034,0.733,2.226,0.733,3.58v0.113C1046.811,228.346,1046.472,229.84,1045.796,231.174z M1041.672,207.921
		c0-2.199-0.847-3.972-2.542-5.318c-1.693-1.346-4.141-2.02-7.341-2.02h-13.327v15.643h13.045c1.468,0,2.823-0.18,4.066-0.54
		c1.242-0.36,2.315-0.881,3.219-1.564c0.904-0.683,1.609-1.537,2.117-2.559c0.509-1.024,0.763-2.2,0.763-3.527V207.921z
		 M1043.874,226.588c0-2.455-1.026-4.354-3.078-5.695c-2.052-1.341-5.035-2.012-8.951-2.012h-13.383v15.924h14.344
		c3.388,0,6.08-0.727,8.076-2.182c1.995-1.454,2.993-3.428,2.993-5.922V226.588z"/>
	<path class="st0" d="M1055.901,237.46v-39.531h2.937v39.531H1055.901z"/>
	<path class="st0" d="M1070.189,237.46v-39.531h2.937v36.876h23.21v2.655H1070.189z"/>
	<path class="st0" d="M1104.75,237.46v-39.531h2.937v39.531H1104.75z"/>
	<path class="st0" d="M1151.678,225.487c-1.016,2.41-2.457,4.5-4.32,6.268c-1.862,1.771-4.085,3.162-6.663,4.179
		c-2.579,1.017-5.413,1.525-8.499,1.525h-13.158v-39.531h13.158c3.086,0,5.92,0.499,8.499,1.497c2.578,0.998,4.801,2.381,6.663,4.15
		c1.864,1.771,3.304,3.85,4.32,6.241c1.016,2.391,1.526,4.98,1.526,7.765v0.113C1153.203,220.481,1152.694,223.078,1151.678,225.487
		z M1150.154,217.694c0-2.341-0.423-4.551-1.271-6.628c-0.847-2.077-2.043-3.891-3.586-5.44c-1.544-1.549-3.427-2.776-5.648-3.684
		c-2.221-0.906-4.706-1.36-7.454-1.36h-10.221v34.222h10.221c2.747,0,5.233-0.444,7.454-1.331s4.104-2.096,5.648-3.626
		c1.543-1.529,2.739-3.324,3.586-5.382c0.847-2.059,1.271-4.278,1.271-6.658V217.694z"/>
	<path class="st0" d="M1192.903,237.46l-5.026-11.069h-23.324l-5.026,11.069h-3.049l18.411-39.813h2.824l18.41,39.813H1192.903z
		 M1176.243,200.866l-10.447,22.871h20.838L1176.243,200.866z"/>
	<path class="st0" d="M1236.274,225.487c-1.016,2.41-2.457,4.5-4.32,6.268c-1.863,1.771-4.085,3.162-6.663,4.179
		c-2.58,1.017-5.413,1.525-8.499,1.525h-13.158v-39.531h13.158c3.086,0,5.92,0.499,8.499,1.497c2.578,0.998,4.8,2.381,6.663,4.15
		c1.864,1.771,3.304,3.85,4.32,6.241c1.016,2.391,1.525,4.98,1.525,7.765v0.113C1237.799,220.481,1237.29,223.078,1236.274,225.487z
		 M1234.75,217.694c0-2.341-0.424-4.551-1.271-6.628c-0.847-2.077-2.043-3.891-3.586-5.44c-1.544-1.549-3.427-2.776-5.648-3.684
		c-2.221-0.906-4.706-1.36-7.454-1.36h-10.222v34.222h10.222c2.747,0,5.233-0.444,7.454-1.331c2.221-0.887,4.104-2.096,5.648-3.626
		c1.543-1.529,2.739-3.324,3.586-5.382c0.847-2.059,1.271-4.278,1.271-6.658V217.694z"/>
	<path class="st0" d="M32.642,298.941c-0.677,1.335-1.635,2.463-2.874,3.383c-1.241,0.921-2.725,1.635-4.453,2.142
		c-1.73,0.508-3.665,0.761-5.807,0.761H2.371v-39.531H18.66c1.916,0,3.664,0.227,5.24,0.679c1.578,0.453,2.922,1.103,4.031,1.952
		c1.108,0.849,1.973,1.876,2.593,3.083c0.619,1.207,0.93,2.547,0.93,4.017v0.113c0,1.359-0.198,2.547-0.593,3.564
		c-0.394,1.019-0.91,1.905-1.549,2.66c-0.639,0.754-1.361,1.386-2.168,1.896c-0.809,0.509-1.606,0.933-2.394,1.272
		c1.165,0.301,2.291,0.705,3.382,1.212c1.09,0.508,2.038,1.146,2.846,1.916c0.809,0.771,1.456,1.672,1.945,2.706
		c0.489,1.034,0.733,2.226,0.733,3.58v0.113C33.657,296.113,33.319,297.607,32.642,298.941z M28.518,275.688
		c0-2.199-0.847-3.972-2.542-5.318c-1.693-1.346-4.141-2.02-7.341-2.02H5.308v15.643h13.045c1.468,0,2.823-0.18,4.066-0.54
		c1.242-0.36,2.315-0.881,3.219-1.564c0.904-0.683,1.609-1.537,2.117-2.56c0.509-1.024,0.763-2.2,0.763-3.527V275.688z
		 M30.72,294.354c0-2.455-1.027-4.354-3.078-5.695c-2.052-1.341-5.035-2.012-8.95-2.012H5.308v15.924h14.344
		c3.388,0,6.08-0.727,8.076-2.182c1.996-1.454,2.993-3.428,2.993-5.922V294.354z"/>
	<path class="st0" d="M42.748,305.226v-39.531h2.937v39.531H42.748z"/>
	<path class="st0" d="M57.035,305.226v-39.531h28.123v2.653H59.972v15.643h22.645v2.655H59.972v15.924h25.469v2.655H57.035z"/>
	<path class="st0" d="M124.746,305.226L96.905,270.1v35.126h-2.824v-39.531h2.767l27.276,34.392v-34.392h2.823v39.531H124.746z"/>
	<path class="st0" d="M184.35,301.81c-1.11,0.847-2.296,1.573-3.557,2.175c-1.262,0.603-2.626,1.073-4.095,1.411
		c-1.468,0.34-3.068,0.509-4.799,0.509c-2.824,0-5.441-0.528-7.85-1.582c-2.41-1.053-4.49-2.493-6.24-4.32
		c-1.751-1.825-3.116-3.981-4.093-6.466c-0.98-2.484-1.469-5.139-1.469-7.962v-0.114c0-2.785,0.499-5.421,1.497-7.905
		c0.998-2.485,2.371-4.66,4.122-6.523c1.751-1.864,3.83-3.333,6.24-4.406c2.409-1.073,5.045-1.609,7.906-1.609
		c1.769,0,3.369,0.152,4.799,0.453c1.431,0.301,2.757,0.733,3.982,1.299c1.223,0.564,2.371,1.233,3.444,2.004
		c1.073,0.772,2.118,1.629,3.135,2.57l-2.089,2.147c-0.866-0.828-1.77-1.6-2.711-2.316c-0.941-0.714-1.948-1.327-3.021-1.835
		c-1.073-0.509-2.241-0.912-3.502-1.214c-1.262-0.301-2.626-0.451-4.094-0.451c-2.373,0-4.575,0.451-6.608,1.355
		c-2.033,0.904-3.793,2.156-5.28,3.755c-1.488,1.601-2.653,3.473-3.501,5.619c-0.847,2.147-1.271,4.462-1.271,6.946v0.113
		c0,2.486,0.432,4.81,1.298,6.975c0.866,2.165,2.042,4.047,3.53,5.646c1.488,1.6,3.248,2.861,5.281,3.784
		c2.033,0.924,4.235,1.384,6.608,1.384c2.86,0,5.346-0.526,7.454-1.582c2.108-1.053,4.16-2.578,6.156-4.574l1.977,1.92
		C186.544,300.031,185.461,300.962,184.35,301.81z"/>
	<path class="st0" d="M230.32,293.227c-0.96,2.465-2.307,4.64-4.038,6.523c-1.732,1.883-3.832,3.379-6.297,4.49
		c-2.466,1.109-5.186,1.666-8.16,1.666c-3.013,0-5.732-0.556-8.161-1.666c-2.428-1.11-4.509-2.598-6.241-4.462
		c-1.731-1.864-3.068-4.019-4.01-6.466c-0.941-2.447-1.411-5.026-1.411-7.736v-0.114c0-2.71,0.48-5.298,1.44-7.765
		c0.96-2.465,2.306-4.639,4.039-6.523c1.731-1.881,3.82-3.378,6.268-4.49c2.447-1.109,5.175-1.666,8.188-1.666
		c2.973,0,5.684,0.557,8.132,1.666c2.447,1.112,4.536,2.598,6.268,4.462c1.731,1.864,3.068,4.019,4.01,6.466
		c0.941,2.448,1.413,5.026,1.413,7.736c0.036,0.039,0.036,0.076,0,0.113C231.76,288.172,231.28,290.761,230.32,293.227z
		 M228.709,285.461c0-2.447-0.423-4.752-1.27-6.917c-0.847-2.165-2.016-4.047-3.502-5.648c-1.488-1.599-3.266-2.87-5.337-3.812
		c-2.07-0.94-4.329-1.411-6.776-1.411c-2.448,0-4.698,0.461-6.748,1.384c-2.053,0.923-3.822,2.183-5.309,3.783
		c-1.488,1.6-2.645,3.473-3.473,5.619c-0.829,2.147-1.242,4.443-1.242,6.89v0.113c0,2.448,0.424,4.754,1.271,6.919
		c0.847,2.165,2.013,4.047,3.501,5.646c1.488,1.601,3.266,2.872,5.337,3.813c2.07,0.941,4.329,1.411,6.777,1.411
		c2.447,0,4.696-0.46,6.748-1.384c2.052-0.923,3.82-2.183,5.308-3.784c1.488-1.599,2.645-3.473,3.473-5.619
		c0.829-2.146,1.242-4.442,1.242-6.889V285.461z"/>
	<path class="st0" d="M271.627,305.226l-27.84-35.126v35.126h-2.824v-39.531h2.767l27.276,34.392v-34.392h2.823v39.531H271.627z"/>
	<path class="st0" d="M321.295,293.227c-0.96,2.465-2.307,4.64-4.038,6.523c-1.732,1.883-3.832,3.379-6.297,4.49
		c-2.466,1.109-5.186,1.666-8.16,1.666c-3.013,0-5.732-0.556-8.161-1.666c-2.428-1.11-4.509-2.598-6.241-4.462
		c-1.731-1.864-3.068-4.019-4.01-6.466c-0.941-2.447-1.411-5.026-1.411-7.736v-0.114c0-2.71,0.48-5.298,1.44-7.765
		c0.96-2.465,2.306-4.639,4.039-6.523c1.731-1.881,3.82-3.378,6.268-4.49c2.447-1.109,5.175-1.666,8.188-1.666
		c2.973,0,5.684,0.557,8.132,1.666c2.447,1.112,4.536,2.598,6.268,4.462c1.731,1.864,3.068,4.019,4.01,6.466
		c0.941,2.448,1.413,5.026,1.413,7.736c0.036,0.039,0.036,0.076,0,0.113C322.736,288.172,322.256,290.761,321.295,293.227z
		 M319.685,285.461c0-2.447-0.422-4.752-1.27-6.917c-0.847-2.165-2.016-4.047-3.502-5.648c-1.488-1.599-3.266-2.87-5.337-3.812
		c-2.07-0.94-4.329-1.411-6.776-1.411c-2.448,0-4.698,0.461-6.748,1.384c-2.053,0.923-3.822,2.183-5.309,3.783
		c-1.488,1.6-2.645,3.473-3.473,5.619c-0.829,2.147-1.242,4.443-1.242,6.89v0.113c0,2.448,0.424,4.754,1.271,6.919
		c0.847,2.165,2.013,4.047,3.501,5.646c1.488,1.601,3.266,2.872,5.337,3.813c2.07,0.941,4.329,1.411,6.777,1.411
		c2.447,0,4.696-0.46,6.748-1.384c2.052-0.923,3.82-2.183,5.308-3.784c1.488-1.599,2.645-3.473,3.473-5.619
		c0.829-2.146,1.242-4.442,1.242-6.889V285.461z"/>
	<path class="st0" d="M362.294,301.81c-1.11,0.847-2.296,1.573-3.557,2.175c-1.262,0.603-2.626,1.073-4.095,1.411
		c-1.468,0.34-3.068,0.509-4.799,0.509c-2.824,0-5.441-0.528-7.85-1.582c-2.41-1.053-4.49-2.493-6.24-4.32
		c-1.751-1.825-3.116-3.981-4.094-6.466c-0.98-2.484-1.469-5.139-1.469-7.962v-0.114c0-2.785,0.499-5.421,1.497-7.905
		c0.998-2.485,2.371-4.66,4.122-6.523c1.751-1.864,3.83-3.333,6.24-4.406c2.409-1.073,5.045-1.609,7.906-1.609
		c1.769,0,3.369,0.152,4.799,0.453c1.431,0.301,2.757,0.733,3.982,1.299c1.223,0.564,2.371,1.233,3.444,2.004
		c1.073,0.772,2.118,1.629,3.135,2.57l-2.089,2.147c-0.866-0.828-1.77-1.6-2.711-2.316c-0.941-0.714-1.948-1.327-3.021-1.835
		c-1.073-0.509-2.241-0.912-3.502-1.214c-1.262-0.301-2.626-0.451-4.094-0.451c-2.373,0-4.575,0.451-6.608,1.355
		c-2.033,0.904-3.793,2.156-5.28,3.755c-1.488,1.601-2.653,3.473-3.501,5.619c-0.847,2.147-1.271,4.462-1.271,6.946v0.113
		c0,2.486,0.432,4.81,1.298,6.975s2.042,4.047,3.53,5.646c1.488,1.6,3.248,2.861,5.281,3.784c2.033,0.924,4.235,1.384,6.608,1.384
		c2.86,0,5.346-0.526,7.454-1.582c2.108-1.053,4.16-2.578,6.155-4.574l1.977,1.92C364.487,300.031,363.404,300.962,362.294,301.81z"
		/>
	<path class="st0" d="M373.221,305.226v-39.531h2.937v39.531H373.221z"/>
	<path class="st0" d="M420.149,293.254c-1.017,2.41-2.457,4.5-4.32,6.268c-1.863,1.771-4.085,3.162-6.663,4.179
		c-2.58,1.017-5.413,1.525-8.499,1.525h-13.158v-39.531h13.158c3.086,0,5.92,0.499,8.499,1.497c2.578,0.998,4.8,2.381,6.663,4.15
		c1.864,1.771,3.304,3.85,4.32,6.241c1.017,2.391,1.525,4.98,1.525,7.765v0.113C421.674,288.248,421.165,290.845,420.149,293.254z
		 M418.625,285.461c0-2.341-0.424-4.551-1.271-6.628c-0.847-2.077-2.043-3.891-3.586-5.44c-1.544-1.549-3.427-2.776-5.648-3.684
		c-2.221-0.906-4.706-1.36-7.454-1.36h-10.222v34.222h10.222c2.747,0,5.233-0.444,7.454-1.331c2.221-0.887,4.103-2.096,5.648-3.626
		c1.543-1.529,2.739-3.324,3.586-5.382c0.847-2.059,1.271-4.278,1.271-6.658V285.461z"/>
	<path class="st0" d="M467.389,293.227c-0.96,2.465-2.307,4.64-4.038,6.523c-1.732,1.883-3.832,3.379-6.297,4.49
		c-2.466,1.109-5.187,1.666-8.16,1.666c-3.013,0-5.732-0.556-8.161-1.666c-2.428-1.11-4.508-2.598-6.24-4.462
		c-1.731-1.864-3.068-4.019-4.01-6.466c-0.941-2.447-1.411-5.026-1.411-7.736v-0.114c0-2.71,0.48-5.298,1.44-7.765
		c0.96-2.465,2.306-4.639,4.039-6.523c1.731-1.881,3.82-3.378,6.268-4.49c2.447-1.109,5.175-1.666,8.189-1.666
		c2.973,0,5.684,0.557,8.132,1.666c2.447,1.112,4.536,2.598,6.268,4.462c1.731,1.864,3.068,4.019,4.01,6.466
		c0.941,2.448,1.413,5.026,1.413,7.736c0.036,0.039,0.036,0.076,0,0.113C468.829,288.172,468.349,290.761,467.389,293.227z
		 M465.778,285.461c0-2.447-0.423-4.752-1.27-6.917c-0.847-2.165-2.016-4.047-3.502-5.648c-1.488-1.599-3.266-2.87-5.337-3.812
		c-2.07-0.94-4.329-1.411-6.776-1.411c-2.448,0-4.698,0.461-6.748,1.384c-2.053,0.923-3.821,2.183-5.309,3.783
		c-1.488,1.6-2.645,3.473-3.473,5.619c-0.828,2.147-1.242,4.443-1.242,6.89v0.113c0,2.448,0.424,4.754,1.271,6.919
		c0.847,2.165,2.013,4.047,3.501,5.646c1.488,1.601,3.266,2.872,5.337,3.813c2.07,0.941,4.329,1.411,6.777,1.411
		c2.447,0,4.696-0.46,6.748-1.384c2.052-0.923,3.82-2.183,5.308-3.784c1.488-1.599,2.644-3.473,3.473-5.619
		c0.828-2.146,1.242-4.442,1.242-6.889V285.461z"/>
</g>
</svg>