<!-- Generator: Adobe Illustrator 19.2.1, SVG Export Plug-In  -->
<svg version="1.1"
	 xmlns="http://www.w3.org/2000/svg" xmlns:xlink="http://www.w3.org/1999/xlink" xmlns:a="http://ns.adobe.com/AdobeSVGViewerExtensions/3.0/"
	 x="0px" y="0px" width="1056.472px" height="353.613px" viewBox="0 0 1056.472 353.613"
	 style="enable-background:new 0 0 1056.472 353.613;" xml:space="preserve">
<style type="text/css">
	.st0{fill:#54B5E6;}
	.st1{fill:#58595B;}
</style>
<defs>
</defs>
<g>
	<g>
		<path class="st0" d="M0.654,13.681h17.694c10.438,0,17.16,5.367,17.16,14.509v0.118c0,9.73-7.491,14.862-17.751,14.862h-5.659
			v11.794H0.654V13.681z M17.52,34.205c4.073,0,6.549-2.122,6.549-5.367V28.72c0-3.539-2.476-5.426-6.607-5.426h-5.366v10.911H17.52
			z"/>
		<path class="st0" d="M40.925,13.681H74.13v9.732H52.249v6.25h19.814v9.024H52.249v6.546h22.175v9.73H40.925V13.681z"/>
		<path class="st0" d="M79.077,34.44v-0.118c0-12.031,9.433-21.467,22.232-21.467c7.256,0,12.386,2.242,16.747,6.016l-6.722,8.079
			c-2.947-2.476-5.895-3.892-9.967-3.892c-5.957,0-10.554,5.014-10.554,11.323v0.118c0,6.664,4.659,11.441,11.203,11.441
			c2.774,0,4.895-0.589,6.606-1.709v-5.014h-8.14v-8.374h18.992V49.42c-4.366,3.598-10.439,6.37-17.93,6.37
			C88.688,55.79,79.077,46.944,79.077,34.44z"/>
		<path class="st0" d="M126.662,13.681h11.501v41.282h-11.501V13.681z"/>
		<path class="st0" d="M146.241,13.681h11.438v31.256h19.992v10.026h-31.43V13.681z"/>
		<path class="st0" d="M197.422,13.387h11.03l17.574,41.577H213.76l-3.005-7.372h-15.924l-2.947,7.372h-12.035L197.422,13.387z
			 M207.452,38.687l-4.601-11.737l-4.659,11.737H207.452z"/>
		<path class="st0" d="M226.549,34.44v-0.118c0-12.031,9.261-21.467,21.761-21.467c8.433,0,13.862,3.539,17.516,8.61l-8.611,6.665
			c-2.356-2.95-5.067-4.837-9.02-4.837c-5.779,0-9.852,4.896-9.852,10.911v0.118c0,6.193,4.073,11.028,9.852,11.028
			c4.303,0,6.842-2.005,9.318-5.014l8.611,6.134c-3.895,5.367-9.145,9.318-18.286,9.318C236.045,55.79,226.549,46.766,226.549,34.44
			z"/>
		<path class="st0" d="M271.836,13.681h11.501v41.282h-11.501V13.681z"/>
		<path class="st0" d="M290.059,34.44v-0.118c0-11.853,9.553-21.467,22.29-21.467c12.742,0,22.175,9.495,22.175,21.349v0.118
			c0,11.854-9.553,21.467-22.29,21.467C299.492,55.79,290.059,46.295,290.059,34.44z M322.85,34.44v-0.118
			c0-5.956-4.309-11.146-10.617-11.146c-6.25,0-10.438,5.073-10.438,11.028v0.118c0,5.956,4.303,11.146,10.554,11.146
			C318.662,45.469,322.85,40.398,322.85,34.44z M314.417,0l10.438,3.361l-8.669,7.549h-7.905L314.417,0z"/>
		<path class="st0" d="M341.005,13.681h10.674l16.987,21.82v-21.82h11.323v41.282h-10.025l-17.636-22.646v22.646h-11.323V13.681z"/>
		<path class="st0" d="M387.056,23.059h11.679v11.5h-11.679V23.059z M387.056,43.464h11.679v11.5h-11.679V43.464z"/>
		<path class="st1" d="M35.089,116.022c-0.822,2.262-1.984,4.158-3.476,5.69c-1.497,1.534-3.272,2.693-5.34,3.478
			c-2.062,0.787-4.35,1.181-6.868,1.181c-2.476,0-4.748-0.384-6.811-1.15c-2.062-0.767-3.853-1.907-5.366-3.42
			c-1.513-1.513-2.68-3.37-3.507-5.573c-0.827-2.201-1.241-4.756-1.241-7.665V84.447h3.068v23.821c0,4.915,1.23,8.698,3.685,11.352
			c2.455,2.653,5.884,3.98,10.292,3.98c2.084,0,3.968-0.314,5.659-0.944c1.691-0.628,3.136-1.572,4.335-2.831
			c1.199-1.258,2.12-2.83,2.769-4.717s0.973-4.069,0.973-6.545V84.447h3.068v23.762C36.329,111.158,35.916,113.762,35.089,116.022z"
			/>
		<path class="st1" d="M80.496,125.722L51.421,89.045v36.677h-2.947V84.447h2.89l28.483,35.91v-35.91h2.947v41.276H80.496z"/>
		<path class="st1" d="M142.938,102.902c-0.869,1.652-2.036,3.028-3.513,4.128c-1.471,1.102-3.183,1.927-5.13,2.478
			c-1.942,0.551-3.999,0.824-6.162,0.824h-11.145v15.391h-3.062V84.447h14.977c2.277,0,4.35,0.285,6.219,0.854
			c1.869,0.571,3.481,1.396,4.837,2.476c1.356,1.082,2.408,2.399,3.151,3.951c0.749,1.553,1.12,3.332,1.12,5.337v0.118
			C144.231,99.345,143.801,101.252,142.938,102.902z M141.168,97.241c0-1.659-0.309-3.113-0.916-4.358
			c-0.607-1.246-1.466-2.284-2.565-3.115c-1.099-0.83-2.419-1.463-3.952-1.898c-1.529-0.434-3.22-0.653-5.067-0.653h-11.679v20.344
			h11.323c1.927,0,3.675-0.237,5.251-0.712c1.571-0.474,2.916-1.156,4.036-2.046c1.12-0.89,1.994-1.967,2.623-3.234
			c0.628-1.264,0.947-2.667,0.947-4.21V97.241z"/>
		<path class="st1" d="M183.566,125.722l-13.15-17.1H156.91v17.1h-3.062V84.447h17.333c2.24,0,4.266,0.285,6.078,0.854
			c1.806,0.571,3.35,1.377,4.627,2.417c1.277,1.043,2.267,2.281,2.979,3.715c0.707,1.436,1.058,3.018,1.058,4.747v0.118
			c0,1.73-0.304,3.273-0.911,4.629c-0.612,1.356-1.455,2.526-2.539,3.509c-1.079,0.983-2.356,1.778-3.832,2.388
			c-1.471,0.61-3.073,1.031-4.806,1.267l13.621,17.631H183.566z M182.859,96.268c0-2.799-1.036-5.007-3.099-6.625
			c-2.063-1.616-4.984-2.426-8.753-2.426H156.91v18.633h13.919c1.728,0,3.329-0.216,4.806-0.65c1.471-0.433,2.743-1.053,3.801-1.862
			c1.062-0.809,1.895-1.796,2.507-2.959c0.607-1.162,0.916-2.495,0.916-3.993V96.268z"/>
		<path class="st1" d="M235.25,113.193c-1.005,2.574-2.408,4.845-4.219,6.811c-1.806,1.966-3.999,3.528-6.575,4.688
			c-2.575,1.158-5.413,1.739-8.517,1.739c-3.146,0-5.989-0.581-8.522-1.739c-2.534-1.159-4.706-2.713-6.517-4.659
			c-1.806-1.946-3.204-4.196-4.183-6.752c-0.984-2.555-1.476-5.248-1.476-8.077v-0.119c0-2.83,0.503-5.532,1.503-8.108
			c1.005-2.574,2.408-4.844,4.219-6.811c1.806-1.965,3.989-3.527,6.544-4.688c2.555-1.158,5.402-1.739,8.549-1.739
			c3.104,0,5.936,0.581,8.491,1.739c2.555,1.161,4.738,2.713,6.549,4.659c1.806,1.946,3.199,4.196,4.183,6.752
			c0.984,2.556,1.476,5.248,1.476,8.077c0.037,0.041,0.037,0.08,0,0.118C236.752,107.914,236.249,110.618,235.25,113.193z
			 M233.569,105.084c0-2.555-0.445-4.961-1.33-7.223c-0.884-2.26-2.104-4.226-3.654-5.897c-1.555-1.67-3.413-2.997-5.575-3.98
			c-2.162-0.982-4.518-1.474-7.072-1.474c-2.56,0-4.905,0.482-7.046,1.445c-2.146,0.963-3.994,2.28-5.544,3.95
			c-1.555,1.671-2.764,3.626-3.628,5.867c-0.864,2.242-1.298,4.64-1.298,7.194v0.118c0,2.556,0.445,4.964,1.33,7.224
			c0.885,2.26,2.099,4.226,3.654,5.896c1.555,1.671,3.408,2.998,5.575,3.981c2.157,0.983,4.518,1.474,7.072,1.474
			c2.555,0,4.905-0.48,7.046-1.445c2.141-0.963,3.989-2.28,5.544-3.951c1.555-1.67,2.764-3.627,3.628-5.867
			c0.864-2.24,1.298-4.638,1.298-7.193V105.084z"/>
		<path class="st1" d="M279.474,122.155c-1.157,0.885-2.398,1.642-3.717,2.271c-1.314,0.629-2.738,1.12-4.272,1.474
			c-1.534,0.355-3.204,0.531-5.015,0.531c-2.947,0-5.68-0.551-8.192-1.652c-2.518-1.099-4.69-2.603-6.518-4.511
			c-1.827-1.905-3.251-4.157-4.277-6.752c-1.021-2.594-1.529-5.366-1.529-8.313v-0.119c0-2.908,0.518-5.66,1.56-8.254
			c1.042-2.595,2.476-4.866,4.303-6.811c1.827-1.946,3.999-3.48,6.518-4.6c2.513-1.12,5.266-1.681,8.255-1.681
			c1.848,0,3.518,0.158,5.01,0.473c1.497,0.314,2.879,0.765,4.157,1.356c1.277,0.589,2.481,1.288,3.601,2.093
			c1.12,0.806,2.209,1.701,3.272,2.683l-2.183,2.242c-0.906-0.865-1.848-1.671-2.832-2.418c-0.984-0.746-2.031-1.386-3.151-1.916
			c-1.12-0.531-2.34-0.953-3.659-1.268c-1.314-0.314-2.738-0.471-4.272-0.471c-2.476,0-4.78,0.471-6.9,1.415
			c-2.125,0.944-3.963,2.251-5.512,3.921c-1.555,1.671-2.775,3.626-3.659,5.867c-0.885,2.242-1.325,4.659-1.325,7.253v0.118
			c0,2.595,0.45,5.023,1.356,7.283c0.906,2.26,2.131,4.226,3.685,5.896c1.549,1.671,3.392,2.988,5.512,3.951
			c2.125,0.964,4.423,1.445,6.9,1.445c2.989,0,5.581-0.549,7.784-1.652c2.199-1.099,4.34-2.692,6.429-4.775l2.062,2.005
			C281.761,120.298,280.636,121.27,279.474,122.155z"/>
		<path class="st1" d="M291.886,125.722V84.447h29.363v2.771h-26.3v16.334h23.646v2.772h-23.646v16.627h26.593v2.772H291.886z"/>
		<path class="st1" d="M358.547,119.62c-0.691,1.395-1.633,2.585-2.832,3.568c-1.199,0.983-2.633,1.748-4.303,2.299
			c-1.67,0.55-3.507,0.826-5.512,0.826c-3.303,0-6.282-0.551-8.936-1.652c-2.654-1.101-5.219-2.751-7.695-4.954l2.005-2.299
			c1.141,1.061,2.272,1.975,3.392,2.742c1.12,0.767,2.272,1.396,3.45,1.887c1.178,0.492,2.418,0.865,3.717,1.12
			c1.293,0.257,2.712,0.384,4.246,0.384c1.529,0,2.947-0.207,4.246-0.619c1.293-0.414,2.397-0.983,3.298-1.71
			c0.906-0.726,1.612-1.592,2.125-2.594c0.508-1.002,0.764-2.094,0.764-3.273v-0.118c0-1.101-0.168-2.084-0.497-2.949
			c-0.335-0.864-0.947-1.651-1.832-2.358c-0.885-0.708-2.073-1.347-3.565-1.916c-1.497-0.569-3.418-1.091-5.779-1.563
			c-2.476-0.51-4.601-1.111-6.366-1.8c-1.77-0.687-3.214-1.493-4.335-2.417c-1.12-0.923-1.937-1.995-2.45-3.213
			c-0.513-1.218-0.764-2.615-0.764-4.187v-0.118c0-1.534,0.33-2.958,1-4.276c0.67-1.317,1.592-2.467,2.775-3.45
			c1.178-0.982,2.57-1.749,4.183-2.299c1.612-0.55,3.382-0.826,5.308-0.826c2.989,0,5.575,0.414,7.753,1.238
			c2.183,0.826,4.314,2.085,6.397,3.774l-1.942,2.417c-1.968-1.689-3.942-2.888-5.926-3.596c-1.989-0.708-4.12-1.061-6.397-1.061
			c-1.534,0-2.921,0.207-4.162,0.619c-1.235,0.412-2.298,0.972-3.183,1.68c-0.885,0.708-1.56,1.534-2.031,2.476
			c-0.471,0.943-0.712,1.946-0.712,3.007v0.118c0,1.102,0.168,2.094,0.503,2.979c0.335,0.885,0.942,1.691,1.827,2.417
			c0.885,0.728,2.115,1.386,3.685,1.975c1.576,0.59,3.581,1.141,6.015,1.652c4.795,0.983,8.255,2.369,10.381,4.157
			c2.12,1.79,3.183,4.197,3.183,7.224v0.118C359.578,116.7,359.232,118.225,358.547,119.62z"/>
		<path class="st1" d="M408.43,113.193c-1,2.574-2.408,4.845-4.214,6.811c-1.811,1.966-3.999,3.528-6.575,4.688
			c-2.576,1.158-5.418,1.739-8.522,1.739c-3.146,0-5.983-0.581-8.517-1.739c-2.539-1.159-4.711-2.713-6.517-4.659
			c-1.811-1.946-3.204-4.196-4.188-6.752c-0.984-2.555-1.471-5.248-1.471-8.077v-0.119c0-2.83,0.497-5.532,1.502-8.108
			c1-2.574,2.408-4.844,4.214-6.811c1.806-1.965,3.989-3.527,6.544-4.688c2.555-1.158,5.408-1.739,8.554-1.739
			c3.104,0,5.936,0.581,8.491,1.739c2.555,1.161,4.737,2.713,6.544,4.659c1.806,1.946,3.204,4.196,4.188,6.752
			c0.979,2.556,1.471,5.248,1.471,8.077c0.042,0.041,0.042,0.08,0,0.118C409.932,107.914,409.435,110.618,408.43,113.193z
			 M406.749,105.084c0-2.555-0.44-4.961-1.324-7.223c-0.885-2.26-2.105-4.226-3.659-5.897c-1.549-1.67-3.408-2.997-5.57-3.98
			c-2.162-0.982-4.523-1.474-7.077-1.474s-4.905,0.482-7.046,1.445c-2.141,0.963-3.989,2.28-5.544,3.95
			c-1.549,1.671-2.759,3.626-3.622,5.867c-0.869,2.242-1.298,4.64-1.298,7.194v0.118c0,2.556,0.44,4.964,1.324,7.224
			c0.885,2.26,2.105,4.226,3.659,5.896c1.549,1.671,3.408,2.998,5.57,3.981c2.162,0.983,4.518,1.474,7.077,1.474
			c2.555,0,4.9-0.48,7.046-1.445c2.141-0.963,3.989-2.28,5.544-3.951c1.549-1.67,2.759-3.627,3.622-5.867
			c0.864-2.24,1.298-4.638,1.298-7.193V105.084z"/>
		<path class="st1" d="M470.934,122.155c-1.162,0.885-2.403,1.642-3.717,2.271c-1.319,0.629-2.743,1.12-4.277,1.474
			c-1.534,0.355-3.204,0.531-5.01,0.531c-2.947,0-5.68-0.551-8.198-1.652c-2.513-1.099-4.685-2.603-6.512-4.511
			c-1.832-1.905-3.256-4.157-4.277-6.752c-1.021-2.594-1.534-5.366-1.534-8.313v-0.119c0-2.908,0.518-5.66,1.565-8.254
			c1.037-2.595,2.476-4.866,4.303-6.811c1.827-1.946,3.999-3.48,6.512-4.6c2.518-1.12,5.272-1.681,8.255-1.681
			c1.848,0,3.518,0.158,5.015,0.473c1.492,0.314,2.879,0.765,4.157,1.356c1.277,0.589,2.476,1.288,3.596,2.093
			c1.12,0.806,2.209,1.701,3.272,2.683l-2.183,2.242c-0.9-0.865-1.848-1.671-2.827-2.418c-0.984-0.746-2.036-1.386-3.157-1.916
			c-1.12-0.531-2.34-0.953-3.654-1.268c-1.319-0.314-2.743-0.471-4.277-0.471c-2.476,0-4.774,0.471-6.9,1.415
			c-2.12,0.944-3.958,2.251-5.512,3.921c-1.555,1.671-2.769,3.626-3.654,5.867c-0.885,2.242-1.33,4.659-1.33,7.253v0.118
			c0,2.595,0.455,5.023,1.356,7.283c0.906,2.26,2.136,4.226,3.685,5.896c1.555,1.671,3.392,2.988,5.518,3.951
			c2.12,0.964,4.418,1.445,6.894,1.445c2.989,0,5.586-0.549,7.784-1.652c2.204-1.099,4.345-2.692,6.428-4.775l2.062,2.005
			C473.222,120.298,472.091,121.27,470.934,122.155z"/>
		<path class="st1" d="M483.76,125.722V84.447h3.062v41.276H483.76z"/>
		<path class="st1" d="M500.087,125.722V84.447h29.368v2.771h-26.3v16.334h23.646v2.772h-23.646v16.627h26.593v2.772H500.087z"/>
		<path class="st1" d="M572.203,125.722l-29.069-36.677v36.677h-2.947V84.447h2.89l28.478,35.91v-35.91h2.947v41.276H572.203z"/>
		<path class="st1" d="M601.806,87.217v38.505h-3.068V87.217h-14.385v-2.771h31.839v2.771H601.806z"/>
		<path class="st1" d="M626.51,125.722V84.447h3.068v41.276H626.51z M626.981,80.613l5.188-7.842l3.602,1.768l-6.313,6.074H626.981z
			"/>
		<path class="st1" d="M645.91,87.217v17.042h23.347v2.77H645.91v18.693h-3.068V84.447h29.069v2.771H645.91z"/>
		<path class="st1" d="M682.528,125.722V84.447h3.062v41.276H682.528z"/>
		<path class="st1" d="M730.553,122.155c-1.162,0.885-2.403,1.642-3.717,2.271c-1.319,0.629-2.743,1.12-4.277,1.474
			c-1.534,0.355-3.204,0.531-5.01,0.531c-2.947,0-5.68-0.551-8.198-1.652c-2.513-1.099-4.685-2.603-6.512-4.511
			c-1.832-1.905-3.256-4.157-4.277-6.752c-1.021-2.594-1.534-5.366-1.534-8.313v-0.119c0-2.908,0.518-5.66,1.565-8.254
			c1.036-2.595,2.476-4.866,4.303-6.811c1.827-1.946,3.999-3.48,6.512-4.6c2.518-1.12,5.272-1.681,8.255-1.681
			c1.848,0,3.518,0.158,5.015,0.473c1.492,0.314,2.879,0.765,4.156,1.356c1.277,0.589,2.476,1.288,3.596,2.093
			c1.12,0.806,2.209,1.701,3.272,2.683l-2.183,2.242c-0.901-0.865-1.848-1.671-2.827-2.418c-0.984-0.746-2.036-1.386-3.157-1.916
			c-1.12-0.531-2.34-0.953-3.654-1.268c-1.319-0.314-2.743-0.471-4.277-0.471c-2.476,0-4.774,0.471-6.899,1.415
			c-2.12,0.944-3.958,2.251-5.513,3.921c-1.555,1.671-2.769,3.626-3.654,5.867c-0.884,2.242-1.33,4.659-1.33,7.253v0.118
			c0,2.595,0.456,5.023,1.356,7.283c0.906,2.26,2.136,4.226,3.685,5.896c1.555,1.671,3.392,2.988,5.518,3.951
			c2.12,0.964,4.418,1.445,6.894,1.445c2.989,0,5.585-0.549,7.784-1.652c2.204-1.099,4.345-2.692,6.428-4.775l2.062,2.005
			C732.841,120.298,731.71,121.27,730.553,122.155z"/>
		<path class="st1" d="M780.023,113.193c-1.005,2.574-2.408,4.845-4.219,6.811c-1.806,1.966-4,3.528-6.575,4.688
			c-2.575,1.158-5.413,1.739-8.517,1.739c-3.146,0-5.989-0.581-8.522-1.739c-2.534-1.159-4.706-2.713-6.517-4.659
			c-1.806-1.946-3.204-4.196-4.183-6.752c-0.984-2.555-1.476-5.248-1.476-8.077v-0.119c0-2.83,0.503-5.532,1.503-8.108
			c1.005-2.574,2.408-4.844,4.219-6.811c1.806-1.965,3.989-3.527,6.544-4.688c2.555-1.158,5.402-1.739,8.549-1.739
			c3.104,0,5.936,0.581,8.491,1.739c2.555,1.161,4.738,2.713,6.549,4.659c1.806,1.946,3.199,4.196,4.183,6.752
			c0.984,2.556,1.476,5.248,1.476,8.077c0.037,0.041,0.037,0.08,0,0.118C781.525,107.914,781.022,110.618,780.023,113.193z
			 M778.342,105.084c0-2.555-0.445-4.961-1.33-7.223c-0.884-2.26-2.104-4.226-3.654-5.897c-1.555-1.67-3.413-2.997-5.575-3.98
			c-2.162-0.982-4.518-1.474-7.072-1.474c-2.56,0-4.905,0.482-7.046,1.445c-2.146,0.963-3.994,2.28-5.544,3.95
			c-1.555,1.671-2.764,3.626-3.628,5.867c-0.864,2.242-1.298,4.64-1.298,7.194v0.118c0,2.556,0.445,4.964,1.33,7.224
			c0.885,2.26,2.099,4.226,3.654,5.896c1.555,1.671,3.408,2.998,5.575,3.981c2.157,0.983,4.518,1.474,7.072,1.474
			c2.555,0,4.905-0.48,7.046-1.445c2.141-0.963,3.989-2.28,5.544-3.951c1.555-1.67,2.764-3.627,3.628-5.867
			c0.864-2.24,1.298-4.638,1.298-7.193V105.084z"/>
		<path class="st1" d="M34.738,189.917c-0.707,1.394-1.707,2.572-2.999,3.532c-1.298,0.962-2.848,1.707-4.654,2.237
			c-1.806,0.53-3.827,0.794-6.062,0.794H3.13v-41.276h17.008c2,0,3.827,0.237,5.476,0.709c1.644,0.473,3.047,1.152,4.204,2.038
			c1.157,0.886,2.062,1.959,2.712,3.219c0.644,1.261,0.968,2.659,0.968,4.195v0.118c0,1.419-0.204,2.659-0.618,3.722
			c-0.414,1.064-0.953,1.989-1.618,2.777c-0.665,0.788-1.424,1.448-2.267,1.98c-0.843,0.531-1.675,0.974-2.497,1.328
			c1.214,0.314,2.392,0.735,3.534,1.266c1.136,0.53,2.125,1.196,2.968,2.001c0.848,0.805,1.523,1.746,2.031,2.826
			c0.513,1.08,0.764,2.324,0.764,3.738v0.118C35.795,186.965,35.445,188.525,34.738,189.917z M30.43,165.638
			c0-2.295-0.885-4.147-2.649-5.553c-1.769-1.406-4.329-2.11-7.669-2.11H6.197v16.334h13.621c1.534,0,2.947-0.188,4.246-0.564
			c1.298-0.376,2.419-0.92,3.361-1.633c0.942-0.713,1.681-1.605,2.209-2.672c0.534-1.069,0.796-2.297,0.796-3.683V165.638z
			 M32.733,185.129c0-2.564-1.073-4.547-3.214-5.947c-2.146-1.4-5.261-2.101-9.344-2.101H6.197v16.627h14.977
			c3.539,0,6.35-0.759,8.433-2.278c2.083-1.518,3.125-3.579,3.125-6.184V185.129z"/>
		<path class="st1" d="M46.705,196.481v-41.276h3.068v41.276H46.705z"/>
		<path class="st1" d="M63.038,196.481v-41.276h29.368v2.771h-26.3v16.334h23.646v2.772H66.105v16.627h26.593v2.772H63.038z"/>
		<path class="st1" d="M135.153,196.481l-29.069-36.677v36.677h-2.947v-41.276h2.89l28.478,35.91v-35.91h2.947v41.276H135.153z"/>
		<path class="st1" d="M168.526,196.481v-41.276h29.368v2.771h-26.3v16.334h23.646v2.772h-23.646v16.627h26.593v2.772H168.526z"/>
		<path class="st1" d="M235.187,190.378c-0.686,1.395-1.628,2.585-2.827,3.568c-1.199,0.983-2.633,1.748-4.309,2.299
			c-1.67,0.55-3.507,0.826-5.512,0.826c-3.303,0-6.277-0.551-8.931-1.652c-2.654-1.101-5.219-2.751-7.695-4.954l2.005-2.299
			c1.141,1.061,2.267,1.975,3.387,2.742c1.12,0.767,2.272,1.396,3.45,1.887c1.183,0.492,2.418,0.865,3.717,1.12
			c1.298,0.257,2.712,0.384,4.246,0.384s2.947-0.207,4.246-0.619c1.298-0.413,2.397-0.983,3.303-1.71
			c0.906-0.726,1.612-1.592,2.12-2.594c0.513-1.002,0.77-2.094,0.77-3.273v-0.118c0-1.101-0.168-2.084-0.503-2.949
			c-0.335-0.864-0.942-1.651-1.827-2.358c-0.885-0.708-2.073-1.347-3.57-1.916c-1.492-0.569-3.418-1.091-5.774-1.563
			c-2.481-0.51-4.601-1.111-6.371-1.8c-1.77-0.687-3.214-1.493-4.335-2.417c-1.12-0.923-1.937-1.995-2.445-3.213
			c-0.513-1.218-0.77-2.615-0.77-4.187v-0.118c0-1.534,0.335-2.958,1.005-4.276c0.665-1.317,1.591-2.467,2.769-3.45
			c1.178-0.982,2.575-1.749,4.188-2.299c1.612-0.55,3.382-0.826,5.308-0.826c2.984,0,5.57,0.413,7.753,1.238
			c2.183,0.826,4.314,2.085,6.397,3.774l-1.947,2.417c-1.963-1.689-3.942-2.888-5.926-3.596c-1.984-0.708-4.115-1.061-6.397-1.061
			c-1.534,0-2.916,0.207-4.156,0.619c-1.241,0.412-2.298,0.972-3.183,1.68c-0.885,0.708-1.565,1.534-2.036,2.476
			c-0.471,0.943-0.707,1.946-0.707,3.007v0.118c0,1.102,0.168,2.094,0.503,2.979c0.33,0.885,0.942,1.691,1.827,2.417
			c0.884,0.728,2.11,1.386,3.685,1.975c1.57,0.59,3.575,1.141,6.015,1.652c4.795,0.983,8.255,2.369,10.376,4.157
			c2.125,1.79,3.188,4.197,3.188,7.224v0.118C236.223,187.459,235.878,188.983,235.187,190.378z"/>
		<path class="st1" d="M260.576,157.976v38.505h-3.068v-38.505h-14.385v-2.771h31.839v2.771H260.576z"/>
		<path class="st1" d="M314.113,196.481l-5.245-11.557h-24.353l-5.25,11.557h-3.183l19.222-41.57h2.947l19.223,41.57H314.113z
			 M296.718,158.271l-10.909,23.88h21.761L296.718,158.271z"/>
		<path class="st1" d="M358.343,189.917c-0.707,1.394-1.712,2.572-3.005,3.532c-1.293,0.962-2.843,1.707-4.649,2.237
			c-1.806,0.53-3.827,0.794-6.062,0.794h-17.893v-41.276h17.008c2,0,3.822,0.237,5.47,0.709c1.649,0.473,3.052,1.152,4.209,2.038
			c1.157,0.886,2.057,1.959,2.707,3.219c0.649,1.261,0.974,2.659,0.974,4.195v0.118c0,1.419-0.21,2.659-0.618,3.722
			c-0.414,1.064-0.953,1.989-1.618,2.777c-0.67,0.788-1.424,1.448-2.267,1.98c-0.843,0.531-1.675,0.974-2.502,1.328
			c1.22,0.314,2.392,0.735,3.533,1.266c1.136,0.53,2.131,1.196,2.973,2.001c0.843,0.805,1.518,1.746,2.031,2.826
			c0.508,1.08,0.764,2.324,0.764,3.738v0.118C359.4,186.965,359.044,188.525,358.343,189.917z M354.034,165.638
			c0-2.295-0.884-4.147-2.654-5.553c-1.77-1.406-4.324-2.11-7.664-2.11h-13.919v16.334h13.621c1.534,0,2.953-0.188,4.246-0.564
			c1.298-0.376,2.418-0.92,3.361-1.633c0.947-0.713,1.68-1.605,2.214-2.672c0.529-1.069,0.796-2.297,0.796-3.683V165.638z
			 M356.332,185.129c0-2.564-1.068-4.547-3.214-5.947c-2.141-1.4-5.256-2.101-9.344-2.101h-13.977v16.627h14.977
			c3.539,0,6.35-0.759,8.433-2.278c2.084-1.518,3.125-3.579,3.125-6.184V185.129z"/>
		<path class="st1" d="M369.896,196.481v-41.276h3.062v38.504h24.238v2.772H369.896z"/>
		<path class="st1" d="M406.985,196.481v-41.276h29.362v2.771h-26.3v16.334h23.646v2.772h-23.646v16.627h26.593v2.772H406.985z"/>
		<path class="st1" d="M478.776,192.913c-1.162,0.885-2.403,1.642-3.717,2.271c-1.319,0.629-2.743,1.12-4.277,1.474
			c-1.534,0.355-3.204,0.531-5.01,0.531c-2.947,0-5.68-0.551-8.198-1.652c-2.513-1.099-4.685-2.603-6.512-4.511
			c-1.832-1.905-3.256-4.157-4.277-6.752c-1.021-2.594-1.534-5.366-1.534-8.313v-0.119c0-2.908,0.518-5.66,1.565-8.254
			c1.036-2.595,2.476-4.866,4.303-6.811c1.827-1.946,3.999-3.48,6.512-4.6c2.518-1.12,5.272-1.681,8.255-1.681
			c1.848,0,3.518,0.158,5.015,0.473c1.492,0.314,2.879,0.765,4.156,1.356c1.277,0.589,2.476,1.288,3.596,2.093
			c1.12,0.806,2.209,1.701,3.272,2.683l-2.183,2.242c-0.901-0.865-1.848-1.671-2.827-2.418c-0.984-0.746-2.036-1.386-3.157-1.916
			c-1.12-0.531-2.34-0.953-3.654-1.268c-1.319-0.314-2.743-0.471-4.277-0.471c-2.476,0-4.774,0.471-6.9,1.415
			c-2.12,0.944-3.958,2.251-5.513,3.921c-1.555,1.671-2.769,3.626-3.654,5.867c-0.884,2.242-1.33,4.659-1.33,7.253v0.118
			c0,2.595,0.456,5.023,1.356,7.283c0.906,2.26,2.136,4.226,3.685,5.896c1.555,1.671,3.392,2.988,5.518,3.951
			c2.12,0.965,4.418,1.445,6.894,1.445c2.989,0,5.585-0.549,7.784-1.652c2.204-1.099,4.345-2.692,6.428-4.775l2.062,2.005
			C481.064,191.056,479.933,192.028,478.776,192.913z"/>
		<path class="st1" d="M491.602,196.481v-41.276h3.062v41.276H491.602z"/>
		<path class="st1" d="M542.013,183.98c-1.063,2.517-2.565,4.698-4.513,6.545c-1.947,1.849-4.266,3.302-6.957,4.363
			c-2.691,1.061-5.654,1.593-8.873,1.593h-13.742v-41.276h13.742c3.219,0,6.182,0.521,8.873,1.563
			c2.691,1.042,5.01,2.486,6.957,4.333c1.948,1.849,3.45,4.02,4.513,6.516c1.063,2.497,1.592,5.2,1.592,8.108v0.118
			C543.605,178.753,543.076,181.464,542.013,183.98z M540.422,175.842c0-2.445-0.445-4.752-1.33-6.921
			c-0.885-2.168-2.131-4.062-3.743-5.68c-1.612-1.618-3.575-2.899-5.894-3.846c-2.324-0.946-4.916-1.42-7.784-1.42h-10.674v35.733
			h10.674c2.869,0,5.46-0.463,7.784-1.39c2.319-0.927,4.282-2.188,5.894-3.786c1.612-1.597,2.858-3.471,3.743-5.619
			c0.885-2.15,1.33-4.467,1.33-6.952V175.842z"/>
		<path class="st1" d="M592.755,183.951c-1.005,2.574-2.408,4.845-4.219,6.811c-1.806,1.966-4,3.528-6.575,4.688
			c-2.576,1.158-5.413,1.739-8.517,1.739c-3.146,0-5.989-0.581-8.522-1.739c-2.534-1.159-4.706-2.713-6.518-4.659
			c-1.806-1.946-3.204-4.196-4.183-6.752c-0.984-2.555-1.476-5.248-1.476-8.077v-0.119c0-2.83,0.503-5.532,1.503-8.108
			c1.005-2.574,2.408-4.844,4.219-6.811c1.806-1.965,3.989-3.527,6.544-4.688c2.555-1.158,5.402-1.739,8.548-1.739
			c3.104,0,5.937,0.581,8.491,1.739c2.555,1.161,4.738,2.713,6.549,4.659c1.806,1.946,3.198,4.196,4.182,6.752
			c0.984,2.556,1.476,5.248,1.476,8.077c0.037,0.041,0.037,0.08,0,0.118C594.258,178.673,593.755,181.377,592.755,183.951z
			 M591.075,175.842c0-2.555-0.445-4.961-1.33-7.223c-0.885-2.26-2.104-4.226-3.654-5.897c-1.555-1.67-3.413-2.997-5.575-3.98
			c-2.162-0.982-4.518-1.474-7.072-1.474c-2.56,0-4.905,0.482-7.046,1.445c-2.146,0.963-3.994,2.28-5.544,3.95
			c-1.555,1.671-2.764,3.626-3.628,5.867c-0.864,2.242-1.298,4.64-1.298,7.194v0.118c0,2.556,0.445,4.964,1.33,7.224
			c0.885,2.26,2.099,4.226,3.654,5.896c1.555,1.671,3.408,2.998,5.575,3.981c2.157,0.983,4.518,1.474,7.072,1.474
			c2.555,0,4.905-0.48,7.046-1.445c2.141-0.963,3.989-2.28,5.544-3.951c1.555-1.67,2.764-3.627,3.628-5.867s1.298-4.638,1.298-7.193
			V175.842z"/>
		<path class="st1" d="M601.089,155.121v-1.378h12.323v1.044l-6.669,7.647c0.937,0.056,1.832,0.211,2.675,0.463
			c0.843,0.251,1.581,0.607,2.22,1.065c0.638,0.458,1.146,1.025,1.518,1.697c0.377,0.674,0.565,1.459,0.565,2.357
			c0,0.86-0.173,1.646-0.523,2.357c-0.345,0.711-0.811,1.319-1.403,1.823c-0.592,0.507-1.277,0.894-2.057,1.165
			c-0.775,0.271-1.586,0.407-2.429,0.407c-1.612,0-3.02-0.328-4.219-0.984c-1.199-0.657-2.204-1.509-3.01-2.56l1.125-0.928
			c0.785,1.012,1.68,1.79,2.685,2.335c1,0.543,2.152,0.815,3.445,0.815c0.654,0,1.282-0.107,1.869-0.323
			c0.591-0.216,1.11-0.516,1.549-0.901c0.44-0.385,0.79-0.844,1.052-1.378c0.267-0.535,0.398-1.129,0.398-1.786
			c0-0.694-0.157-1.307-0.466-1.843c-0.309-0.534-0.738-0.984-1.283-1.35c-0.539-0.366-1.188-0.642-1.937-0.83
			c-0.754-0.187-1.565-0.281-2.45-0.281H605l-0.366-0.815l6.779-7.82H601.089z"/>
		<path class="st1" d="M618.725,174.753c0.246-0.338,0.351-0.779,0.309-1.322h-0.759v-2.391h1.859v2.082
			c0,0.881-0.178,1.574-0.534,2.081c-0.356,0.507-0.958,0.919-1.801,1.238l-0.335-0.704
			C618.06,175.42,618.485,175.091,618.725,174.753z"/>
		<path class="st1" d="M636.644,153.602v13.755h3.204v1.265h-3.204v4.81h-1.408v-4.81h-10.658l-0.508-1.097l11.25-13.923H636.644z
			 M635.236,155.712l-9.392,11.645h9.392V155.712z"/>
	</g>
	<g>
		<path class="st0" d="M0,295.206v-30.019h6.601v24.058h14.967v5.961H0z"/>
		<path class="st0" d="M39.322,295.206v-2.488c-0.798,0.887-1.756,1.595-2.871,2.123c-1.115,0.529-2.476,0.794-4.075,0.794
			c-1.086,0-2.107-0.15-3.065-0.45c-0.958-0.301-1.796-0.751-2.51-1.352c-0.715-0.599-1.28-1.336-1.693-2.208
			s-0.623-1.879-0.623-3.023v-0.086c0-1.258,0.23-2.344,0.686-3.259c0.458-0.915,1.094-1.672,1.91-2.273
			c0.814-0.601,1.785-1.051,2.916-1.351c1.128-0.3,2.379-0.45,3.753-0.45c1.17,0,2.194,0.085,3.062,0.257
			c0.874,0.173,1.722,0.402,2.555,0.687v-0.386c0-1.373-0.416-2.416-1.246-3.13c-0.827-0.715-2.057-1.072-3.685-1.072
			c-1.262,0-2.366,0.107-3.324,0.321c-0.958,0.215-1.968,0.522-3.026,0.923l-1.628-4.974c1.257-0.543,2.573-0.987,3.947-1.33
			c1.371-0.343,3.028-0.514,4.973-0.514c3.573,0,6.175,0.872,7.805,2.616c1.628,1.743,2.445,4.173,2.445,7.289v13.337H39.322z
			 M39.45,285.942c-0.571-0.257-1.207-0.465-1.906-0.622c-0.701-0.157-1.453-0.236-2.254-0.236c-1.4,0-2.502,0.272-3.3,0.814
			c-0.801,0.544-1.202,1.33-1.202,2.36v0.085c0,0.886,0.327,1.573,0.987,2.059c0.654,0.487,1.513,0.729,2.57,0.729
			c1.544,0,2.782-0.371,3.711-1.115c0.927-0.743,1.393-1.716,1.393-2.916V285.942z"/>
		<path class="st0" d="M87.373,288.837c-0.586,1.472-1.359,2.717-2.317,3.731c-0.958,1.014-2.065,1.78-3.324,2.294
			c-1.257,0.514-2.57,0.772-3.945,0.772c-1.746,0-3.18-0.34-4.311-1.022c-1.128-0.681-2.078-1.475-2.85-2.382v9.836h-6.52v-29.848
			h6.52v3.273c0.798-1.077,1.767-1.963,2.895-2.659c1.128-0.695,2.552-1.042,4.266-1.042c1.343,0,2.646,0.257,3.902,0.771
			c1.257,0.516,2.371,1.28,3.345,2.296c0.971,1.014,1.751,2.259,2.337,3.73c0.583,1.474,0.879,3.167,0.879,5.082v0.086
			C88.252,285.671,87.956,287.365,87.373,288.837z M81.732,283.669c0-0.95-0.149-1.82-0.45-2.611
			c-0.298-0.792-0.707-1.468-1.22-2.03c-0.516-0.562-1.11-0.992-1.78-1.294c-0.673-0.302-1.395-0.454-2.167-0.454
			c-0.772,0-1.492,0.152-2.167,0.454c-0.67,0.302-1.257,0.733-1.756,1.294c-0.5,0.561-0.9,1.238-1.201,2.03
			c-0.299,0.791-0.45,1.661-0.45,2.611v0.086c0,0.95,0.152,1.822,0.45,2.612c0.301,0.792,0.701,1.468,1.201,2.03
			c0.5,0.562,1.086,0.992,1.756,1.294c0.675,0.302,1.395,0.453,2.167,0.453c0.772,0,1.495-0.151,2.167-0.453
			c0.67-0.302,1.264-0.733,1.78-1.294c0.513-0.562,0.921-1.23,1.22-2.008c0.301-0.777,0.45-1.656,0.45-2.634V283.669z"/>
		<path class="st0" d="M114.477,285.17c-0.016,0.229-0.037,0.501-0.066,0.815H98.416c0.314,1.487,0.963,2.609,1.95,3.366
			c0.987,0.758,2.209,1.137,3.667,1.137c1.086,0,2.057-0.186,2.916-0.557c0.858-0.372,1.743-0.972,2.659-1.802l3.73,3.302
			c-1.086,1.344-2.4,2.395-3.945,3.153c-1.544,0.756-3.361,1.136-5.447,1.136c-1.715,0-3.309-0.285-4.782-0.857
			c-1.471-0.572-2.743-1.386-3.816-2.445c-1.073-1.057-1.908-2.309-2.507-3.752c-0.602-1.444-0.9-3.052-0.9-4.825v-0.085
			c0-1.629,0.277-3.174,0.835-4.632c0.557-1.458,1.337-2.73,2.337-3.816c1-1.086,2.193-1.945,3.581-2.573
			c1.387-0.63,2.924-0.944,4.612-0.944c1.913,0,3.57,0.343,4.973,1.029c1.4,0.686,2.565,1.608,3.494,2.767
			c0.929,1.157,1.615,2.487,2.06,3.988c0.443,1.501,0.665,3.066,0.665,4.696v0.086C114.497,284.67,114.489,284.943,114.477,285.17z
			 M106.606,278.374c-0.83-0.902-1.929-1.352-3.3-1.352c-1.374,0-2.481,0.444-3.324,1.33c-0.843,0.887-1.395,2.073-1.652,3.56h9.821
			C107.948,280.453,107.435,279.274,106.606,278.374z"/>
		<path class="st0" d="M141.661,295.571c-0.529,1.529-1.33,2.78-2.4,3.752c-1.07,0.971-2.411,1.686-4.01,2.144
			c-1.602,0.457-3.473,0.686-5.617,0.686c-1.887,0-3.688-0.207-5.405-0.622c-1.714-0.415-3.3-1.008-4.759-1.78l2.23-4.888
			c1.199,0.657,2.408,1.171,3.622,1.544c1.215,0.37,2.597,0.556,4.138,0.556c2.23,0,3.882-0.529,4.955-1.586
			c1.07-1.057,1.607-2.616,1.607-4.675v-1.115c-0.974,1.173-2.031,2.087-3.172,2.746c-1.146,0.657-2.589,0.986-4.332,0.986
			c-1.343,0-2.63-0.236-3.861-0.707c-1.23-0.473-2.314-1.165-3.259-2.081c-0.945-0.915-1.694-2.036-2.251-3.366
			c-0.557-1.33-0.835-2.852-0.835-4.567v-0.085c0-1.716,0.283-3.238,0.856-4.567c0.573-1.33,1.33-2.451,2.275-3.366
			c0.942-0.915,2.028-1.608,3.256-2.081c1.23-0.471,2.502-0.707,3.819-0.707c1.772,0,3.23,0.329,4.374,0.986
			c1.141,0.658,2.157,1.474,3.044,2.445v-3.002h6.52v17.797C142.457,292.189,142.19,294.041,141.661,295.571z M136.023,282.512
			c0-0.772-0.144-1.487-0.429-2.145c-0.285-0.657-0.681-1.222-1.178-1.693c-0.503-0.473-1.094-0.836-1.78-1.094
			c-0.686-0.257-1.429-0.386-2.23-0.386c-0.801,0-1.539,0.13-2.209,0.386c-0.673,0.258-1.259,0.622-1.759,1.094
			c-0.5,0.471-0.895,1.036-1.178,1.693c-0.288,0.658-0.429,1.373-0.429,2.145v0.085c0,1.602,0.529,2.888,1.586,3.859
			c1.058,0.972,2.387,1.458,3.989,1.458c0.801,0,1.544-0.128,2.23-0.385c0.686-0.258,1.277-0.623,1.78-1.094
			c0.497-0.473,0.893-1.036,1.178-1.694c0.285-0.658,0.429-1.373,0.429-2.145V282.512z"/>
		<path class="st0" d="M148.417,269.689v-5.79h6.86v5.79H148.417z M148.587,295.206v-22.986h6.518v22.986H148.587z"/>
		<path class="st0" d="M161.538,295.206V263.9h6.517v31.306H161.538z"/>
		<path class="st0" d="M187.655,295.206v-2.488c-0.801,0.887-1.759,1.595-2.874,2.123c-1.115,0.529-2.471,0.794-4.073,0.794
			c-1.089,0-2.11-0.15-3.068-0.45c-0.958-0.301-1.793-0.751-2.508-1.352c-0.715-0.599-1.28-1.336-1.693-2.208
			c-0.416-0.872-0.62-1.879-0.62-3.023v-0.086c0-1.258,0.225-2.344,0.686-3.259c0.455-0.915,1.094-1.672,1.905-2.273
			c0.817-0.601,1.788-1.051,2.916-1.351c1.131-0.3,2.382-0.45,3.753-0.45c1.173,0,2.194,0.085,3.068,0.257
			c0.871,0.173,1.722,0.402,2.549,0.687v-0.386c0-1.373-0.414-2.416-1.241-3.13c-0.832-0.715-2.06-1.072-3.69-1.072
			c-1.257,0-2.366,0.107-3.324,0.321c-0.958,0.215-1.963,0.522-3.02,0.923l-1.631-4.974c1.259-0.543,2.573-0.987,3.945-1.33
			c1.371-0.343,3.031-0.514,4.976-0.514c3.573,0,6.175,0.872,7.803,2.616c1.633,1.743,2.445,4.173,2.445,7.289v13.337H187.655z
			 M187.786,285.942c-0.576-0.257-1.209-0.465-1.911-0.622c-0.701-0.157-1.45-0.236-2.251-0.236c-1.4,0-2.502,0.272-3.303,0.814
			c-0.801,0.544-1.199,1.33-1.199,2.36v0.085c0,0.886,0.327,1.573,0.984,2.059c0.66,0.487,1.518,0.729,2.575,0.729
			c1.544,0,2.78-0.371,3.709-1.115c0.929-0.743,1.395-1.716,1.395-2.916V285.942z"/>
		<path class="st0" d="M216.002,294.541c-1.429,0.787-3.288,1.179-5.575,1.179c-1.717,0-3.309-0.314-4.782-0.943
			c-1.474-0.628-2.738-1.479-3.795-2.551c-1.06-1.073-1.887-2.331-2.489-3.774c-0.597-1.443-0.901-2.98-0.901-4.611v-0.085
			c0-1.629,0.304-3.174,0.901-4.632c0.602-1.458,1.429-2.73,2.489-3.816c1.057-1.086,2.322-1.945,3.795-2.573
			c1.474-0.63,3.094-0.944,4.866-0.944c2.173,0,3.973,0.343,5.405,1.029c1.429,0.686,2.688,1.629,3.772,2.831l-3.986,4.289
			c-0.743-0.772-1.51-1.387-2.296-1.844c-0.785-0.458-1.764-0.687-2.937-0.687c-0.83,0-1.581,0.165-2.251,0.493
			c-0.673,0.33-1.259,0.78-1.759,1.351c-0.5,0.573-0.885,1.237-1.157,1.994c-0.272,0.758-0.408,1.565-0.408,2.423v0.086
			c0,0.886,0.136,1.716,0.408,2.486c0.272,0.772,0.665,1.445,1.178,2.017c0.516,0.572,1.131,1.022,1.845,1.351
			c0.715,0.328,1.515,0.493,2.4,0.493c1.089,0,2.036-0.221,2.853-0.665c0.817-0.444,1.623-1.036,2.424-1.78l3.816,3.86
			C218.703,292.746,217.431,293.755,216.002,294.541z"/>
		<path class="st0" d="M224.192,269.689v-5.79h6.86v5.79H224.192z M224.362,295.206v-22.986h6.518v22.986H224.362z"/>
		<path class="st0" d="M259.828,288.408c-0.628,1.445-1.502,2.709-2.617,3.795c-1.115,1.088-2.429,1.945-3.945,2.573
			c-1.515,0.63-3.175,0.943-4.976,0.943c-1.772,0-3.413-0.307-4.931-0.921c-1.513-0.615-2.822-1.458-3.921-2.531
			c-1.105-1.072-1.968-2.33-2.596-3.773c-0.628-1.443-0.942-2.994-0.942-4.654v-0.085c0-1.658,0.314-3.209,0.942-4.653
			c0.628-1.443,1.502-2.709,2.617-3.795c1.115-1.086,2.429-1.945,3.945-2.573c1.515-0.63,3.172-0.944,4.976-0.944
			c1.77,0,3.413,0.308,4.931,0.921c1.513,0.615,2.822,1.458,3.921,2.53c1.102,1.073,1.968,2.331,2.596,3.774
			c0.628,1.444,0.942,2.996,0.942,4.653v0.086C260.77,285.413,260.456,286.964,259.828,288.408z M254.337,283.755
			c0-0.857-0.141-1.665-0.427-2.422c-0.285-0.758-0.701-1.43-1.243-2.017c-0.545-0.585-1.188-1.05-1.932-1.394
			c-0.743-0.343-1.557-0.514-2.445-0.514c-0.942,0-1.78,0.165-2.507,0.493c-0.728,0.33-1.351,0.78-1.864,1.351
			c-0.516,0.573-0.911,1.237-1.18,1.994c-0.272,0.758-0.408,1.565-0.408,2.423v0.086c0,0.857,0.144,1.666,0.429,2.422
			c0.285,0.758,0.699,1.43,1.243,2.015c0.545,0.586,1.181,1.051,1.911,1.394c0.728,0.344,1.55,0.515,2.466,0.515
			c0.942,0,1.78-0.165,2.508-0.493c0.728-0.329,1.351-0.779,1.864-1.351c0.516-0.572,0.908-1.237,1.18-1.995
			c0.272-0.758,0.406-1.565,0.406-2.424V283.755z M245.846,269.689l4.848-7.59l5.617,2.445l-5.486,5.146H245.846z"/>
		<path class="st0" d="M280.027,295.206v-12.792c0-1.539-0.343-2.701-1.029-3.486c-0.686-0.784-1.66-1.177-2.916-1.177
			c-1.262,0-2.251,0.393-2.981,1.177c-0.73,0.785-1.094,1.947-1.094,3.486v12.792h-6.52v-22.986h6.52v3.286
			c0.371-0.49,0.777-0.957,1.222-1.403c0.443-0.446,0.937-0.843,1.479-1.188c0.542-0.345,1.144-0.619,1.803-0.821
			c0.655-0.202,1.398-0.302,2.23-0.302c2.486,0,4.408,0.758,5.766,2.272c1.359,1.517,2.036,3.603,2.036,6.262v14.88H280.027z"/>
		<path class="st0" d="M305.199,269.689v-5.79h6.86v5.79H305.199z M305.371,295.206v-22.986h6.518v22.986H305.371z"/>
		<path class="st0" d="M346.58,295.206v-12.792c0-1.539-0.33-2.701-0.984-3.486c-0.66-0.784-1.602-1.177-2.832-1.177
			c-1.23,0-2.194,0.393-2.895,1.177c-0.701,0.785-1.05,1.947-1.05,3.486v12.792h-6.52v-12.792c0-1.539-0.327-2.701-0.984-3.486
			c-0.66-0.784-1.602-1.177-2.832-1.177c-1.23,0-2.194,0.393-2.895,1.177c-0.701,0.785-1.05,1.947-1.05,3.486v12.792h-6.52v-22.986
			h6.52v3.286c0.372-0.49,0.777-0.957,1.222-1.403c0.443-0.446,0.937-0.843,1.479-1.188c0.542-0.345,1.149-0.619,1.824-0.821
			c0.67-0.202,1.419-0.302,2.251-0.302c1.513,0,2.822,0.317,3.924,0.95c1.099,0.633,1.95,1.54,2.552,2.721
			c1-1.209,2.115-2.124,3.345-2.743c1.228-0.619,2.628-0.928,4.201-0.928c2.432,0,4.332,0.715,5.703,2.144
			c1.371,1.43,2.057,3.531,2.057,6.304v14.967H346.58z"/>
		<path class="st0" d="M382.026,288.837c-0.586,1.472-1.358,2.717-2.316,3.731c-0.958,1.014-2.065,1.78-3.322,2.294
			c-1.262,0.514-2.575,0.772-3.947,0.772c-1.743,0-3.18-0.34-4.309-1.022c-1.131-0.681-2.081-1.475-2.853-2.382v9.836h-6.518
			v-29.848h6.518v3.273c0.801-1.077,1.764-1.963,2.895-2.659c1.131-0.695,2.549-1.042,4.266-1.042c1.345,0,2.644,0.257,3.902,0.771
			c1.259,0.516,2.374,1.28,3.345,2.296c0.971,1.014,1.751,2.259,2.337,3.73c0.586,1.474,0.88,3.167,0.88,5.082v0.086
			C382.905,285.671,382.612,287.365,382.026,288.837z M376.388,283.669c0-0.95-0.152-1.82-0.45-2.611
			c-0.303-0.792-0.709-1.468-1.225-2.03c-0.513-0.562-1.107-0.992-1.78-1.294c-0.67-0.302-1.393-0.454-2.165-0.454
			c-0.772,0-1.495,0.152-2.165,0.454c-0.673,0.302-1.259,0.733-1.759,1.294c-0.5,0.561-0.901,1.238-1.202,2.03
			c-0.301,0.791-0.45,1.661-0.45,2.611v0.086c0,0.95,0.149,1.822,0.45,2.612c0.301,0.792,0.701,1.468,1.202,2.03
			c0.5,0.562,1.086,0.992,1.759,1.294c0.67,0.302,1.392,0.453,2.165,0.453c0.772,0,1.495-0.151,2.165-0.453
			c0.672-0.302,1.267-0.733,1.78-1.294c0.516-0.562,0.921-1.23,1.225-2.008c0.299-0.777,0.45-1.656,0.45-2.634V283.669z"/>
		<path class="st0" d="M388.009,295.206V263.9h6.517v31.306H388.009z"/>
		<path class="st0" d="M400.788,269.689v-5.79h6.86v5.79H400.788z M400.961,295.206v-22.986h6.517v22.986H400.961z"/>
		<path class="st0" d="M430.035,294.541c-1.429,0.787-3.287,1.179-5.575,1.179c-1.717,0-3.309-0.314-4.782-0.943
			c-1.474-0.628-2.738-1.479-3.795-2.551c-1.06-1.073-1.887-2.331-2.489-3.774c-0.597-1.443-0.901-2.98-0.901-4.611v-0.085
			c0-1.629,0.304-3.174,0.901-4.632c0.602-1.458,1.429-2.73,2.489-3.816c1.057-1.086,2.322-1.945,3.795-2.573
			c1.474-0.63,3.094-0.944,4.866-0.944c2.173,0,3.973,0.343,5.405,1.029c1.429,0.686,2.688,1.629,3.772,2.831l-3.986,4.289
			c-0.743-0.772-1.51-1.387-2.295-1.844c-0.785-0.458-1.764-0.687-2.937-0.687c-0.83,0-1.581,0.165-2.251,0.493
			c-0.672,0.33-1.259,0.78-1.759,1.351c-0.5,0.573-0.885,1.237-1.157,1.994c-0.272,0.758-0.408,1.565-0.408,2.423v0.086
			c0,0.886,0.136,1.716,0.408,2.486c0.272,0.772,0.665,1.445,1.178,2.017c0.516,0.572,1.131,1.022,1.845,1.351
			c0.715,0.328,1.515,0.493,2.4,0.493c1.089,0,2.036-0.221,2.853-0.665c0.817-0.444,1.623-1.036,2.424-1.78l3.816,3.86
			C432.736,292.746,431.464,293.755,430.035,294.541z"/>
		<path class="st0" d="M451.561,295.206v-2.488c-0.801,0.887-1.759,1.595-2.874,2.123c-1.115,0.529-2.471,0.794-4.073,0.794
			c-1.089,0-2.11-0.15-3.068-0.45c-0.958-0.301-1.793-0.751-2.508-1.352c-0.715-0.599-1.28-1.336-1.693-2.208
			c-0.416-0.872-0.62-1.879-0.62-3.023v-0.086c0-1.258,0.225-2.344,0.686-3.259c0.455-0.915,1.094-1.672,1.905-2.273
			c0.817-0.601,1.788-1.051,2.916-1.351c1.131-0.3,2.382-0.45,3.753-0.45c1.173,0,2.194,0.085,3.068,0.257
			c0.872,0.173,1.722,0.402,2.549,0.687v-0.386c0-1.373-0.414-2.416-1.241-3.13c-0.832-0.715-2.06-1.072-3.69-1.072
			c-1.257,0-2.366,0.107-3.324,0.321c-0.958,0.215-1.963,0.522-3.02,0.923l-1.631-4.974c1.259-0.543,2.573-0.987,3.945-1.33
			c1.371-0.343,3.031-0.514,4.976-0.514c3.573,0,6.175,0.872,7.803,2.616c1.633,1.743,2.445,4.173,2.445,7.289v13.337H451.561z
			 M451.692,285.942c-0.576-0.257-1.209-0.465-1.911-0.622c-0.701-0.157-1.45-0.236-2.251-0.236c-1.4,0-2.502,0.272-3.303,0.814
			c-0.801,0.544-1.199,1.33-1.199,2.36v0.085c0,0.886,0.327,1.573,0.984,2.059c0.66,0.487,1.518,0.729,2.575,0.729
			c1.544,0,2.78-0.371,3.709-1.115c0.929-0.743,1.395-1.716,1.395-2.916V285.942z"/>
		<path class="st0" d="M476.646,295.206V263.9h6.517v31.306H476.646z"/>
		<path class="st0" d="M502.763,295.206v-2.488c-0.801,0.887-1.759,1.595-2.874,2.123c-1.115,0.529-2.471,0.794-4.073,0.794
			c-1.089,0-2.11-0.15-3.068-0.45c-0.958-0.301-1.796-0.751-2.508-1.352c-0.717-0.599-1.277-1.336-1.696-2.208
			c-0.414-0.872-0.618-1.879-0.618-3.023v-0.086c0-1.258,0.225-2.344,0.686-3.259c0.455-0.915,1.094-1.672,1.905-2.273
			c0.817-0.601,1.79-1.051,2.916-1.351c1.131-0.3,2.382-0.45,3.753-0.45c1.173,0,2.194,0.085,3.068,0.257
			c0.869,0.173,1.722,0.402,2.549,0.687v-0.386c0-1.373-0.414-2.416-1.241-3.13c-0.832-0.715-2.057-1.072-3.69-1.072
			c-1.257,0-2.366,0.107-3.324,0.321c-0.958,0.215-1.963,0.522-3.021,0.923l-1.633-4.974c1.262-0.543,2.576-0.987,3.947-1.33
			c1.371-0.343,3.031-0.514,4.973-0.514c3.575,0,6.177,0.872,7.805,2.616c1.633,1.743,2.445,4.173,2.445,7.289v13.337H502.763z
			 M502.894,285.942c-0.576-0.257-1.209-0.465-1.911-0.622c-0.701-0.157-1.45-0.236-2.251-0.236c-1.403,0-2.502,0.272-3.303,0.814
			c-0.801,0.544-1.199,1.33-1.199,2.36v0.085c0,0.886,0.33,1.573,0.984,2.059c0.66,0.487,1.518,0.729,2.575,0.729
			c1.544,0,2.78-0.371,3.706-1.115c0.932-0.743,1.398-1.716,1.398-2.916V285.942z"/>
		<path class="st0" d="M541.915,295.206v-3.286c-0.372,0.489-0.78,0.958-1.22,1.404c-0.445,0.446-0.937,0.842-1.481,1.188
			c-0.544,0.345-1.141,0.619-1.801,0.82c-0.66,0.2-1.403,0.302-2.23,0.302c-2.486,0-4.413-0.758-5.769-2.273
			c-1.356-1.516-2.036-3.603-2.036-6.261v-14.881h6.517v12.791c0,1.54,0.346,2.703,1.031,3.486c0.686,0.784,1.659,1.177,2.916,1.177
			c1.256,0,2.251-0.393,2.979-1.177c0.728-0.784,1.094-1.946,1.094-3.486v-12.791h6.518v22.986H541.915z"/>
		<path class="st0" d="M568.801,295.206v-12.792c0-1.539-0.34-2.701-1.026-3.486c-0.686-0.784-1.66-1.177-2.916-1.177
			c-1.262,0-2.251,0.393-2.984,1.177c-0.728,0.785-1.094,1.947-1.094,3.486v12.792h-6.518v-22.986h6.518v3.286
			c0.372-0.49,0.78-0.957,1.225-1.403c0.445-0.446,0.937-0.843,1.482-1.188c0.539-0.345,1.141-0.619,1.801-0.821
			c0.654-0.202,1.398-0.302,2.23-0.302c2.487,0,4.408,0.758,5.764,2.272c1.361,1.517,2.042,3.603,2.042,6.262v14.88H568.801z"/>
		<path class="st0" d="M581.108,269.689v-5.79h6.863v5.79H581.108z M581.281,295.206v-22.986h6.518v22.986H581.281z"/>
		<path class="st0" d="M616.747,288.408c-0.628,1.445-1.502,2.709-2.617,3.795c-1.115,1.088-2.429,1.945-3.942,2.573
			c-1.518,0.63-3.178,0.943-4.978,0.943c-1.77,0-3.413-0.307-4.931-0.921c-1.513-0.615-2.821-1.458-3.921-2.531
			c-1.105-1.072-1.968-2.33-2.596-3.773c-0.628-1.443-0.942-2.994-0.942-4.654v-0.085c0-1.658,0.314-3.209,0.942-4.653
			c0.628-1.443,1.502-2.709,2.617-3.795c1.115-1.086,2.429-1.945,3.942-2.573c1.518-0.63,3.178-0.944,4.979-0.944
			c1.769,0,3.413,0.308,4.931,0.921c1.513,0.615,2.822,1.458,3.921,2.53c1.105,1.073,1.968,2.331,2.596,3.774
			c0.628,1.444,0.942,2.996,0.942,4.653v0.086C617.69,285.413,617.376,286.964,616.747,288.408z M611.256,283.755
			c0-0.857-0.141-1.665-0.429-2.422c-0.283-0.758-0.696-1.43-1.241-2.017c-0.545-0.585-1.188-1.05-1.932-1.394
			c-0.744-0.343-1.555-0.514-2.445-0.514c-0.942,0-1.78,0.165-2.508,0.493c-0.728,0.33-1.351,0.78-1.864,1.351
			c-0.518,0.573-0.911,1.237-1.183,1.994c-0.272,0.758-0.403,1.565-0.403,2.423v0.086c0,0.857,0.141,1.666,0.429,2.422
			c0.283,0.758,0.696,1.43,1.241,2.015c0.544,0.586,1.178,1.051,1.91,1.394c0.728,0.344,1.55,0.515,2.466,0.515
			c0.942,0,1.78-0.165,2.507-0.493c0.728-0.329,1.351-0.779,1.864-1.351c0.518-0.572,0.911-1.237,1.183-1.995
			c0.267-0.758,0.403-1.565,0.403-2.424V283.755z M602.765,269.689l4.847-7.59l5.617,2.445l-5.486,5.146H602.765z"/>
		<path class="st0" d="M636.944,295.206v-12.792c0-1.539-0.34-2.701-1.026-3.486c-0.686-0.784-1.659-1.177-2.916-1.177
			c-1.262,0-2.251,0.393-2.984,1.177c-0.728,0.785-1.094,1.947-1.094,3.486v12.792h-6.517v-22.986h6.517v3.286
			c0.372-0.49,0.78-0.957,1.225-1.403c0.445-0.446,0.937-0.843,1.482-1.188c0.539-0.345,1.141-0.619,1.801-0.821
			c0.654-0.202,1.397-0.302,2.23-0.302c2.487,0,4.408,0.758,5.764,2.272c1.361,1.517,2.042,3.603,2.042,6.262v14.88H636.944z"/>
		<path class="st0" d="M678.587,295.206v-3.273c-0.801,1.078-1.769,1.964-2.895,2.659c-1.13,0.695-2.555,1.043-4.266,1.043
			c-1.345,0-2.649-0.258-3.905-0.772c-1.256-0.514-2.371-1.28-3.345-2.294c-0.974-1.014-1.749-2.259-2.335-3.731
			c-0.586-1.472-0.88-3.166-0.88-5.082v-0.086c0-1.915,0.293-3.608,0.88-5.082c0.586-1.471,1.356-2.716,2.314-3.73
			c0.958-1.016,2.063-1.78,3.324-2.296c1.256-0.514,2.57-0.771,3.947-0.771c1.743,0,3.178,0.34,4.309,1.021
			c1.131,0.681,2.078,1.475,2.853,2.383V263.9h6.518v31.306H678.587z M678.671,283.669c0-0.95-0.152-1.82-0.45-2.611
			c-0.298-0.792-0.701-1.468-1.199-2.03c-0.503-0.562-1.089-0.992-1.759-1.294c-0.675-0.302-1.398-0.454-2.167-0.454
			c-0.77,0-1.492,0.152-2.167,0.454c-0.67,0.302-1.262,0.733-1.78,1.294c-0.513,0.561-0.921,1.23-1.219,2.008
			c-0.299,0.778-0.45,1.656-0.45,2.633v0.086c0,0.95,0.152,1.822,0.45,2.612c0.298,0.792,0.706,1.468,1.219,2.03
			c0.518,0.562,1.11,0.992,1.78,1.294c0.675,0.302,1.398,0.453,2.167,0.453c0.769,0,1.492-0.151,2.167-0.453
			c0.67-0.302,1.256-0.733,1.759-1.294c0.497-0.562,0.901-1.238,1.199-2.03c0.298-0.79,0.45-1.662,0.45-2.612V283.669z"/>
		<path class="st0" d="M712.357,285.17c-0.016,0.229-0.036,0.501-0.068,0.815h-15.993c0.314,1.487,0.963,2.609,1.953,3.366
			c0.984,0.758,2.204,1.137,3.664,1.137c1.084,0,2.057-0.186,2.916-0.557c0.858-0.372,1.743-0.972,2.659-1.802l3.732,3.302
			c-1.089,1.344-2.403,2.395-3.947,3.153c-1.544,0.756-3.361,1.136-5.444,1.136c-1.717,0-3.314-0.285-4.785-0.857
			c-1.471-0.572-2.743-1.386-3.816-2.445c-1.073-1.057-1.905-2.309-2.507-3.752c-0.602-1.444-0.901-3.052-0.901-4.825v-0.085
			c0-1.629,0.277-3.174,0.838-4.632c0.555-1.458,1.335-2.73,2.335-3.816c1-1.086,2.193-1.945,3.581-2.573
			c1.387-0.63,2.921-0.944,4.612-0.944c1.916,0,3.57,0.343,4.973,1.029c1.398,0.686,2.565,1.608,3.497,2.767
			c0.927,1.157,1.612,2.487,2.057,3.988c0.44,1.501,0.665,3.066,0.665,4.696v0.086C712.378,284.67,712.368,284.943,712.357,285.17z
			 M704.484,278.374c-0.827-0.902-1.926-1.352-3.298-1.352c-1.372,0-2.481,0.444-3.324,1.33c-0.843,0.887-1.392,2.073-1.654,3.56
			h9.821C705.829,280.453,705.316,279.274,704.484,278.374z"/>
		<path class="st0" d="M730.386,295.206V263.9h6.517v31.306H730.386z"/>
		<path class="st0" d="M756.503,295.206v-2.488c-0.801,0.887-1.759,1.595-2.874,2.123c-1.115,0.529-2.471,0.794-4.073,0.794
			c-1.089,0-2.11-0.15-3.068-0.45c-0.958-0.301-1.795-0.751-2.507-1.352c-0.717-0.599-1.277-1.336-1.696-2.208
			c-0.414-0.872-0.617-1.879-0.617-3.023v-0.086c0-1.258,0.225-2.344,0.686-3.259c0.456-0.915,1.094-1.672,1.906-2.273
			c0.817-0.601,1.79-1.051,2.916-1.351c1.13-0.3,2.382-0.45,3.753-0.45c1.173,0,2.194,0.085,3.068,0.257
			c0.869,0.173,1.722,0.402,2.549,0.687v-0.386c0-1.373-0.414-2.416-1.241-3.13c-0.833-0.715-2.057-1.072-3.691-1.072
			c-1.256,0-2.366,0.107-3.324,0.321c-0.958,0.215-1.963,0.522-3.021,0.923l-1.633-4.974c1.262-0.543,2.576-0.987,3.947-1.33
			c1.371-0.343,3.031-0.514,4.973-0.514c3.575,0,6.177,0.872,7.805,2.616c1.633,1.743,2.445,4.173,2.445,7.289v13.337H756.503z
			 M756.634,285.942c-0.576-0.257-1.209-0.465-1.911-0.622c-0.702-0.157-1.45-0.236-2.251-0.236c-1.403,0-2.502,0.272-3.303,0.814
			c-0.801,0.544-1.199,1.33-1.199,2.36v0.085c0,0.886,0.33,1.573,0.984,2.059c0.66,0.487,1.518,0.729,2.576,0.729
			c1.544,0,2.78-0.371,3.706-1.115c0.932-0.743,1.398-1.716,1.398-2.916V285.942z"/>
		<path class="st0" d="M784.614,291.538c-0.445,0.929-1.068,1.695-1.869,2.294c-0.801,0.601-1.732,1.051-2.806,1.352
			c-1.073,0.3-2.225,0.45-3.455,0.45c-1.628,0-3.293-0.279-4.994-0.836c-1.701-0.557-3.324-1.437-4.868-2.638l2.79-4.287
			c1.257,0.915,2.508,1.601,3.753,2.059c1.241,0.457,2.408,0.686,3.492,0.686c0.942,0,1.638-0.157,2.078-0.472
			c0.445-0.314,0.665-0.729,0.665-1.243v-0.085c0-0.344-0.126-0.644-0.382-0.902c-0.256-0.257-0.607-0.478-1.052-0.663
			c-0.445-0.186-0.953-0.365-1.523-0.537c-0.571-0.172-1.173-0.357-1.801-0.557c-0.801-0.229-1.607-0.508-2.424-0.836
			c-0.811-0.329-1.549-0.758-2.209-1.287c-0.654-0.529-1.193-1.179-1.607-1.951c-0.414-0.772-0.623-1.716-0.623-2.831v-0.085
			c0-1.173,0.225-2.209,0.665-3.11c0.445-0.9,1.047-1.665,1.801-2.294c0.759-0.628,1.644-1.101,2.659-1.415s2.11-0.472,3.282-0.472
			c1.46,0,2.937,0.235,4.439,0.708c1.503,0.471,2.879,1.122,4.136,1.951l-2.486,4.502c-1.141-0.657-2.256-1.179-3.345-1.565
			c-1.084-0.385-2.042-0.578-2.874-0.578c-0.795,0-1.397,0.151-1.801,0.45c-0.398,0.301-0.597,0.679-0.597,1.136v0.086
			c0,0.315,0.126,0.594,0.382,0.837c0.262,0.243,0.602,0.471,1.031,0.686c0.429,0.215,0.921,0.423,1.481,0.622
			c0.555,0.201,1.146,0.402,1.78,0.601c0.796,0.258,1.612,0.565,2.445,0.923c0.827,0.357,1.57,0.793,2.23,1.307
			c0.654,0.514,1.199,1.144,1.628,1.887c0.429,0.743,0.644,1.644,0.644,2.701v0.086
			C785.279,289.502,785.054,290.611,784.614,291.538z"/>
		<path class="st0" d="M819.243,294.541c-1.429,0.787-3.287,1.179-5.575,1.179c-1.717,0-3.308-0.314-4.785-0.943
			c-1.471-0.628-2.738-1.479-3.795-2.551c-1.058-1.073-1.884-2.331-2.487-3.774c-0.597-1.443-0.9-2.98-0.9-4.611v-0.085
			c0-1.629,0.304-3.174,0.9-4.632c0.602-1.458,1.429-2.73,2.487-3.816c1.057-1.086,2.324-1.945,3.795-2.573
			c1.476-0.63,3.099-0.944,4.868-0.944c2.172,0,3.973,0.343,5.402,1.029c1.429,0.686,2.691,1.629,3.774,2.831l-3.989,4.289
			c-0.743-0.772-1.508-1.387-2.293-1.844c-0.785-0.458-1.764-0.687-2.937-0.687c-0.827,0-1.581,0.165-2.251,0.493
			c-0.67,0.33-1.256,0.78-1.759,1.351c-0.497,0.573-0.885,1.237-1.157,1.994c-0.272,0.758-0.408,1.565-0.408,2.423v0.086
			c0,0.886,0.136,1.716,0.408,2.486c0.272,0.772,0.665,1.445,1.178,2.017c0.518,0.572,1.131,1.022,1.843,1.351
			c0.717,0.328,1.518,0.493,2.403,0.493c1.089,0,2.036-0.221,2.853-0.665c0.817-0.444,1.623-1.036,2.424-1.78l3.816,3.86
			C821.944,292.746,820.672,293.755,819.243,294.541z"/>
		<path class="st0" d="M840.769,295.206v-2.488c-0.801,0.887-1.759,1.595-2.874,2.123c-1.115,0.529-2.471,0.794-4.073,0.794
			c-1.089,0-2.11-0.15-3.068-0.45c-0.958-0.301-1.796-0.751-2.508-1.352c-0.717-0.599-1.277-1.336-1.696-2.208
			c-0.414-0.872-0.618-1.879-0.618-3.023v-0.086c0-1.258,0.225-2.344,0.686-3.259c0.455-0.915,1.094-1.672,1.905-2.273
			c0.817-0.601,1.79-1.051,2.916-1.351c1.131-0.3,2.382-0.45,3.753-0.45c1.173,0,2.194,0.085,3.068,0.257
			c0.869,0.173,1.722,0.402,2.549,0.687v-0.386c0-1.373-0.414-2.416-1.241-3.13c-0.832-0.715-2.057-1.072-3.69-1.072
			c-1.257,0-2.366,0.107-3.324,0.321c-0.958,0.215-1.963,0.522-3.02,0.923l-1.633-4.974c1.262-0.543,2.576-0.987,3.947-1.33
			c1.371-0.343,3.031-0.514,4.973-0.514c3.576,0,6.177,0.872,7.805,2.616c1.633,1.743,2.445,4.173,2.445,7.289v13.337H840.769z
			 M840.9,285.942c-0.576-0.257-1.209-0.465-1.911-0.622c-0.701-0.157-1.45-0.236-2.251-0.236c-1.403,0-2.502,0.272-3.303,0.814
			c-0.801,0.544-1.199,1.33-1.199,2.36v0.085c0,0.886,0.33,1.573,0.984,2.059c0.66,0.487,1.518,0.729,2.575,0.729
			c1.544,0,2.78-0.371,3.706-1.115c0.932-0.743,1.398-1.716,1.398-2.916V285.942z"/>
		<path class="st0" d="M869.289,295.206v-3.273c-0.801,1.078-1.77,1.964-2.895,2.659c-1.13,0.695-2.555,1.043-4.266,1.043
			c-1.345,0-2.649-0.258-3.905-0.772c-1.256-0.514-2.371-1.28-3.345-2.294c-0.974-1.014-1.749-2.259-2.335-3.731
			c-0.586-1.472-0.88-3.166-0.88-5.082v-0.086c0-1.915,0.293-3.608,0.88-5.082c0.586-1.471,1.356-2.716,2.314-3.73
			c0.958-1.016,2.063-1.78,3.324-2.296c1.256-0.514,2.57-0.771,3.947-0.771c1.743,0,3.178,0.34,4.309,1.021
			c1.13,0.681,2.078,1.475,2.853,2.383V263.9h6.517v31.306H869.289z M869.372,283.669c0-0.95-0.152-1.82-0.45-2.611
			c-0.298-0.792-0.701-1.468-1.199-2.03c-0.503-0.562-1.089-0.992-1.759-1.294c-0.675-0.302-1.398-0.454-2.167-0.454
			c-0.769,0-1.492,0.152-2.167,0.454c-0.67,0.302-1.262,0.733-1.78,1.294c-0.513,0.561-0.921,1.23-1.22,2.008
			c-0.298,0.778-0.45,1.656-0.45,2.633v0.086c0,0.95,0.152,1.822,0.45,2.612c0.299,0.792,0.707,1.468,1.22,2.03
			c0.518,0.562,1.11,0.992,1.78,1.294c0.675,0.302,1.398,0.453,2.167,0.453c0.77,0,1.492-0.151,2.167-0.453
			c0.67-0.302,1.256-0.733,1.759-1.294c0.497-0.562,0.901-1.238,1.199-2.03c0.298-0.79,0.45-1.662,0.45-2.612V283.669z"/>
		<path class="st0" d="M903.059,285.17c-0.016,0.229-0.037,0.501-0.068,0.815h-15.993c0.314,1.487,0.963,2.609,1.953,3.366
			c0.984,0.758,2.204,1.137,3.664,1.137c1.084,0,2.057-0.186,2.916-0.557c0.858-0.372,1.743-0.972,2.659-1.802l3.732,3.302
			c-1.089,1.344-2.403,2.395-3.947,3.153c-1.544,0.756-3.361,1.136-5.444,1.136c-1.717,0-3.314-0.285-4.785-0.857
			c-1.471-0.572-2.743-1.386-3.816-2.445c-1.073-1.057-1.905-2.309-2.508-3.752c-0.602-1.444-0.9-3.052-0.9-4.825v-0.085
			c0-1.629,0.277-3.174,0.838-4.632c0.555-1.458,1.335-2.73,2.335-3.816c1-1.086,2.194-1.945,3.581-2.573
			c1.387-0.63,2.921-0.944,4.612-0.944c1.916,0,3.57,0.343,4.973,1.029c1.398,0.686,2.565,1.608,3.497,2.767
			c0.927,1.157,1.612,2.487,2.057,3.988c0.44,1.501,0.665,3.066,0.665,4.696v0.086C903.08,284.67,903.069,284.943,903.059,285.17z
			 M895.185,278.374c-0.827-0.902-1.926-1.352-3.298-1.352c-1.372,0-2.481,0.444-3.324,1.33c-0.843,0.887-1.392,2.073-1.654,3.56
			h9.821C896.531,280.453,896.018,279.274,895.185,278.374z"/>
		<path class="st0" d="M922.459,295.206v-12.792c0-1.539-0.34-2.701-1.026-3.486c-0.686-0.784-1.66-1.177-2.916-1.177
			c-1.262,0-2.251,0.393-2.984,1.177c-0.728,0.785-1.094,1.947-1.094,3.486v12.792h-6.517v-22.986h6.517v3.286
			c0.372-0.49,0.78-0.957,1.225-1.403c0.445-0.446,0.937-0.843,1.482-1.188c0.539-0.345,1.141-0.619,1.801-0.821
			c0.655-0.202,1.398-0.302,2.23-0.302c2.487,0,4.408,0.758,5.764,2.272c1.361,1.517,2.042,3.603,2.042,6.262v14.88H922.459z"/>
		<path class="st0" d="M948.105,295.206v-2.488c-0.801,0.887-1.759,1.595-2.874,2.123c-1.115,0.529-2.471,0.794-4.073,0.794
			c-1.089,0-2.11-0.15-3.068-0.45c-0.958-0.301-1.796-0.751-2.507-1.352c-0.717-0.599-1.277-1.336-1.696-2.208
			c-0.414-0.872-0.618-1.879-0.618-3.023v-0.086c0-1.258,0.225-2.344,0.686-3.259c0.455-0.915,1.094-1.672,1.905-2.273
			c0.817-0.601,1.79-1.051,2.916-1.351c1.131-0.3,2.382-0.45,3.753-0.45c1.173,0,2.193,0.085,3.068,0.257
			c0.869,0.173,1.722,0.402,2.549,0.687v-0.386c0-1.373-0.414-2.416-1.241-3.13c-0.833-0.715-2.057-1.072-3.691-1.072
			c-1.256,0-2.366,0.107-3.324,0.321c-0.958,0.215-1.963,0.522-3.021,0.923l-1.633-4.974c1.262-0.543,2.575-0.987,3.947-1.33
			c1.371-0.343,3.031-0.514,4.973-0.514c3.576,0,6.177,0.872,7.805,2.616c1.633,1.743,2.445,4.173,2.445,7.289v13.337H948.105z
			 M948.236,285.942c-0.576-0.257-1.209-0.465-1.911-0.622c-0.701-0.157-1.45-0.236-2.251-0.236c-1.403,0-2.502,0.272-3.303,0.814
			c-0.801,0.544-1.199,1.33-1.199,2.36v0.085c0,0.886,0.33,1.573,0.984,2.059c0.66,0.487,1.518,0.729,2.576,0.729
			c1.544,0,2.78-0.371,3.706-1.115c0.932-0.743,1.398-1.716,1.398-2.916V285.942z"/>
		<path class="st0" d="M976.216,291.538c-0.445,0.929-1.068,1.695-1.869,2.294c-0.801,0.601-1.733,1.051-2.806,1.352
			c-1.073,0.3-2.225,0.45-3.455,0.45c-1.628,0-3.293-0.279-4.994-0.836c-1.701-0.557-3.324-1.437-4.869-2.638l2.79-4.287
			c1.256,0.915,2.507,1.601,3.753,2.059c1.24,0.457,2.408,0.686,3.492,0.686c0.942,0,1.638-0.157,2.078-0.472
			c0.445-0.314,0.665-0.729,0.665-1.243v-0.085c0-0.344-0.126-0.644-0.382-0.902c-0.257-0.257-0.607-0.478-1.052-0.663
			c-0.445-0.186-0.953-0.365-1.523-0.537c-0.571-0.172-1.173-0.357-1.801-0.557c-0.801-0.229-1.607-0.508-2.424-0.836
			c-0.811-0.329-1.549-0.758-2.209-1.287c-0.654-0.529-1.194-1.179-1.607-1.951c-0.414-0.772-0.623-1.716-0.623-2.831v-0.085
			c0-1.173,0.225-2.209,0.665-3.11c0.445-0.9,1.047-1.665,1.801-2.294c0.759-0.628,1.644-1.101,2.659-1.415
			c1.016-0.314,2.11-0.472,3.282-0.472c1.46,0,2.937,0.235,4.439,0.708c1.502,0.471,2.879,1.122,4.135,1.951l-2.486,4.502
			c-1.141-0.657-2.256-1.179-3.345-1.565c-1.084-0.385-2.042-0.578-2.874-0.578c-0.796,0-1.398,0.151-1.801,0.45
			c-0.398,0.301-0.597,0.679-0.597,1.136v0.086c0,0.315,0.126,0.594,0.382,0.837c0.262,0.243,0.602,0.471,1.031,0.686
			c0.429,0.215,0.921,0.423,1.481,0.622c0.555,0.201,1.147,0.402,1.78,0.601c0.796,0.258,1.612,0.565,2.445,0.923
			c0.827,0.357,1.57,0.793,2.23,1.307c0.655,0.514,1.199,1.144,1.628,1.887c0.429,0.743,0.644,1.644,0.644,2.701v0.086
			C976.881,289.502,976.656,290.611,976.216,291.538z"/>
		<path class="st0" d="M1011.018,295.206v-3.273c-0.801,1.078-1.769,1.964-2.895,2.659c-1.13,0.695-2.555,1.043-4.266,1.043
			c-1.345,0-2.649-0.258-3.905-0.772c-1.256-0.514-2.371-1.28-3.345-2.294c-0.974-1.014-1.749-2.259-2.335-3.731
			c-0.586-1.472-0.88-3.166-0.88-5.082v-0.086c0-1.915,0.293-3.608,0.88-5.082c0.586-1.471,1.356-2.716,2.314-3.73
			c0.958-1.016,2.063-1.78,3.324-2.296c1.256-0.514,2.57-0.771,3.947-0.771c1.743,0,3.178,0.34,4.309,1.021
			c1.13,0.681,2.078,1.475,2.853,2.383V263.9h6.518v31.306H1011.018z M1011.102,283.669c0-0.95-0.152-1.82-0.45-2.611
			c-0.298-0.792-0.701-1.468-1.199-2.03c-0.503-0.562-1.089-0.992-1.759-1.294c-0.675-0.302-1.398-0.454-2.167-0.454
			c-0.769,0-1.492,0.152-2.167,0.454c-0.67,0.302-1.262,0.733-1.78,1.294c-0.513,0.561-0.921,1.23-1.22,2.008
			c-0.298,0.778-0.45,1.656-0.45,2.633v0.086c0,0.95,0.152,1.822,0.45,2.612c0.299,0.792,0.707,1.468,1.22,2.03
			c0.518,0.562,1.11,0.992,1.78,1.294c0.675,0.302,1.398,0.453,2.167,0.453c0.77,0,1.492-0.151,2.167-0.453
			c0.67-0.302,1.256-0.733,1.759-1.294c0.497-0.562,0.901-1.238,1.199-2.03c0.298-0.79,0.45-1.662,0.45-2.612V283.669z"/>
		<path class="st0" d="M1044.788,285.17c-0.016,0.229-0.037,0.501-0.068,0.815h-15.993c0.314,1.487,0.963,2.609,1.953,3.366
			c0.984,0.758,2.204,1.137,3.665,1.137c1.084,0,2.057-0.186,2.916-0.557c0.859-0.372,1.743-0.972,2.659-1.802l3.733,3.302
			c-1.089,1.344-2.403,2.395-3.947,3.153c-1.544,0.756-3.361,1.136-5.444,1.136c-1.717,0-3.314-0.285-4.785-0.857
			c-1.471-0.572-2.743-1.386-3.816-2.445c-1.073-1.057-1.905-2.309-2.507-3.752c-0.602-1.444-0.901-3.052-0.901-4.825v-0.085
			c0-1.629,0.277-3.174,0.838-4.632c0.555-1.458,1.335-2.73,2.335-3.816c1-1.086,2.193-1.945,3.581-2.573
			c1.387-0.63,2.921-0.944,4.612-0.944c1.916,0,3.57,0.343,4.973,1.029c1.398,0.686,2.565,1.608,3.497,2.767
			c0.927,1.157,1.612,2.487,2.057,3.988c0.44,1.501,0.665,3.066,0.665,4.696v0.086
			C1044.809,284.67,1044.798,284.943,1044.788,285.17z M1036.915,278.374c-0.827-0.902-1.926-1.352-3.298-1.352
			c-1.372,0-2.481,0.444-3.324,1.33c-0.843,0.887-1.392,2.073-1.654,3.56h9.821C1038.26,280.453,1037.747,279.274,1036.915,278.374z
			"/>
		<path class="st0" d="M1049.955,295.206V263.9h6.517v31.306H1049.955z"/>
		<path class="st0" d="M36.807,340.23c-0.586,1.472-1.356,2.717-2.314,3.731c-0.958,1.014-2.068,1.78-3.324,2.294
			c-1.262,0.514-2.576,0.772-3.947,0.772c-1.743,0-3.183-0.34-4.308-1.022c-1.131-0.681-2.084-1.475-2.853-2.382v9.836h-6.517
			v-29.848h6.517v3.273c0.801-1.077,1.764-1.963,2.895-2.659c1.131-0.695,2.549-1.042,4.266-1.042c1.345,0,2.644,0.257,3.905,0.771
			c1.257,0.516,2.371,1.28,3.345,2.296c0.968,1.014,1.748,2.259,2.335,3.73c0.586,1.474,0.879,3.167,0.879,5.082v0.086
			C37.686,337.064,37.393,338.757,36.807,340.23z M31.169,335.062c0-0.95-0.152-1.82-0.45-2.611
			c-0.304-0.792-0.707-1.468-1.225-2.03c-0.513-0.562-1.105-0.992-1.78-1.294c-0.67-0.302-1.392-0.454-2.162-0.454
			c-0.775,0-1.497,0.152-2.167,0.454c-0.675,0.302-1.262,0.733-1.759,1.294c-0.503,0.561-0.9,1.238-1.199,2.03
			c-0.303,0.791-0.45,1.661-0.45,2.611v0.086c0,0.95,0.147,1.822,0.45,2.612c0.299,0.792,0.696,1.468,1.199,2.03
			c0.497,0.561,1.084,0.992,1.759,1.294c0.67,0.302,1.392,0.453,2.167,0.453c0.77,0,1.492-0.151,2.162-0.453
			c0.675-0.302,1.267-0.733,1.78-1.294c0.518-0.562,0.921-1.23,1.225-2.008c0.298-0.777,0.45-1.656,0.45-2.634V335.062z"/>
		<path class="st0" d="M65.3,339.8c-0.628,1.445-1.497,2.709-2.612,3.795c-1.115,1.088-2.434,1.945-3.947,2.573
			c-1.513,0.63-3.172,0.943-4.973,0.943c-1.775,0-3.418-0.307-4.931-0.921c-1.518-0.615-2.827-1.458-3.926-2.531
			c-1.099-1.072-1.963-2.33-2.591-3.773c-0.633-1.443-0.947-2.994-0.947-4.654v-0.085c0-1.658,0.314-3.209,0.947-4.653
			c0.628-1.443,1.497-2.709,2.612-3.795c1.115-1.086,2.429-1.945,3.947-2.573c1.513-0.63,3.172-0.944,4.973-0.944
			c1.775,0,3.418,0.308,4.931,0.921c1.518,0.615,2.827,1.458,3.926,2.53c1.099,1.073,1.963,2.331,2.591,3.774
			c0.634,1.444,0.947,2.996,0.947,4.653v0.086C66.248,336.806,65.934,338.357,65.3,339.8z M59.814,335.148
			c0-0.857-0.147-1.665-0.429-2.422c-0.288-0.758-0.701-1.43-1.246-2.017c-0.539-0.585-1.183-1.05-1.927-1.394
			c-0.743-0.343-1.56-0.514-2.445-0.514c-0.942,0-1.78,0.165-2.507,0.493c-0.733,0.33-1.351,0.78-1.869,1.351
			c-0.513,0.573-0.906,1.237-1.178,1.994c-0.272,0.758-0.408,1.565-0.408,2.423v0.086c0,0.857,0.141,1.666,0.429,2.422
			c0.288,0.758,0.702,1.43,1.246,2.015c0.539,0.586,1.178,1.051,1.905,1.394c0.728,0.344,1.55,0.515,2.466,0.515
			c0.942,0,1.78-0.165,2.508-0.493c0.733-0.329,1.351-0.779,1.869-1.351c0.513-0.572,0.906-1.237,1.178-1.995
			c0.272-0.758,0.408-1.565,0.408-2.424V335.148z"/>
		<path class="st0" d="M71.263,346.598v-31.306h6.518v31.306H71.263z"/>
		<path class="st0" d="M84.214,346.598v-22.986h6.517v22.986H84.214z M84.685,321.082l4.847-7.59l5.617,2.445l-5.486,5.146H84.685z"
			/>
		<path class="st0" d="M125.428,346.598v-12.792c0-1.539-0.33-2.701-0.989-3.486c-0.655-0.784-1.602-1.177-2.827-1.177
			c-1.23,0-2.199,0.393-2.895,1.177c-0.701,0.785-1.052,1.947-1.052,3.486v12.792h-6.517v-12.792c0-1.539-0.33-2.701-0.989-3.486
			c-0.655-0.784-1.602-1.177-2.827-1.177c-1.23,0-2.199,0.393-2.895,1.177c-0.701,0.785-1.052,1.947-1.052,3.486v12.792h-6.517
			v-22.986h6.517v3.286c0.372-0.49,0.78-0.957,1.22-1.403c0.445-0.446,0.937-0.843,1.481-1.188c0.545-0.345,1.152-0.619,1.822-0.821
			c0.675-0.202,1.424-0.302,2.251-0.302c1.518,0,2.827,0.317,3.926,0.95c1.099,0.633,1.953,1.54,2.549,2.721
			c1-1.209,2.115-2.124,3.345-2.743c1.23-0.619,2.633-0.928,4.204-0.928c2.429,0,4.335,0.715,5.706,2.144
			c1.371,1.43,2.057,3.531,2.057,6.304v14.967H125.428z"/>
		<path class="st0" d="M159.026,336.563c-0.016,0.229-0.037,0.501-0.063,0.815h-15.998c0.314,1.487,0.968,2.609,1.953,3.366
			c0.984,0.758,2.209,1.137,3.664,1.137c1.089,0,2.062-0.186,2.921-0.557c0.853-0.372,1.743-0.972,2.654-1.802l3.733,3.302
			c-1.084,1.344-2.403,2.395-3.947,3.153c-1.539,0.756-3.356,1.136-5.444,1.136c-1.717,0-3.308-0.285-4.779-0.857
			c-1.476-0.572-2.748-1.386-3.816-2.445c-1.073-1.057-1.911-2.309-2.513-3.752c-0.597-1.444-0.9-3.052-0.9-4.825v-0.085
			c0-1.629,0.283-3.174,0.838-4.632c0.56-1.458,1.335-2.73,2.34-3.816c1-1.086,2.194-1.945,3.581-2.573
			c1.382-0.63,2.921-0.944,4.607-0.944c1.916,0,3.575,0.343,4.973,1.029c1.403,0.686,2.57,1.608,3.497,2.767
			c0.932,1.157,1.618,2.487,2.057,3.988c0.445,1.501,0.665,3.066,0.665,4.696v0.086
			C159.047,336.063,159.041,336.335,159.026,336.563z M151.157,329.767c-0.827-0.902-1.932-1.352-3.303-1.352
			c-1.371,0-2.481,0.444-3.324,1.33c-0.843,0.887-1.393,2.073-1.649,3.56h9.821C152.503,331.846,151.985,330.667,151.157,329.767z"
			/>
		<path class="st0" d="M177.4,330.002c-2.173,0-3.879,0.658-5.125,1.972c-1.24,1.315-1.864,3.359-1.864,6.133v8.491h-6.517v-22.986
			h6.517v4.632c0.66-1.572,1.56-2.83,2.701-3.773c1.141-0.944,2.686-1.373,4.633-1.287v6.819H177.4z"/>
		<path class="st0" d="M203.988,339.8c-0.628,1.445-1.497,2.709-2.612,3.795c-1.115,1.088-2.434,1.945-3.947,2.573
			c-1.513,0.63-3.172,0.943-4.973,0.943c-1.775,0-3.418-0.307-4.931-0.921c-1.518-0.615-2.827-1.458-3.926-2.531
			c-1.099-1.072-1.963-2.33-2.591-3.773c-0.634-1.443-0.948-2.994-0.948-4.654v-0.085c0-1.658,0.314-3.209,0.948-4.653
			c0.628-1.443,1.497-2.709,2.612-3.795c1.115-1.086,2.429-1.945,3.947-2.573c1.513-0.63,3.172-0.944,4.973-0.944
			c1.775,0,3.418,0.308,4.931,0.921c1.518,0.615,2.827,1.458,3.926,2.53c1.099,1.073,1.963,2.331,2.591,3.774
			c0.633,1.444,0.947,2.996,0.947,4.653v0.086C204.936,336.806,204.621,338.357,203.988,339.8z M198.502,335.148
			c0-0.857-0.147-1.665-0.429-2.422c-0.288-0.758-0.701-1.43-1.246-2.017c-0.539-0.585-1.183-1.05-1.927-1.394
			c-0.743-0.343-1.56-0.514-2.445-0.514c-0.942,0-1.78,0.165-2.507,0.493c-0.733,0.33-1.351,0.78-1.869,1.351
			c-0.513,0.573-0.906,1.237-1.178,1.994c-0.272,0.758-0.408,1.565-0.408,2.423v0.086c0,0.857,0.142,1.666,0.429,2.422
			c0.288,0.758,0.701,1.43,1.246,2.015c0.539,0.586,1.178,1.051,1.906,1.394c0.728,0.344,1.549,0.515,2.466,0.515
			c0.942,0,1.78-0.165,2.507-0.493c0.733-0.329,1.351-0.779,1.869-1.351c0.513-0.572,0.906-1.237,1.178-1.995
			c0.272-0.758,0.408-1.565,0.408-2.424V335.148z"/>
		<path class="st0" d="M244.991,340.299c-0.586,1.472-1.361,2.717-2.319,3.731c-0.958,1.014-2.063,1.78-3.322,2.294
			c-1.259,0.514-2.573,0.772-3.945,0.772c-1.746,0-3.183-0.34-4.311-1.022c-1.128-0.681-2.081-1.475-2.85-2.382v9.836h-6.52v-29.848
			h6.52v3.273c0.798-1.077,1.764-1.963,2.895-2.659c1.128-0.695,2.549-1.042,4.266-1.042c1.343,0,2.644,0.257,3.9,0.771
			c1.259,0.516,2.374,1.28,3.345,2.296c0.974,1.014,1.754,2.259,2.34,3.73c0.584,1.474,0.879,3.167,0.879,5.081v0.087
			C245.87,337.133,245.575,338.826,244.991,340.299z M239.35,335.13c0-0.95-0.149-1.82-0.45-2.611
			c-0.301-0.792-0.709-1.468-1.222-2.03c-0.513-0.561-1.11-0.992-1.78-1.294s-1.392-0.454-2.167-0.454
			c-0.77,0-1.492,0.152-2.165,0.454s-1.259,0.733-1.756,1.294c-0.503,0.562-0.9,1.238-1.204,2.03
			c-0.298,0.791-0.45,1.661-0.45,2.611v0.087c0,0.95,0.152,1.822,0.45,2.612c0.304,0.792,0.701,1.468,1.204,2.03
			c0.497,0.562,1.084,0.992,1.756,1.294s1.395,0.453,2.165,0.453c0.775,0,1.497-0.151,2.167-0.453s1.267-0.733,1.78-1.294
			c0.513-0.561,0.921-1.23,1.222-2.008c0.301-0.778,0.45-1.656,0.45-2.634V335.13z"/>
		<path class="st0" d="M273.484,339.869c-0.628,1.445-1.5,2.709-2.615,3.795c-1.115,1.088-2.432,1.945-3.945,2.573
			c-1.518,0.63-3.175,0.943-4.976,0.943c-1.772,0-3.416-0.307-4.931-0.921c-1.515-0.615-2.824-1.458-3.924-2.531
			c-1.102-1.072-1.968-2.33-2.596-3.773c-0.628-1.443-0.942-2.994-0.942-4.654v-0.085c0-1.658,0.314-3.209,0.942-4.653
			c0.628-1.443,1.502-2.709,2.617-3.795c1.115-1.086,2.429-1.945,3.947-2.573c1.513-0.63,3.172-0.944,4.973-0.944
			c1.772,0,3.416,0.308,4.931,0.921c1.515,0.615,2.822,1.458,3.924,2.53c1.102,1.073,1.966,2.331,2.594,3.774
			c0.628,1.444,0.945,2.996,0.945,4.652v0.087C274.429,336.875,274.113,338.426,273.484,339.869z M267.996,335.217
			c0-0.857-0.144-1.665-0.427-2.422c-0.288-0.758-0.701-1.43-1.246-2.017c-0.545-0.585-1.186-1.05-1.929-1.394
			c-0.743-0.343-1.557-0.514-2.445-0.514c-0.945,0-1.78,0.165-2.51,0.493c-0.728,0.33-1.351,0.78-1.864,1.351
			c-0.513,0.573-0.908,1.237-1.178,1.994c-0.272,0.758-0.408,1.565-0.408,2.422v0.087c0,0.857,0.141,1.666,0.429,2.422
			c0.283,0.758,0.699,1.43,1.241,2.015c0.544,0.586,1.183,1.051,1.91,1.394c0.728,0.344,1.55,0.515,2.466,0.515
			c0.942,0,1.78-0.165,2.507-0.493c0.73-0.329,1.351-0.779,1.866-1.351c0.516-0.572,0.908-1.237,1.18-1.995
			c0.272-0.758,0.406-1.565,0.406-2.424V335.217z"/>
		<path class="st0" d="M279.447,346.667v-31.306h6.517v31.306H279.447z"/>
		<path class="st0" d="M292.225,321.151v-5.79h6.86v5.79H292.225z M292.398,346.667v-22.986h6.517v22.986H292.398z"/>
		<path class="st0" d="M326.467,336.632c-0.013,0.229-0.036,0.501-0.063,0.815h-15.998c0.314,1.487,0.969,2.609,1.953,3.366
			c0.987,0.758,2.209,1.137,3.667,1.137c1.086,0,2.06-0.186,2.916-0.557c0.856-0.372,1.743-0.972,2.659-1.802l3.73,3.302
			c-1.086,1.344-2.403,2.395-3.945,3.153c-1.544,0.756-3.358,1.136-5.447,1.136c-1.715,0-3.309-0.285-4.779-0.857
			c-1.476-0.572-2.746-1.386-3.819-2.445c-1.07-1.057-1.908-2.309-2.51-3.752c-0.597-1.444-0.901-3.052-0.901-4.825v-0.085
			c0-1.629,0.28-3.174,0.838-4.632c0.557-1.458,1.335-2.73,2.337-3.816c1.002-1.086,2.194-1.945,3.581-2.573
			c1.387-0.63,2.924-0.944,4.609-0.944c1.916,0,3.575,0.343,4.976,1.029c1.4,0.686,2.565,1.608,3.494,2.767
			c0.929,1.157,1.615,2.487,2.057,3.988c0.445,1.501,0.665,3.066,0.665,4.696v0.086
			C326.488,336.132,326.482,336.404,326.467,336.632z M318.599,329.836c-0.83-0.902-1.932-1.352-3.303-1.352
			c-1.372,0-2.481,0.444-3.324,1.33c-0.843,0.887-1.392,2.073-1.649,3.56h9.821C319.942,331.915,319.426,330.736,318.599,329.836z"
			/>
		<path class="st0" d="M341.97,346.688c-0.83,0.243-1.788,0.365-2.874,0.365c-1.002,0-1.908-0.107-2.725-0.322
			c-0.811-0.215-1.513-0.593-2.099-1.136c-0.586-0.543-1.044-1.251-1.371-2.122c-0.33-0.872-0.495-1.98-0.495-3.324v-10.892h-2.746
			v-5.575h2.746v-5.875h6.52v5.875h5.402v5.575h-5.402v9.82c0,1.487,0.699,2.23,2.099,2.23c1.144,0,2.214-0.271,3.217-0.815v5.232
			C343.556,346.124,342.8,346.446,341.97,346.688z"/>
		<path class="st0" d="M349.259,321.151v-5.79h6.86v5.79H349.259z M349.432,346.667v-22.986h6.517v22.986H349.432z"/>
		<path class="st0" d="M362.383,346.667v-31.306h6.518v31.306H362.383z"/>
		<path class="st0" d="M396.452,336.632c-0.013,0.229-0.037,0.501-0.063,0.815h-15.998c0.314,1.487,0.968,2.609,1.953,3.366
			c0.987,0.758,2.209,1.137,3.667,1.137c1.086,0,2.06-0.186,2.916-0.557c0.856-0.372,1.743-0.972,2.659-1.802l3.73,3.302
			c-1.086,1.344-2.403,2.395-3.945,3.153c-1.544,0.756-3.358,1.136-5.447,1.136c-1.714,0-3.309-0.285-4.779-0.857
			c-1.476-0.572-2.746-1.386-3.819-2.445c-1.07-1.057-1.908-2.309-2.51-3.752c-0.597-1.444-0.9-3.052-0.9-4.825v-0.085
			c0-1.629,0.28-3.174,0.838-4.632c0.557-1.458,1.335-2.73,2.337-3.816s2.194-1.945,3.581-2.573c1.387-0.63,2.924-0.944,4.609-0.944
			c1.916,0,3.575,0.343,4.976,1.029c1.4,0.686,2.565,1.608,3.494,2.767c0.929,1.157,1.615,2.487,2.057,3.988
			c0.445,1.501,0.665,3.066,0.665,4.696v0.086C396.473,336.132,396.467,336.404,396.452,336.632z M388.584,329.836
			c-0.83-0.902-1.932-1.352-3.303-1.352s-2.481,0.444-3.324,1.33c-0.843,0.887-1.393,2.073-1.649,3.56h9.821
			C389.927,331.915,389.411,330.736,388.584,329.836z"/>
		<path class="st0" d="M415.858,346.667v-12.791c0-1.539-0.345-2.701-1.031-3.486c-0.686-0.784-1.657-1.177-2.916-1.177
			c-1.256,0-2.251,0.393-2.979,1.177c-0.73,0.785-1.094,1.947-1.094,3.486v12.791h-6.517v-22.986h6.517v3.286
			c0.372-0.49,0.78-0.957,1.222-1.403c0.442-0.446,0.934-0.843,1.479-1.188c0.544-0.346,1.144-0.619,1.801-0.821
			c0.66-0.202,1.403-0.302,2.23-0.302c2.487,0,4.41,0.758,5.769,2.272c1.356,1.517,2.036,3.603,2.036,6.262v14.88H415.858z"/>
		<path class="st0" d="M450.355,347.032c-0.529,1.529-1.33,2.78-2.4,3.752c-1.07,0.971-2.411,1.686-4.01,2.144
			c-1.602,0.457-3.473,0.686-5.617,0.686c-1.887,0-3.688-0.207-5.405-0.622c-1.715-0.415-3.301-1.008-4.759-1.78l2.23-4.888
			c1.199,0.657,2.408,1.171,3.623,1.544c1.214,0.37,2.596,0.556,4.138,0.556c2.23,0,3.882-0.529,4.955-1.586
			c1.07-1.057,1.607-2.616,1.607-4.675v-1.115c-0.974,1.173-2.031,2.087-3.172,2.746c-1.147,0.657-2.589,0.985-4.332,0.985
			c-1.343,0-2.631-0.235-3.861-0.707c-1.23-0.473-2.314-1.165-3.259-2.081c-0.945-0.915-1.693-2.036-2.251-3.366
			c-0.557-1.329-0.835-2.852-0.835-4.567v-0.085c0-1.716,0.283-3.238,0.856-4.567c0.573-1.33,1.33-2.451,2.274-3.366
			c0.942-0.915,2.028-1.608,3.256-2.081c1.23-0.471,2.502-0.707,3.819-0.707c1.772,0,3.23,0.329,4.374,0.986
			c1.141,0.658,2.157,1.474,3.044,2.445v-3.002h6.52v17.797C451.151,343.65,450.884,345.502,450.355,347.032z M444.718,333.974
			c0-0.772-0.144-1.487-0.429-2.145c-0.285-0.657-0.681-1.222-1.178-1.693c-0.503-0.473-1.094-0.836-1.78-1.094
			c-0.686-0.257-1.429-0.386-2.23-0.386c-0.801,0-1.539,0.13-2.209,0.386c-0.672,0.258-1.259,0.622-1.759,1.094
			c-0.5,0.471-0.895,1.036-1.178,1.693c-0.288,0.658-0.429,1.373-0.429,2.145v0.085c0,1.602,0.529,2.889,1.586,3.86
			c1.057,0.972,2.387,1.458,3.989,1.458c0.801,0,1.544-0.128,2.23-0.385c0.686-0.258,1.277-0.623,1.78-1.094
			c0.497-0.473,0.893-1.036,1.178-1.694c0.285-0.658,0.429-1.373,0.429-2.145V333.974z"/>
		<path class="st0" d="M457.281,346.667v-31.306h6.517v31.306H457.281z"/>
		<path class="st0" d="M470.062,321.151v-5.79h6.86v5.79H470.062z M470.232,346.667v-22.986h6.517v22.986H470.232z"/>
		<path class="st0" d="M499.307,346.002c-1.429,0.787-3.288,1.179-5.575,1.179c-1.712,0-3.309-0.314-4.779-0.943
			c-1.471-0.628-2.738-1.479-3.795-2.551c-1.058-1.073-1.885-2.331-2.487-3.774c-0.602-1.443-0.9-2.98-0.9-4.611v-0.085
			c0-1.629,0.298-3.174,0.9-4.632c0.602-1.458,1.429-2.73,2.487-3.816c1.057-1.086,2.324-1.945,3.795-2.573
			c1.471-0.63,3.094-0.944,4.868-0.944c2.172,0,3.973,0.343,5.402,1.029c1.429,0.686,2.686,1.629,3.774,2.831l-3.989,4.288
			c-0.743-0.772-1.508-1.387-2.293-1.844c-0.791-0.458-1.77-0.687-2.937-0.687c-0.832,0-1.581,0.165-2.256,0.493
			c-0.67,0.33-1.257,0.78-1.754,1.351c-0.503,0.573-0.89,1.237-1.162,1.994c-0.272,0.758-0.403,1.565-0.403,2.422v0.087
			c0,0.886,0.131,1.716,0.403,2.486c0.272,0.772,0.665,1.445,1.183,2.017c0.513,0.572,1.125,1.022,1.843,1.351
			c0.712,0.328,1.513,0.493,2.403,0.493c1.084,0,2.036-0.221,2.848-0.665c0.816-0.444,1.623-1.036,2.424-1.78l3.816,3.86
			C502.008,344.208,500.736,345.217,499.307,346.002z"/>
		<path class="st0" d="M529.538,339.869c-0.628,1.445-1.497,2.709-2.612,3.795c-1.115,1.088-2.434,1.945-3.947,2.573
			c-1.513,0.63-3.172,0.943-4.973,0.943c-1.775,0-3.418-0.307-4.931-0.921c-1.518-0.615-2.827-1.458-3.926-2.531
			c-1.099-1.072-1.963-2.33-2.591-3.773c-0.633-1.443-0.947-2.994-0.947-4.654v-0.085c0-1.658,0.314-3.209,0.947-4.653
			c0.628-1.443,1.497-2.709,2.612-3.795c1.115-1.086,2.429-1.945,3.947-2.573c1.513-0.63,3.172-0.944,4.973-0.944
			c1.775,0,3.418,0.308,4.931,0.921c1.518,0.615,2.827,1.458,3.926,2.53c1.099,1.073,1.963,2.331,2.591,3.774
			c0.633,1.444,0.947,2.996,0.947,4.652v0.087C530.486,336.875,530.172,338.426,529.538,339.869z M524.052,335.217
			c0-0.857-0.147-1.665-0.429-2.422c-0.288-0.758-0.701-1.43-1.246-2.017c-0.539-0.585-1.183-1.05-1.927-1.394
			c-0.743-0.343-1.56-0.514-2.445-0.514c-0.942,0-1.78,0.165-2.507,0.493c-0.733,0.33-1.351,0.78-1.869,1.351
			c-0.513,0.573-0.906,1.237-1.178,1.994c-0.272,0.758-0.408,1.565-0.408,2.422v0.087c0,0.857,0.141,1.666,0.429,2.422
			c0.288,0.758,0.701,1.43,1.246,2.015c0.539,0.586,1.178,1.051,1.905,1.394c0.728,0.344,1.55,0.515,2.466,0.515
			c0.942,0,1.78-0.165,2.507-0.493c0.733-0.329,1.351-0.779,1.869-1.351c0.513-0.572,0.906-1.237,1.178-1.995
			c0.272-0.758,0.409-1.565,0.409-2.424V335.217z"/>
		<path class="st0" d="M535.501,346.667v-31.306h6.517v31.306H535.501z"/>
		<path class="st0" d="M571.674,323.381c-1.042,1.028-1.9,2.102-2.576,3.217c-0.67,1.115-1.162,2.309-1.476,3.581
			c-0.314,1.272-0.471,2.666-0.471,4.181c0,1.515,0.157,2.909,0.471,4.18c0.314,1.273,0.806,2.467,1.476,3.582
			c0.675,1.115,1.534,2.187,2.576,3.216c1.042,1.03,2.293,2.044,3.753,3.045l-2.874,4.33c-3.979-2.144-6.957-4.702-8.941-7.676
			c-1.989-2.973-2.979-6.533-2.979-10.678c0-4.146,0.99-7.705,2.979-10.679c1.984-2.972,4.963-5.532,8.941-7.676l2.874,4.331
			C573.967,321.337,572.715,322.352,571.674,323.381z"/>
		<path class="st0" d="M603.601,331.701c-0.628,1.315-1.492,2.416-2.597,3.302c-1.099,0.886-2.387,1.551-3.858,1.994
			c-1.471,0.444-3.052,0.665-4.738,0.665h-5.02v9.005h-6.601v-30.019h12.265c1.801,0,3.408,0.251,4.821,0.751
			c1.419,0.5,2.618,1.208,3.607,2.123c0.984,0.915,1.743,2.009,2.272,3.281c0.529,1.272,0.79,2.68,0.79,4.223v0.087
			C604.543,328.856,604.229,330.385,603.601,331.701z M597.853,327.155c0-1.487-0.476-2.616-1.434-3.388
			c-0.958-0.772-2.267-1.158-3.926-1.158h-5.104v9.178h5.235c1.659,0,2.942-0.436,3.858-1.309c0.916-0.872,1.371-1.951,1.371-3.238
			V327.155z"/>
		<path class="st0" d="M609.433,346.667v-30.019h22.604v5.876h-16.082v6.09h14.15v5.875h-14.15v6.304h16.296v5.875H609.433z"/>
		<path class="st0" d="M659.929,345.787c-2.13,0.929-4.565,1.394-7.308,1.394c-2.345,0-4.481-0.386-6.413-1.158
			c-1.932-0.771-3.591-1.844-4.973-3.216c-1.387-1.373-2.466-3.002-3.24-4.889c-0.77-1.886-1.157-3.945-1.157-6.174v-0.086
			c0-2.144,0.392-4.153,1.178-6.026c0.785-1.871,1.879-3.516,3.282-4.931c1.398-1.415,3.057-2.53,4.973-3.345
			c1.916-0.815,4.015-1.222,6.303-1.222c1.346,0,2.57,0.093,3.67,0.279c1.099,0.187,2.12,0.45,3.068,0.793
			c0.942,0.344,1.827,0.772,2.654,1.286c0.832,0.516,1.633,1.102,2.403,1.759l-4.156,5.018c-0.576-0.486-1.147-0.915-1.717-1.287
			c-0.571-0.372-1.167-0.687-1.78-0.944c-0.618-0.258-1.282-0.457-1.995-0.601c-0.717-0.143-1.502-0.215-2.361-0.215
			c-1.199,0-2.319,0.251-3.366,0.753c-1.042,0.501-1.958,1.175-2.743,2.021c-0.785,0.845-1.403,1.834-1.843,2.965
			c-0.445,1.132-0.665,2.343-0.665,3.632v0.087c0,1.375,0.22,2.642,0.665,3.803c0.44,1.161,1.073,2.171,1.885,3.03
			c0.817,0.86,1.775,1.526,2.874,2c1.099,0.472,2.324,0.708,3.67,0.708c2.455,0,4.528-0.603,6.214-1.814v-4.318h-6.643v-5.705
			h13.035v13.038C663.897,343.737,662.059,344.859,659.929,345.787z"/>
		<path class="st0" d="M681.805,345.037c-1.989,2.973-4.968,5.532-8.946,7.676l-2.874-4.33c1.461-1.001,2.712-2.016,3.753-3.045
			c1.042-1.029,1.9-2.101,2.576-3.216c0.67-1.115,1.162-2.309,1.476-3.582c0.314-1.271,0.471-2.664,0.471-4.18
			c0-1.516-0.157-2.909-0.471-4.181c-0.314-1.272-0.806-2.466-1.476-3.581c-0.675-1.115-1.534-2.188-2.576-3.217
			c-1.042-1.029-2.293-2.044-3.753-3.046l2.874-4.331c3.979,2.144,6.957,4.704,8.946,7.676c1.984,2.975,2.979,6.533,2.979,10.679
			C684.784,338.504,683.789,342.064,681.805,345.037z"/>
		<path class="st0" d="M716.518,346.667v-2.488c-0.801,0.887-1.759,1.595-2.874,2.123c-1.115,0.529-2.476,0.794-4.078,0.794
			c-1.084,0-2.104-0.15-3.062-0.45c-0.958-0.301-1.795-0.751-2.507-1.352c-0.717-0.599-1.282-1.336-1.696-2.208
			c-0.414-0.872-0.623-1.879-0.623-3.023v-0.086c0-1.258,0.23-2.344,0.686-3.259c0.461-0.915,1.094-1.672,1.911-2.273
			c0.811-0.601,1.785-1.051,2.916-1.351s2.377-0.45,3.753-0.45c1.173,0,2.194,0.085,3.062,0.257
			c0.874,0.173,1.722,0.402,2.555,0.687v-0.386c0-1.373-0.414-2.416-1.246-3.13c-0.827-0.715-2.057-1.072-3.685-1.072
			c-1.262,0-2.366,0.107-3.324,0.321c-0.958,0.215-1.968,0.522-3.026,0.923l-1.628-4.974c1.256-0.543,2.575-0.987,3.947-1.33
			c1.372-0.343,3.026-0.514,4.973-0.514c3.575,0,6.177,0.872,7.805,2.616c1.628,1.743,2.445,4.174,2.445,7.29v13.337H716.518z
			 M716.643,337.404c-0.57-0.257-1.209-0.464-1.905-0.622c-0.701-0.157-1.455-0.236-2.251-0.236c-1.403,0-2.502,0.272-3.303,0.814
			c-0.801,0.544-1.204,1.33-1.204,2.36v0.085c0,0.886,0.33,1.573,0.99,2.059c0.654,0.487,1.513,0.729,2.57,0.729
			c1.544,0,2.78-0.371,3.712-1.115c0.927-0.743,1.392-1.716,1.392-2.916V337.404z"/>
		<path class="st0" d="M755.669,346.667v-3.286c-0.372,0.489-0.78,0.958-1.225,1.404c-0.445,0.446-0.937,0.842-1.476,1.188
			c-0.544,0.345-1.147,0.619-1.806,0.82c-0.654,0.2-1.398,0.302-2.23,0.302c-2.486,0-4.408-0.758-5.764-2.273
			c-1.361-1.516-2.036-3.603-2.036-6.261v-14.881h6.517v12.791c0,1.54,0.34,2.702,1.026,3.486c0.686,0.784,1.66,1.177,2.916,1.177
			c1.262,0,2.251-0.393,2.984-1.177c0.728-0.784,1.094-1.946,1.094-3.486v-12.791h6.517v22.986H755.669z"/>
		<path class="st0" d="M782.556,346.667v-12.791c0-1.539-0.346-2.701-1.031-3.486c-0.686-0.784-1.66-1.177-2.916-1.177
			c-1.257,0-2.251,0.393-2.979,1.177c-0.728,0.785-1.094,1.947-1.094,3.486v12.791h-6.518v-22.986h6.518v3.286
			c0.371-0.49,0.78-0.957,1.219-1.403c0.445-0.446,0.937-0.843,1.482-1.188c0.544-0.346,1.141-0.619,1.801-0.821
			c0.66-0.202,1.403-0.302,2.23-0.302c2.486,0,4.413,0.758,5.769,2.272c1.356,1.517,2.036,3.603,2.036,6.262v14.88H782.556z"/>
		<path class="st0" d="M808.201,346.667v-2.488c-0.801,0.887-1.759,1.595-2.874,2.123c-1.115,0.529-2.476,0.794-4.078,0.794
			c-1.084,0-2.104-0.15-3.062-0.45c-0.958-0.301-1.796-0.751-2.508-1.352c-0.717-0.599-1.283-1.336-1.696-2.208
			c-0.414-0.872-0.623-1.879-0.623-3.023v-0.086c0-1.258,0.23-2.344,0.686-3.259c0.46-0.915,1.094-1.672,1.911-2.273
			c0.812-0.601,1.785-1.051,2.916-1.351c1.131-0.3,2.377-0.45,3.753-0.45c1.173,0,2.194,0.085,3.062,0.257
			c0.874,0.173,1.722,0.402,2.555,0.687v-0.386c0-1.373-0.414-2.416-1.246-3.13c-0.827-0.715-2.057-1.072-3.685-1.072
			c-1.262,0-2.366,0.107-3.324,0.321c-0.958,0.215-1.968,0.522-3.026,0.923l-1.628-4.974c1.257-0.543,2.576-0.987,3.947-1.33
			c1.372-0.343,3.026-0.514,4.973-0.514c3.576,0,6.177,0.872,7.805,2.616c1.628,1.743,2.445,4.174,2.445,7.29v13.337H808.201z
			 M808.327,337.404c-0.571-0.257-1.209-0.464-1.906-0.622c-0.701-0.157-1.455-0.236-2.251-0.236c-1.403,0-2.502,0.272-3.303,0.814
			c-0.801,0.544-1.204,1.33-1.204,2.36v0.085c0,0.886,0.33,1.573,0.989,2.059c0.654,0.487,1.513,0.729,2.57,0.729
			c1.544,0,2.78-0.371,3.711-1.115c0.927-0.743,1.393-1.716,1.393-2.916V337.404z"/>
		<path class="st0" d="M861.545,346.667v-12.791c0-1.539-0.33-2.701-0.984-3.486c-0.66-0.784-1.602-1.177-2.832-1.177
			c-1.23,0-2.193,0.393-2.895,1.177c-0.701,0.785-1.052,1.947-1.052,3.486v12.791h-6.518v-12.791c0-1.539-0.33-2.701-0.984-3.486
			c-0.66-0.784-1.602-1.177-2.832-1.177c-1.23,0-2.194,0.393-2.895,1.177c-0.701,0.785-1.052,1.947-1.052,3.486v12.791h-6.517
			v-22.986h6.517v3.286c0.372-0.49,0.78-0.957,1.225-1.403c0.445-0.446,0.937-0.843,1.481-1.188
			c0.539-0.346,1.146-0.619,1.822-0.821c0.67-0.202,1.419-0.302,2.251-0.302c1.513,0,2.822,0.317,3.921,0.95
			c1.105,0.633,1.953,1.54,2.555,2.721c1-1.209,2.115-2.124,3.345-2.743c1.23-0.619,2.628-0.928,4.204-0.928
			c2.429,0,4.329,0.715,5.701,2.144c1.372,1.43,2.057,3.531,2.057,6.304v14.966H861.545z"/>
		<path class="st0" d="M896.54,339.869c-0.628,1.445-1.503,2.709-2.618,3.795c-1.115,1.088-2.429,1.945-3.942,2.573
			c-1.518,0.63-3.177,0.943-4.978,0.943c-1.77,0-3.413-0.307-4.931-0.921c-1.513-0.615-2.822-1.458-3.921-2.531
			c-1.105-1.072-1.968-2.33-2.597-3.773c-0.628-1.443-0.942-2.994-0.942-4.654v-0.085c0-1.658,0.314-3.209,0.942-4.653
			c0.628-1.443,1.503-2.709,2.618-3.795s2.429-1.945,3.942-2.573c1.518-0.63,3.177-0.944,4.978-0.944
			c1.769,0,3.413,0.308,4.931,0.921c1.513,0.615,2.822,1.458,3.921,2.53c1.105,1.073,1.968,2.331,2.597,3.774
			c0.628,1.444,0.942,2.996,0.942,4.652v0.087C897.482,336.875,897.168,338.426,896.54,339.869z M891.049,335.217
			c0-0.857-0.142-1.665-0.429-2.422c-0.283-0.758-0.696-1.43-1.241-2.017c-0.544-0.585-1.188-1.05-1.932-1.394
			c-0.743-0.343-1.555-0.514-2.445-0.514c-0.942,0-1.78,0.165-2.507,0.493c-0.728,0.33-1.351,0.78-1.864,1.351
			c-0.518,0.573-0.911,1.237-1.183,1.994c-0.272,0.758-0.403,1.565-0.403,2.422v0.087c0,0.857,0.141,1.666,0.429,2.422
			c0.283,0.758,0.696,1.43,1.241,2.015c0.544,0.586,1.178,1.051,1.911,1.394c0.728,0.344,1.549,0.515,2.466,0.515
			c0.942,0,1.78-0.165,2.507-0.493c0.728-0.329,1.351-0.779,1.864-1.351c0.518-0.572,0.911-1.237,1.183-1.995
			c0.267-0.758,0.403-1.565,0.403-2.424V335.217z"/>
		<path class="st0" d="M902.502,346.667v-31.306h6.517v31.306H902.502z"/>
		<path class="st0" d="M936.571,336.632c-0.016,0.229-0.036,0.501-0.063,0.815H920.51c0.314,1.487,0.969,2.609,1.953,3.366
			c0.984,0.758,2.209,1.137,3.664,1.137c1.089,0,2.063-0.186,2.921-0.557c0.853-0.372,1.743-0.972,2.654-1.802l3.733,3.302
			c-1.084,1.344-2.403,2.395-3.947,3.153c-1.539,0.756-3.355,1.136-5.444,1.136c-1.717,0-3.309-0.285-4.779-0.857
			c-1.476-0.572-2.748-1.386-3.816-2.445c-1.073-1.057-1.911-2.309-2.513-3.752c-0.597-1.444-0.901-3.052-0.901-4.825v-0.085
			c0-1.629,0.283-3.174,0.838-4.632c0.56-1.458,1.335-2.73,2.34-3.816c1-1.086,2.193-1.945,3.581-2.573
			c1.382-0.63,2.921-0.944,4.607-0.944c1.916,0,3.575,0.343,4.973,1.029c1.403,0.686,2.57,1.608,3.497,2.767
			c0.932,1.157,1.617,2.487,2.057,3.988c0.445,1.501,0.665,3.066,0.665,4.696v0.086
			C936.592,336.132,936.587,336.404,936.571,336.632z M928.703,329.836c-0.827-0.902-1.932-1.352-3.303-1.352
			c-1.372,0-2.481,0.444-3.324,1.33c-0.843,0.887-1.392,2.073-1.649,3.56h9.821C930.048,331.915,929.53,330.736,928.703,329.836z
			 M922.782,321.151l4.848-7.59l5.617,2.445l-5.486,5.146H922.782z"/>
		<path class="st0" d="M957.861,346.002c-1.429,0.787-3.288,1.179-5.575,1.179c-1.712,0-3.309-0.314-4.779-0.943
			c-1.471-0.628-2.738-1.479-3.795-2.551c-1.057-1.073-1.884-2.331-2.486-3.774c-0.602-1.443-0.901-2.98-0.901-4.611v-0.085
			c0-1.629,0.299-3.174,0.901-4.632c0.602-1.458,1.429-2.73,2.486-3.816s2.324-1.945,3.795-2.573
			c1.471-0.63,3.094-0.944,4.868-0.944c2.173,0,3.973,0.343,5.402,1.029c1.429,0.686,2.686,1.629,3.774,2.831l-3.989,4.288
			c-0.743-0.772-1.508-1.387-2.293-1.844c-0.79-0.458-1.769-0.687-2.937-0.687c-0.833,0-1.581,0.165-2.256,0.493
			c-0.67,0.33-1.256,0.78-1.754,1.351c-0.503,0.573-0.89,1.237-1.162,1.994c-0.272,0.758-0.403,1.565-0.403,2.422v0.087
			c0,0.886,0.131,1.716,0.403,2.486c0.272,0.772,0.665,1.445,1.183,2.017c0.513,0.572,1.125,1.022,1.843,1.351
			c0.712,0.328,1.513,0.493,2.403,0.493c1.084,0,2.036-0.221,2.848-0.665c0.817-0.444,1.623-1.036,2.424-1.78l3.816,3.86
			C960.562,344.208,959.29,345.217,957.861,346.002z"/>
		<path class="st0" d="M980.293,346.667v-3.286c-0.371,0.489-0.78,0.958-1.225,1.404c-0.445,0.446-0.937,0.842-1.476,1.188
			c-0.544,0.345-1.146,0.619-1.806,0.82c-0.654,0.2-1.398,0.302-2.23,0.302c-2.487,0-4.408-0.758-5.764-2.273
			c-1.361-1.516-2.036-3.603-2.036-6.261v-14.881h6.517v12.791c0,1.54,0.34,2.702,1.026,3.486c0.686,0.784,1.659,1.177,2.916,1.177
			c1.262,0,2.251-0.393,2.984-1.177c0.728-0.784,1.094-1.946,1.094-3.486v-12.791h6.518v22.986H980.293z"/>
		<path class="st0" d="M992.94,346.667v-31.306h6.517v31.306H992.94z"/>
		<path class="st0" d="M1019.057,346.667v-2.488c-0.801,0.887-1.759,1.595-2.874,2.123c-1.115,0.529-2.471,0.794-4.073,0.794
			c-1.089,0-2.11-0.15-3.068-0.45c-0.958-0.301-1.795-0.751-2.508-1.352c-0.717-0.599-1.277-1.336-1.696-2.208
			c-0.414-0.872-0.617-1.879-0.617-3.023v-0.086c0-1.258,0.225-2.344,0.686-3.259c0.455-0.915,1.094-1.672,1.906-2.273
			c0.817-0.601,1.79-1.051,2.916-1.351c1.13-0.3,2.382-0.45,3.753-0.45c1.173,0,2.194,0.085,3.068,0.257
			c0.869,0.173,1.722,0.402,2.549,0.687v-0.386c0-1.373-0.413-2.416-1.24-3.13c-0.833-0.715-2.057-1.072-3.691-1.072
			c-1.256,0-2.366,0.107-3.324,0.321c-0.958,0.215-1.963,0.522-3.021,0.923l-1.633-4.974c1.262-0.543,2.576-0.987,3.947-1.33
			c1.371-0.343,3.031-0.514,4.973-0.514c3.575,0,6.177,0.872,7.805,2.616c1.633,1.743,2.445,4.174,2.445,7.29v13.337H1019.057z
			 M1019.188,337.404c-0.576-0.257-1.209-0.464-1.911-0.622c-0.702-0.157-1.45-0.236-2.251-0.236c-1.403,0-2.502,0.272-3.303,0.814
			c-0.801,0.544-1.199,1.33-1.199,2.36v0.085c0,0.886,0.33,1.573,0.984,2.059c0.66,0.487,1.518,0.729,2.576,0.729
			c1.544,0,2.78-0.371,3.706-1.115c0.932-0.743,1.398-1.716,1.398-2.916V337.404z"/>
		<path class="st0" d="M1030.233,316.71v-1.751h11.156v1.45l-5.481,6.101c0.769,0.067,1.503,0.208,2.204,0.424
			c0.696,0.217,1.309,0.526,1.827,0.925c0.524,0.4,0.937,0.9,1.251,1.501c0.314,0.6,0.471,1.3,0.471,2.099
			c0,0.784-0.152,1.5-0.455,2.15c-0.309,0.651-0.717,1.209-1.241,1.675c-0.518,0.467-1.136,0.83-1.843,1.087
			s-1.471,0.388-2.288,0.388c-1.466,0-2.743-0.287-3.827-0.863c-1.084-0.575-1.984-1.328-2.696-2.263l1.424-1.275
			c0.681,0.834,1.434,1.475,2.262,1.925c0.827,0.45,1.78,0.675,2.864,0.675c0.534,0,1.031-0.08,1.497-0.238
			c0.466-0.158,0.874-0.387,1.215-0.687c0.34-0.3,0.612-0.662,0.811-1.088s0.304-0.897,0.304-1.412c0-1.101-0.455-1.942-1.366-2.526
			c-0.906-0.584-2.089-0.876-3.539-0.876h-1.12l-0.403-1.178l5.528-6.247H1030.233z"/>
	</g>
</g>
</svg>