<!-- Generator: Adobe Illustrator 19.2.1, SVG Export Plug-In  -->
<svg version="1.1"
	 xmlns="http://www.w3.org/2000/svg" xmlns:xlink="http://www.w3.org/1999/xlink" xmlns:a="http://ns.adobe.com/AdobeSVGViewerExtensions/3.0/"
	 x="0px" y="0px" width="136.059px" height="99.65px" viewBox="0 0 136.059 99.65"
	 style="enable-background:new 0 0 136.059 99.65;" xml:space="preserve">
<style type="text/css">
	.st0{fill:#58595B;}
</style>
<defs>
</defs>
<g>
	<path class="st0" d="M8.048,0.466h13.457V5.3h-8.313v10.807h7.431v4.831h-7.431v11.067h8.469v4.832H8.048V0.466z"/>
	<path class="st0" d="M24.205,35.537v-5.404c2.287,1.403,4.16,2.131,5.924,2.131c2.186,0,3.848-1.247,3.848-3.741V28.42
		c0-2.078-0.679-3.585-4.004-7.585c-4.465-5.353-6.081-7.638-6.081-11.744V8.988c0-5.351,3.638-8.884,8.313-8.884
		c2.443,0,4.004,0.468,5.612,1.3v5.403c-1.975-1.196-3.38-1.766-5.042-1.766c-2.076,0-3.739,1.401-3.739,3.688v0.103
		c0,2.028,0.679,3.118,4.004,7.066c4.832,5.716,6.073,8.157,6.073,12.263v0.103c0,5.351-3.785,8.936-8.516,8.936
		C28.209,37.199,26.125,36.524,24.205,35.537z"/>
	<path class="st0" d="M44.781,5.3H39.84V0.466h14.916V5.3H49.87v31.536h-5.089V5.3z"/>
	<path class="st0" d="M57.613,26.601V0.466h5.089v26.601c0,3.794,1.459,5.509,3.59,5.509c2.178,0,3.638-1.715,3.638-5.509V0.466
		h5.034v26.135c0,7.17-3.582,10.704-8.672,10.704C61.196,37.305,57.613,33.771,57.613,26.601z"/>
	<path class="st0" d="M79.226,0.466h5.456c7.688,0,12.364,5.924,12.364,17.613v1.143c0,11.691-4.675,17.614-12.364,17.614h-5.456
		V0.466z M85.151,32.161c3.739,0,6.697-3.481,6.697-12.938V18.08c0-9.454-3.013-12.936-6.752-12.936h-0.726v27.017H85.151z"/>
	<path class="st0" d="M100.887,0.466h5.097v36.37h-5.097V0.466z"/>
	<path class="st0" d="M109.824,19.432v-1.559C109.824,5.61,113.673,0,119.175,0c5.511,0,9.351,5.61,9.351,17.873v1.559
		c0,12.261-3.841,17.873-9.351,17.873C113.673,37.305,109.824,31.693,109.824,19.432z M123.336,19.432v-1.559
		c0-9.404-1.717-13.197-4.161-13.197c-2.443,0-4.152,3.793-4.152,13.197v1.559c0,9.404,1.709,13.195,4.152,13.195
		C121.619,32.627,123.336,28.836,123.336,19.432z"/>
	<path class="st0" d="M0,81.568v-1.143c0-12.573,4.675-17.873,10.335-17.873c1.772,0,2.7,0.262,4.004,0.884v5.3
		c-1.304-0.781-2.342-1.196-3.536-1.196c-3.169,0-5.612,3.378-5.612,12.834v1.247c0,9.82,2.443,12.833,5.667,12.833
		c1.093,0,2.287-0.363,3.583-1.144v5.041c-1.296,0.779-2.646,1.091-4.418,1.091C4.363,99.441,0,94.038,0,81.568z"/>
	<path class="st0" d="M16.049,81.777v-1.559c0-12.262,3.848-17.873,9.351-17.873c5.511,0,9.351,5.61,9.351,17.873v1.559
		c0,12.261-3.84,17.873-9.351,17.873C19.896,99.65,16.049,94.038,16.049,81.777z M29.56,81.777v-1.559
		c0-9.404-1.717-13.197-4.16-13.197s-4.153,3.793-4.153,13.197v1.559c0,9.404,1.71,13.195,4.153,13.195S29.56,91.181,29.56,81.777z"
		/>
	<path class="st0" d="M38.388,62.813h5.253l5.144,15.429l5.144-15.429h5.245v36.368h-4.941V74.399L48.832,90.4h-0.156l-5.401-16.001
		v24.783h-4.886V62.813z"/>
	<path class="st0" d="M63.538,62.813h5.3c6.807,0,11.373,3.948,11.373,12.001v0.104c0,7.794-4.363,11.897-10.904,12.262h-0.624
		v12.001h-5.144V62.813z M69.352,82.452c3.435-0.105,5.714-2.547,5.714-7.378v-0.103c0-5.041-2.178-7.431-5.604-7.431h-0.781v14.912
		H69.352z"/>
	<path class="st0" d="M86.657,62.708h5.456l7.22,36.474H94.19l-1.452-8.104h-6.861l-1.452,8.104h-4.988L86.657,62.708z
		 M91.957,86.452l-2.654-14.6l-2.646,14.6H91.957z"/>
	<path class="st0" d="M102.034,62.813h5.924c6.439,0,11.014,3.584,11.014,11.326v0.363c0,4.832-2.03,8-4.886,9.716l5.511,14.963
		h-5.511L109.2,85.88c-0.203,0-0.468,0.053-0.671,0.053h-1.35v13.248h-5.144V62.813z M108.06,81.309
		c3.427,0,5.768-2.078,5.768-6.754v-0.313c0-4.988-2.498-6.65-5.924-6.65h-0.726v13.716H108.06z"/>
	<path class="st0" d="M122.446,62.813h13.457v4.832h-8.313v10.807h7.431v4.831h-7.431V94.35h8.469v4.832h-13.613V62.813z"/>
</g>
</svg>