<!-- Generator: Adobe Illustrator 19.2.1, SVG Export Plug-In  -->
<svg version="1.1"
	 xmlns="http://www.w3.org/2000/svg" xmlns:xlink="http://www.w3.org/1999/xlink" xmlns:a="http://ns.adobe.com/AdobeSVGViewerExtensions/3.0/"
	 x="0px" y="0px" width="1014.59px" height="99.65px" viewBox="0 0 1014.59 99.65"
	 style="enable-background:new 0 0 1014.59 99.65;" xml:space="preserve">
<style type="text/css">
	.st0{fill:#58595B;}
</style>
<defs>
</defs>
<g>
	<path class="st0" d="M0,0.675h5.144v31.536h7.431v4.832H0V0.675z"/>
	<path class="st0" d="M15.33,0.675h13.457v4.832h-8.313v10.807h7.431v4.832h-7.431v11.066h8.469v4.832H15.33V0.675z"/>
	<path class="st0" d="M31.488,35.743V30.34c2.287,1.403,4.152,2.131,5.916,2.131c2.186,0,3.848-1.247,3.848-3.741v-0.103
		c0-2.079-0.671-3.585-3.996-7.587c-4.472-5.35-6.081-7.636-6.081-11.742V9.195c0-5.351,3.638-8.885,8.313-8.885
		c2.443,0,3.996,0.468,5.612,1.3v5.404c-1.975-1.197-3.38-1.768-5.042-1.768c-2.076,0-3.739,1.403-3.739,3.69v0.104
		c0,2.025,0.671,3.118,3.996,7.066c4.831,5.715,6.08,8.157,6.08,12.262v0.104c0,5.351-3.793,8.935-8.524,8.935
		C35.484,37.406,33.407,36.731,31.488,35.743z"/>
	<path class="st0" d="M49.565,0.675h5.089v36.368h-5.089V0.675z"/>
	<path class="st0" d="M58.502,19.638v-1.559c0-12.263,3.841-17.873,9.351-17.873c5.503,0,9.351,5.61,9.351,17.873v1.559
		c0,12.261-3.848,17.873-9.351,17.873C62.343,37.511,58.502,31.899,58.502,19.638z M72.006,19.638v-1.559
		c0-9.404-1.709-13.197-4.152-13.197c-2.443,0-4.16,3.793-4.16,13.197v1.559c0,9.404,1.717,13.195,4.16,13.195
		C70.297,32.834,72.006,29.042,72.006,19.638z"/>
	<path class="st0" d="M80.842,0.675h4.886l7.891,22.027V0.675h4.988v36.368h-4.621l-8.157-22.86v22.86h-4.988V0.675z"/>
	<path class="st0" d="M102.971,0.675h13.457v4.832h-8.313v10.807h7.431v4.832h-7.431v11.066h8.469v4.832h-13.613V0.675z"/>
	<path class="st0" d="M119.128,35.743V30.34c2.287,1.403,4.16,2.131,5.924,2.131c2.186,0,3.848-1.247,3.848-3.741v-0.103
		c0-2.079-0.679-3.585-4.004-7.587c-4.465-5.35-6.081-7.636-6.081-11.742V9.195c0-5.351,3.638-8.885,8.313-8.885
		c2.443,0,4.004,0.468,5.612,1.3v5.404c-1.975-1.197-3.38-1.768-5.042-1.768c-2.076,0-3.739,1.403-3.739,3.69v0.104
		c0,2.025,0.679,3.118,4.004,7.066c4.832,5.715,6.081,8.157,6.081,12.262v0.104c0,5.351-3.793,8.935-8.524,8.935
		C123.133,37.406,121.048,36.731,119.128,35.743z"/>
	<path class="st0" d="M17.765,63.018h13.457v4.834h-8.313v10.807h7.431v4.832h-7.431v11.066h8.469v4.832H17.765V63.018z"/>
	<path class="st0" d="M34.805,63.018h4.886l7.899,22.031V63.018h4.988v36.37h-4.629l-8.157-22.86v22.86h-4.988V63.018z"/>
	<path class="st0" d="M65.301,63.018h5.924c6.447,0,11.014,3.587,11.014,11.328v0.363c0,4.832-2.022,8.001-4.878,9.716l5.503,14.963
		h-5.503l-4.886-13.301c-0.211,0-0.468,0.053-0.679,0.053h-1.35v13.248h-5.144V63.018z M71.327,81.515
		c3.435,0,5.768-2.078,5.768-6.754v-0.312c0-4.988-2.49-6.65-5.924-6.65h-0.726v13.716H71.327z"/>
	<path class="st0" d="M85.721,63.018h5.245L96.11,78.45l5.144-15.432h5.245v36.37h-4.933V74.605l-5.401,16.001h-0.156l-5.402-16.001
		v24.783h-4.886V63.018z"/>
</g>
<g>
	<path class="st0" d="M398.501,36.417h-4.941v-4.832h14.916v4.832h-4.886v31.536h-5.089V36.417z"/>
	<path class="st0" d="M409.671,50.549V48.99c0-12.263,3.848-17.873,9.351-17.873c5.511,0,9.351,5.61,9.351,17.873v1.559
		c0,12.261-3.84,17.873-9.351,17.873C413.519,68.422,409.671,62.81,409.671,50.549z M423.182,50.549V48.99
		c0-9.404-1.717-13.197-4.161-13.197c-2.443,0-4.152,3.793-4.152,13.197v1.559c0,9.404,1.709,13.195,4.152,13.195
		C421.465,63.744,423.182,59.953,423.182,50.549z"/>
	<path class="st0" d="M432.01,31.585h5.144v31.536h7.431v4.832H432.01V31.585z"/>
	<path class="st0" d="M447.34,31.585h13.457v4.832h-8.313v10.807h7.431v4.832h-7.431v11.066h8.469v4.832H447.34V31.585z"/>
	<path class="st0" d="M464.38,31.585h5.924c6.439,0,11.013,3.585,11.013,11.326v0.363c0,4.832-2.029,8.001-4.886,9.716l5.511,14.963
		h-5.511l-4.886-13.301c-0.203,0-0.468,0.053-0.671,0.053h-1.35v13.248h-5.144V31.585z M470.406,50.081
		c3.427,0,5.768-2.078,5.768-6.754v-0.312c0-4.988-2.498-6.65-5.924-6.65h-0.726v13.716H470.406z"/>
	<path class="st0" d="M490.092,31.48h5.456l7.228,36.474h-5.144l-1.46-8.104h-6.853l-1.46,8.104h-4.988L490.092,31.48z
		 M495.391,55.225l-2.646-14.601l-2.654,14.601H495.391z"/>
	<path class="st0" d="M505.468,31.585h5.253c6.026,0,11.216,2.857,11.216,9.195v0.209c0,4.882-2.802,7.222-5.659,8.417
		c3.427,1.194,6.127,3.585,6.127,8.313v0.363c0,6.287-4.832,9.872-11.794,9.872h-5.144V31.585z M511.135,47.38
		c3.583,0,5.768-2.028,5.768-5.665v-0.104c0-3.532-2.24-5.3-5.565-5.3h-0.726V47.38H511.135z M511.135,63.225
		c3.684,0,6.127-1.975,6.127-5.507V57.51c0-3.635-2.334-5.663-6.026-5.663h-0.625v11.379H511.135z"/>
	<path class="st0" d="M525.833,31.585h5.097v36.368h-5.097V31.585z"/>
	<path class="st0" d="M535.496,31.585h5.144v31.536h7.431v4.832h-12.575V31.585z"/>
	<path class="st0" d="M551.029,31.585h5.097v36.368h-5.097V31.585z"/>
	<path class="st0" d="M560.693,31.585h5.456c7.688,0,12.364,5.923,12.364,17.612v1.143c0,11.691-4.676,17.613-12.364,17.613h-5.456
		V31.585z M566.617,63.278c3.739,0,6.705-3.481,6.705-12.938v-1.143c0-9.455-3.013-12.936-6.76-12.936h-0.726v27.017H566.617z"/>
	<path class="st0" d="M586.826,31.48h5.456l7.228,36.474h-5.144l-1.459-8.104h-6.853l-1.46,8.104h-4.988L586.826,31.48z
		 M592.126,55.225l-2.646-14.601l-2.654,14.601H592.126z"/>
	<path class="st0" d="M602.203,31.585h5.456c7.688,0,12.364,5.923,12.364,17.612v1.143c0,11.691-4.676,17.613-12.364,17.613h-5.456
		V31.585z M608.127,63.278c3.739,0,6.705-3.481,6.705-12.938v-1.143c0-9.455-3.013-12.936-6.76-12.936h-0.726v27.017H608.127z"/>
</g>
<g>
	<path class="st0" d="M886.579,0.466h13.457V5.3h-8.313v10.807h7.431v4.831h-7.431v11.067h8.469v4.832h-13.613V0.466z"/>
	<path class="st0" d="M902.737,35.537v-5.404c2.287,1.403,4.16,2.131,5.924,2.131c2.186,0,3.848-1.247,3.848-3.741V28.42
		c0-2.078-0.679-3.585-4.004-7.585c-4.465-5.353-6.081-7.638-6.081-11.744V8.988c0-5.351,3.638-8.884,8.313-8.884
		c2.443,0,4.004,0.468,5.612,1.3v5.403c-1.975-1.196-3.38-1.766-5.042-1.766c-2.076,0-3.739,1.401-3.739,3.688v0.103
		c0,2.028,0.679,3.118,4.004,7.066c4.832,5.716,6.073,8.157,6.073,12.263v0.103c0,5.351-3.785,8.936-8.516,8.936
		C906.741,37.199,904.656,36.524,902.737,35.537z"/>
	<path class="st0" d="M923.312,5.3h-4.941V0.466h14.916V5.3h-4.886v31.536h-5.089V5.3z"/>
	<path class="st0" d="M936.144,26.601V0.466h5.089v26.601c0,3.794,1.46,5.509,3.59,5.509c2.178,0,3.638-1.715,3.638-5.509V0.466
		h5.034v26.135c0,7.17-3.582,10.704-8.672,10.704C939.727,37.305,936.144,33.771,936.144,26.601z"/>
	<path class="st0" d="M957.758,0.466h5.456c7.688,0,12.364,5.924,12.364,17.613v1.143c0,11.691-4.675,17.614-12.364,17.614h-5.456
		V0.466z M963.682,32.161c3.739,0,6.697-3.481,6.697-12.938V18.08c0-9.454-3.013-12.936-6.752-12.936h-0.726v27.017H963.682z"/>
	<path class="st0" d="M979.418,0.466h5.097v36.37h-5.097V0.466z"/>
	<path class="st0" d="M988.356,19.432v-1.559C988.356,5.61,992.204,0,997.707,0c5.511,0,9.351,5.61,9.351,17.873v1.559
		c0,12.261-3.841,17.873-9.351,17.873C992.204,37.305,988.356,31.693,988.356,19.432z M1001.867,19.432v-1.559
		c0-9.404-1.717-13.197-4.161-13.197c-2.443,0-4.152,3.793-4.152,13.197v1.559c0,9.404,1.709,13.195,4.152,13.195
		C1000.15,32.627,1001.867,28.836,1001.867,19.432z"/>
	<path class="st0" d="M878.531,81.568v-1.143c0-12.573,4.675-17.873,10.335-17.873c1.772,0,2.7,0.262,4.004,0.884v5.3
		c-1.304-0.781-2.341-1.196-3.536-1.196c-3.169,0-5.612,3.378-5.612,12.834v1.247c0,9.82,2.443,12.833,5.667,12.833
		c1.093,0,2.287-0.363,3.583-1.144v5.041c-1.296,0.779-2.646,1.091-4.418,1.091C882.895,99.441,878.531,94.038,878.531,81.568z"/>
	<path class="st0" d="M894.58,81.777v-1.559c0-12.262,3.848-17.873,9.351-17.873c5.511,0,9.351,5.61,9.351,17.873v1.559
		c0,12.261-3.84,17.873-9.351,17.873C898.428,99.65,894.58,94.038,894.58,81.777z M908.091,81.777v-1.559
		c0-9.404-1.717-13.197-4.16-13.197c-2.443,0-4.153,3.793-4.153,13.197v1.559c0,9.404,1.71,13.195,4.153,13.195
		C906.374,94.972,908.091,91.181,908.091,81.777z"/>
	<path class="st0" d="M916.919,62.813h5.253l5.144,15.429l5.144-15.429h5.245v36.368h-4.941V74.399L927.363,90.4h-0.156
		l-5.401-16.001v24.783h-4.886V62.813z"/>
	<path class="st0" d="M942.069,62.813h5.3c6.807,0,11.373,3.948,11.373,12.001v0.104c0,7.794-4.363,11.897-10.904,12.262h-0.624
		v12.001h-5.144V62.813z M947.884,82.452c3.435-0.105,5.714-2.547,5.714-7.378v-0.103c0-5.041-2.178-7.431-5.604-7.431h-0.781
		v14.912H947.884z"/>
	<path class="st0" d="M965.189,62.708h5.456l7.22,36.474h-5.144l-1.452-8.104h-6.861l-1.452,8.104h-4.988L965.189,62.708z
		 M970.489,86.452l-2.654-14.6l-2.646,14.6H970.489z"/>
	<path class="st0" d="M980.566,62.813h5.924c6.439,0,11.014,3.584,11.014,11.326v0.363c0,4.832-2.03,8-4.886,9.716l5.511,14.963
		h-5.511l-4.886-13.301c-0.203,0-0.468,0.053-0.671,0.053h-1.35v13.248h-5.144V62.813z M986.592,81.309
		c3.427,0,5.768-2.078,5.768-6.754v-0.313c0-4.988-2.498-6.65-5.924-6.65h-0.726v13.716H986.592z"/>
	<path class="st0" d="M1000.977,62.813h13.457v4.832h-8.313v10.807h7.431v4.831h-7.431V94.35h8.469v4.832h-13.613V62.813z"/>
</g>
</svg>