<!-- Generator: Adobe Illustrator 19.2.1, SVG Export Plug-In  -->
<svg version="1.1"
	 xmlns="http://www.w3.org/2000/svg" xmlns:xlink="http://www.w3.org/1999/xlink" xmlns:a="http://ns.adobe.com/AdobeSVGViewerExtensions/3.0/"
	 x="0px" y="0px" width="1115.995px" height="108.776px" viewBox="0 0 1115.995 108.776"
	 style="enable-background:new 0 0 1115.995 108.776;" xml:space="preserve">
<style type="text/css">
	.st0{fill:#54B5E6;}
	.st1{fill:#58595B;}
</style>
<defs>
</defs>
<g>
	<path class="st0" d="M0,0.79h31.8v9.321H10.845v5.986h18.977v8.641H10.845v6.27h21.238v9.321H0V0.79z"/>
	<path class="st0" d="M37.668,0.79h31.629v9.602H48.626v6.723h18.696v9.092H48.626v14.121H37.668V0.79z"/>
	<path class="st0" d="M74.49,0.79h11.015v39.539H74.49V0.79z"/>
	<path class="st0" d="M91.376,20.672v-0.113C91.376,9.037,100.245,0,112.218,0c8.077,0,13.274,3.389,16.776,8.245l-8.248,6.382
		c-2.259-2.823-4.856-4.63-8.641-4.63c-5.535,0-9.433,4.688-9.433,10.449v0.113c0,5.931,3.898,10.561,9.433,10.561
		c4.124,0,6.553-1.92,8.924-4.801l8.248,5.876c-3.728,5.139-8.756,8.922-17.511,8.922C100.471,41.118,91.376,32.477,91.376,20.672z"
		/>
	<path class="st0" d="M147.342,0.506h10.564l16.831,39.822H162.99l-2.88-7.059h-15.252l-2.823,7.059h-11.524L147.342,0.506z
		 M156.946,24.738L152.539,13.5l-4.462,11.238H156.946z"/>
	<path class="st0" d="M174.732,20.672v-0.113C174.732,9.037,183.601,0,195.574,0c8.077,0,13.274,3.389,16.776,8.245l-8.248,6.382
		c-2.259-2.823-4.856-4.63-8.641-4.63c-5.535,0-9.433,4.688-9.433,10.449v0.113c0,5.931,3.898,10.561,9.433,10.561
		c4.124,0,6.553-1.92,8.924-4.801l8.248,5.876c-3.728,5.139-8.756,8.922-17.511,8.922C183.827,41.118,174.732,32.477,174.732,20.672
		z"/>
	<path class="st0" d="M217.539,0.79h11.015v39.539h-11.015V0.79z"/>
	<path class="st0" d="M249.452,0.506h10.561l16.831,39.822h-11.747l-2.88-7.059h-15.252l-2.823,7.059h-11.524L249.452,0.506z
		 M259.053,24.738L254.646,13.5l-4.462,11.238H259.053z"/>
	<path class="st0" d="M296.323,0.79h15.249c14.121,0,22.311,8.135,22.311,19.544v0.113c0,11.409-8.303,19.882-22.537,19.882h-15.024
		V0.79z M311.743,30.614c6.553,0,10.9-3.615,10.9-9.997v-0.113c0-6.327-4.347-9.997-10.9-9.997h-4.462v20.108H311.743z"/>
	<path class="st0" d="M339.527,0.79h31.799v9.321h-20.955v5.986h18.977v8.641h-18.977v6.27h21.238v9.321h-32.083V0.79z"/>
	<path class="st0" d="M377.195,0.79h11.579l9.433,15.307l9.431-15.307h11.579v39.539h-10.9V17.621l-10.11,15.477h-0.228
		l-10.053-15.362v22.592h-10.732V0.79z"/>
	<path class="st0" d="M424.858,20.672v-0.113C424.858,9.205,434.008,0,446.209,0c12.201,0,21.238,9.092,21.238,20.446v0.113
		c0,11.354-9.15,20.559-21.351,20.559S424.858,32.025,424.858,20.672z M456.264,20.672v-0.113c0-5.706-4.124-10.674-10.168-10.674
		c-5.986,0-9.997,4.856-9.997,10.561v0.113c0,5.706,4.124,10.674,10.11,10.674C452.253,31.233,456.264,26.377,456.264,20.672z"/>
	<path class="st0" d="M469.869,34.455l6.099-7.288c3.898,3.106,8.248,4.745,12.823,4.745c2.936,0,4.517-1.018,4.517-2.712v-0.113
		c0-1.637-1.299-2.542-6.663-3.783c-8.418-1.92-14.913-4.294-14.913-12.427v-0.113c0-7.343,5.818-12.652,15.307-12.652
		c6.724,0,11.976,1.807,16.267,5.252l-5.478,7.739c-3.615-2.542-7.568-3.898-11.07-3.898c-2.655,0-3.956,1.131-3.956,2.542v0.113
		c0,1.807,1.356,2.6,6.836,3.841c9.092,1.978,14.74,4.916,14.74,12.314v0.113c0,8.077-6.382,12.878-15.984,12.878
		C481.391,41.005,474.725,38.804,469.869,34.455z"/>
	<path class="st0" d="M518.215,10.391h-11.863V0.79h34.68v9.602h-11.86v29.937h-10.957V10.391z"/>
	<path class="st0" d="M545.828,0.79h18.696c6.044,0,10.223,1.582,12.878,4.292c2.316,2.261,3.502,5.31,3.502,9.208v0.113
		c0,6.044-3.219,10.055-8.135,12.143l9.433,13.783H569.55l-7.964-11.976h-0.113h-4.688v11.976h-10.957V0.79z M564.015,19.769
		c3.728,0,5.874-1.807,5.874-4.688v-0.115c0-3.106-2.258-4.688-5.931-4.688h-7.172v9.491H564.015z"/>
	<path class="st0" d="M599.367,0.506h10.562l16.831,39.822h-11.747l-2.88-7.059H596.88l-2.823,7.059h-11.524L599.367,0.506z
		 M608.969,24.738L604.562,13.5l-4.462,11.238H608.969z"/>
	<path class="st0" d="M630.595,0.79h15.249c14.121,0,22.311,8.135,22.311,19.544v0.113c0,11.409-8.303,19.882-22.537,19.882h-15.024
		V0.79z M646.015,30.614c6.553,0,10.9-3.615,10.9-9.997v-0.113c0-6.327-4.347-9.997-10.9-9.997h-4.462v20.108H646.015z"/>
	<path class="st0" d="M684.701,0.506h10.562l16.831,39.822h-11.747l-2.88-7.059h-15.252l-2.823,7.059h-11.524L684.701,0.506z
		 M694.303,24.738L689.896,13.5l-4.462,11.238H694.303z"/>
	<path class="st1" d="M735.24,40.328V0.795h28.125V3.45h-25.189v15.643h22.647v2.655h-22.647v15.926h25.47v2.655H735.24z"/>
	<path class="st1" d="M803.745,40.328L775.902,5.202v35.126h-2.823V0.795h2.768l27.277,34.394V0.795h2.823v39.534H803.745z"/>
	<path class="st1" d="M834.635,40.328V0.795h2.936v36.879h23.211v2.655H834.635z"/>
	<path class="st1" d="M869.594,40.328V0.795h28.125V3.45h-25.189v15.643h22.647v2.655h-22.647v15.926h25.47v2.655H869.594z"/>
	<path class="st1" d="M932.93,34.482c-0.659,1.339-1.562,2.477-2.71,3.417c-1.148,0.943-2.522,1.677-4.124,2.204
		c-1.6,0.527-3.359,0.79-5.28,0.79c-3.164,0-6.014-0.527-8.556-1.582c-2.542-1.053-4.999-2.635-7.37-4.743l1.92-2.201
		c1.093,1.015,2.173,1.89,3.246,2.625c1.073,0.734,2.176,1.336,3.304,1.807c1.13,0.471,2.316,0.83,3.56,1.073
		c1.241,0.246,2.597,0.366,4.066,0.366c1.467,0,2.823-0.196,4.066-0.592c1.241-0.396,2.296-0.94,3.161-1.637
		c0.867-0.697,1.544-1.527,2.033-2.487c0.489-0.96,0.735-2.003,0.735-3.134v-0.113c0-1.053-0.16-1.995-0.479-2.823
		c-0.321-0.83-0.905-1.582-1.753-2.261c-0.847-0.677-1.985-1.289-3.417-1.835c-1.431-0.544-3.274-1.043-5.533-1.497
		c-2.374-0.489-4.407-1.063-6.099-1.722c-1.695-0.657-3.078-1.429-4.151-2.314c-1.073-0.885-1.855-1.91-2.344-3.079
		c-0.492-1.168-0.735-2.504-0.735-4.011v-0.113c0-1.467,0.318-2.833,0.96-4.094c0.639-1.261,1.524-2.362,2.655-3.304
		c1.128-0.94,2.464-1.675,4.008-2.201c1.544-0.529,3.239-0.792,5.084-0.792c2.86,0,5.337,0.396,7.425,1.186
		c2.091,0.792,4.131,1.995,6.127,3.615l-1.863,2.316c-1.883-1.62-3.775-2.768-5.675-3.447c-1.903-0.677-3.943-1.015-6.127-1.015
		c-1.469,0-2.795,0.198-3.984,0.592c-1.186,0.396-2.201,0.933-3.048,1.612c-0.847,0.677-1.497,1.467-1.948,2.372
		c-0.451,0.902-0.679,1.862-0.679,2.88v0.113c0,1.053,0.16,2.003,0.481,2.85c0.318,0.847,0.902,1.62,1.75,2.317
		c0.847,0.697,2.023,1.326,3.53,1.893c1.507,0.564,3.427,1.09,5.761,1.579c4.592,0.943,7.906,2.269,9.94,3.984
		c2.033,1.712,3.051,4.018,3.051,6.916v0.113C933.92,31.687,933.589,33.146,932.93,34.482z"/>
	<path class="st1" d="M943.973,40.328V0.795h2.936v39.534H943.973z"/>
	<path class="st1" d="M995.617,28.328c-0.96,2.467-2.307,4.64-4.039,6.523c-1.732,1.883-3.83,3.379-6.297,4.49
		c-2.467,1.111-5.187,1.664-8.16,1.664c-3.013,0-5.733-0.554-8.16-1.664c-2.429-1.111-4.51-2.6-6.242-4.462
		c-1.732-1.863-3.069-4.018-4.009-6.465c-0.943-2.449-1.411-5.026-1.411-7.739v-0.113c0-2.71,0.479-5.3,1.439-7.764
		c0.96-2.467,2.306-4.64,4.039-6.523c1.73-1.883,3.82-3.379,6.267-4.49s5.177-1.667,8.19-1.667c2.973,0,5.685,0.557,8.132,1.667
		c2.447,1.111,4.537,2.597,6.27,4.46c1.73,1.865,3.066,4.021,4.008,6.468c0.94,2.447,1.411,5.026,1.411,7.736
		c0.038,0.038,0.038,0.075,0,0.113C997.056,23.274,996.577,25.861,995.617,28.328z M994.008,20.562c0-2.447-0.424-4.753-1.271-6.917
		c-0.847-2.166-2.015-4.048-3.502-5.648c-1.487-1.599-3.267-2.87-5.337-3.813c-2.071-0.94-4.33-1.411-6.776-1.411
		c-2.449,0-4.698,0.461-6.748,1.384c-2.053,0.923-3.823,2.184-5.31,3.783c-1.487,1.602-2.645,3.474-3.472,5.62
		c-0.83,2.146-1.243,4.442-1.243,6.889v0.113c0,2.449,0.424,4.753,1.271,6.919c0.847,2.166,2.013,4.048,3.502,5.648
		c1.487,1.599,3.264,2.87,5.337,3.811c2.068,0.942,4.327,1.414,6.776,1.414c2.447,0,4.695-0.461,6.748-1.384
		c2.051-0.923,3.82-2.184,5.309-3.785c1.487-1.6,2.645-3.472,3.472-5.618c0.827-2.146,1.243-4.442,1.243-6.891V20.562z"/>
	<path class="st1" d="M1037.72,40.328l-27.844-35.126v35.126h-2.823V0.795h2.768l27.277,34.394V0.795h2.823v39.534H1037.72z"/>
	<path class="st1" d="M1051.668,40.328V0.795h28.125V3.45h-25.189v15.643h22.647v2.655h-22.647v15.926h25.47v2.655H1051.668z"/>
	<path class="st1" d="M1115.005,34.482c-0.659,1.339-1.562,2.477-2.71,3.417c-1.148,0.943-2.522,1.677-4.124,2.204
		c-1.6,0.527-3.359,0.79-5.28,0.79c-3.164,0-6.014-0.527-8.556-1.582c-2.542-1.053-4.999-2.635-7.37-4.743l1.92-2.201
		c1.093,1.015,2.173,1.89,3.246,2.625c1.073,0.734,2.176,1.336,3.304,1.807c1.13,0.471,2.316,0.83,3.56,1.073
		c1.241,0.246,2.597,0.366,4.066,0.366c1.466,0,2.823-0.196,4.066-0.592c1.241-0.396,2.297-0.94,3.161-1.637
		c0.867-0.697,1.544-1.527,2.033-2.487c0.489-0.96,0.734-2.003,0.734-3.134v-0.113c0-1.053-0.161-1.995-0.479-2.823
		c-0.321-0.83-0.905-1.582-1.752-2.261c-0.847-0.677-1.986-1.289-3.417-1.835c-1.431-0.544-3.274-1.043-5.533-1.497
		c-2.374-0.489-4.407-1.063-6.099-1.722c-1.695-0.657-3.079-1.429-4.151-2.314c-1.073-0.885-1.855-1.91-2.344-3.079
		c-0.491-1.168-0.734-2.504-0.734-4.011v-0.113c0-1.467,0.318-2.833,0.96-4.094c0.639-1.261,1.524-2.362,2.655-3.304
		c1.128-0.94,2.464-1.675,4.008-2.201c1.544-0.529,3.239-0.792,5.084-0.792c2.86,0,5.337,0.396,7.425,1.186
		c2.091,0.792,4.131,1.995,6.127,3.615l-1.862,2.316c-1.883-1.62-3.775-2.768-5.676-3.447c-1.903-0.677-3.943-1.015-6.127-1.015
		c-1.469,0-2.795,0.198-3.984,0.592c-1.186,0.396-2.201,0.933-3.048,1.612c-0.847,0.677-1.497,1.467-1.948,2.372
		c-0.451,0.902-0.679,1.862-0.679,2.88v0.113c0,1.053,0.16,2.003,0.481,2.85c0.318,0.847,0.903,1.62,1.75,2.317
		c0.847,0.697,2.023,1.326,3.53,1.893c1.507,0.564,3.427,1.09,5.761,1.579c4.593,0.943,7.907,2.269,9.94,3.984
		c2.033,1.712,3.051,4.018,3.051,6.916v0.113C1115.995,31.687,1115.664,33.146,1115.005,34.482z"/>
	<path class="st1" d="M32.727,104.682c-1.111,0.847-2.299,1.572-3.56,2.174c-1.261,0.604-2.625,1.073-4.094,1.414
		c-1.469,0.338-3.068,0.506-4.801,0.506c-2.823,0-5.44-0.526-7.849-1.579c-2.409-1.055-4.49-2.494-6.24-4.322
		c-1.752-1.825-3.116-3.981-4.096-6.465c-0.978-2.487-1.467-5.139-1.467-7.964v-0.113c0-2.785,0.496-5.42,1.497-7.907
		c0.995-2.484,2.371-4.658,4.121-6.523c1.75-1.863,3.83-3.332,6.24-4.405c2.409-1.073,5.046-1.609,7.907-1.609
		c1.77,0,3.369,0.15,4.801,0.451c1.431,0.303,2.758,0.734,3.981,1.298c1.223,0.567,2.374,1.236,3.447,2.006
		c1.073,0.772,2.116,1.629,3.134,2.57l-2.091,2.146c-0.865-0.827-1.77-1.6-2.71-2.314c-0.943-0.717-1.948-1.328-3.021-1.837
		c-1.073-0.506-2.241-0.913-3.502-1.213c-1.261-0.301-2.625-0.451-4.094-0.451c-2.371,0-4.575,0.451-6.608,1.356
		c-2.033,0.903-3.793,2.153-5.279,3.755c-1.489,1.599-2.655,3.472-3.502,5.618C4.094,83.419,3.67,85.735,3.67,88.22v0.113
		c0,2.484,0.434,4.811,1.299,6.974c0.867,2.166,2.043,4.048,3.53,5.648c1.487,1.602,3.249,2.863,5.282,3.785
		c2.033,0.922,4.234,1.384,6.606,1.384c2.863,0,5.347-0.529,7.455-1.582c2.108-1.055,4.159-2.58,6.157-4.575l1.975,1.92
		C34.918,102.902,33.838,103.835,32.727,104.682z"/>
	<path class="st1" d="M44.048,108.099V68.566h28.125v2.655H46.984v15.643h22.647v2.655H46.984v15.926h25.47v2.655H44.048z"/>
	<path class="st1" d="M110.35,108.099L97.756,91.722H84.823v16.377h-2.936V68.566H98.49c2.146,0,4.086,0.276,5.818,0.82
		c1.73,0.547,3.209,1.319,4.432,2.316c1.223,0.998,2.174,2.184,2.853,3.557c0.677,1.374,1.015,2.89,1.015,4.545v0.115
		c0,1.657-0.291,3.134-0.875,4.432c-0.584,1.298-1.394,2.419-2.429,3.359c-1.036,0.943-2.259,1.705-3.67,2.289
		c-1.411,0.584-2.946,0.988-4.603,1.213l13.046,16.887H110.35z M109.673,79.889c0-2.68-0.99-4.796-2.966-6.345
		c-1.978-1.549-4.773-2.324-8.386-2.324H84.823v17.847h13.329c1.657,0,3.191-0.208,4.603-0.622c1.411-0.416,2.627-1.01,3.642-1.785
		c1.018-0.775,1.815-1.72,2.402-2.833c0.582-1.116,0.875-2.389,0.875-3.826V79.889z"/>
	<path class="st1" d="M122.719,108.099V68.566h28.125v2.655h-25.189v15.643h22.647v2.655h-22.647v15.926h25.47v2.655H122.719z"/>
	<path class="st1" d="M190.831,101.814c-0.677,1.334-1.637,2.462-2.875,3.382c-1.241,0.92-2.725,1.634-4.455,2.143
		c-1.73,0.506-3.665,0.76-5.806,0.76h-17.137V68.566h16.29c1.915,0,3.662,0.228,5.242,0.679c1.577,0.454,2.921,1.103,4.028,1.953
		c1.108,0.85,1.973,1.875,2.595,3.083c0.619,1.206,0.93,2.547,0.93,4.019v0.113c0,1.356-0.198,2.547-0.592,3.565
		c-0.396,1.018-0.913,1.905-1.549,2.66c-0.639,0.755-1.364,1.386-2.171,1.895c-0.807,0.509-1.604,0.933-2.394,1.271
		c1.166,0.301,2.291,0.707,3.384,1.213c1.088,0.506,2.038,1.145,2.845,1.918c0.81,0.77,1.457,1.672,1.945,2.705
		c0.489,1.033,0.732,2.226,0.732,3.58v0.113C191.844,98.987,191.505,100.478,190.831,101.814z M186.705,78.558
		c0-2.198-0.847-3.971-2.539-5.317c-1.695-1.346-4.144-2.021-7.343-2.021h-13.329v15.643h13.046c1.469,0,2.825-0.178,4.066-0.539
		c1.243-0.361,2.316-0.882,3.219-1.564c0.905-0.682,1.609-1.537,2.118-2.56c0.509-1.025,0.762-2.201,0.762-3.527V78.558z
		 M188.908,97.227c0-2.457-1.025-4.354-3.078-5.695c-2.053-1.341-5.036-2.013-8.949-2.013h-13.387v15.926h14.344
		c3.389,0,6.082-0.727,8.077-2.181c1.996-1.454,2.993-3.43,2.993-5.924V97.227z"/>
	<path class="st1" d="M229.796,108.099l-12.595-16.377h-12.933v16.377h-2.935V68.566h16.603c2.146,0,4.086,0.276,5.818,0.82
		c1.73,0.547,3.209,1.319,4.432,2.316c1.223,0.998,2.174,2.184,2.853,3.557c0.677,1.374,1.015,2.89,1.015,4.545v0.115
		c0,1.657-0.291,3.134-0.875,4.432c-0.584,1.298-1.394,2.419-2.429,3.359c-1.035,0.943-2.258,1.705-3.67,2.289
		c-1.411,0.584-2.945,0.988-4.602,1.213l13.046,16.887H229.796z M229.119,79.889c0-2.68-0.99-4.796-2.966-6.345
		c-1.978-1.549-4.773-2.324-8.386-2.324h-13.5v17.847h13.329c1.657,0,3.191-0.208,4.603-0.622c1.411-0.416,2.627-1.01,3.642-1.785
		c1.018-0.775,1.815-1.72,2.402-2.833c0.581-1.116,0.875-2.389,0.875-3.826V79.889z"/>
	<path class="st1" d="M275.203,108.099l-5.026-11.068h-23.324l-5.026,11.068h-3.051l18.411-39.814h2.825l18.41,39.814H275.203z
		 M258.542,71.504l-10.449,22.873h20.84L258.542,71.504z"/>
	<path class="st1" d="M286.779,108.099V68.566h2.936v36.879h23.211v2.655H286.779z"/>
	<path class="st1" d="M321.738,108.099V68.566h28.125v2.655h-25.189v15.643h22.647v2.655h-22.647v15.926h25.47v2.655H321.738z"/>
	<path class="st1" d="M385.074,102.253c-0.659,1.339-1.562,2.477-2.71,3.417c-1.148,0.943-2.522,1.677-4.124,2.204
		c-1.599,0.526-3.359,0.79-5.279,0.79c-3.164,0-6.014-0.526-8.556-1.582c-2.542-1.053-4.999-2.635-7.37-4.743l1.92-2.201
		c1.093,1.015,2.174,1.89,3.247,2.625c1.073,0.734,2.176,1.336,3.304,1.807c1.131,0.471,2.316,0.83,3.56,1.073
		c1.241,0.246,2.597,0.366,4.066,0.366c1.467,0,2.823-0.196,4.066-0.592c1.241-0.396,2.296-0.94,3.161-1.637
		c0.867-0.697,1.544-1.527,2.033-2.487c0.489-0.96,0.734-2.003,0.734-3.134v-0.113c0-1.053-0.16-1.995-0.479-2.823
		c-0.321-0.83-0.905-1.582-1.752-2.261c-0.847-0.677-1.985-1.289-3.417-1.835c-1.431-0.544-3.274-1.043-5.532-1.497
		c-2.374-0.489-4.407-1.063-6.099-1.722c-1.695-0.657-3.078-1.429-4.151-2.314c-1.073-0.885-1.855-1.91-2.344-3.079
		c-0.491-1.168-0.734-2.504-0.734-4.011v-0.113c0-1.467,0.318-2.833,0.96-4.094c0.639-1.261,1.524-2.362,2.655-3.304
		c1.128-0.94,2.464-1.675,4.008-2.201c1.544-0.529,3.239-0.792,5.084-0.792c2.86,0,5.337,0.396,7.425,1.186
		c2.091,0.792,4.131,1.995,6.127,3.615l-1.863,2.316c-1.883-1.62-3.775-2.768-5.676-3.447c-1.903-0.677-3.943-1.015-6.127-1.015
		c-1.469,0-2.795,0.198-3.983,0.592c-1.186,0.396-2.201,0.933-3.048,1.612c-0.847,0.677-1.497,1.467-1.948,2.371
		c-0.451,0.903-0.679,1.863-0.679,2.88v0.113c0,1.053,0.16,2.003,0.481,2.85c0.319,0.847,0.903,1.62,1.75,2.317
		c0.847,0.697,2.023,1.326,3.53,1.893c1.507,0.564,3.427,1.09,5.761,1.579c4.593,0.943,7.907,2.269,9.94,3.984
		c2.033,1.712,3.051,4.018,3.051,6.916v0.113C386.064,99.458,385.734,100.917,385.074,102.253z"/>
	<path class="st1" d="M412.662,108.099V68.566h28.125v2.655h-25.189v15.643h22.647v2.655h-22.647v15.926h25.47v2.655H412.662z"/>
	<path class="st1" d="M481.168,108.099l-27.844-35.126v35.126h-2.823V68.566h2.768l27.277,34.394V68.566h2.823v39.534H481.168z"/>
	<path class="st1" d="M540.521,108.099l-12.594-16.377h-12.933v16.377h-2.936V68.566h16.603c2.146,0,4.086,0.276,5.818,0.82
		c1.73,0.547,3.209,1.319,4.432,2.316c1.223,0.998,2.173,2.184,2.853,3.557c0.677,1.374,1.015,2.89,1.015,4.545v0.115
		c0,1.657-0.291,3.134-0.875,4.432c-0.584,1.298-1.394,2.419-2.429,3.359c-1.035,0.943-2.259,1.705-3.67,2.289
		c-1.411,0.584-2.946,0.988-4.603,1.213l13.046,16.887H540.521z M539.844,79.889c0-2.68-0.99-4.796-2.965-6.345
		c-1.978-1.549-4.773-2.324-8.385-2.324h-13.5v17.847h13.329c1.657,0,3.191-0.208,4.602-0.622c1.411-0.416,2.627-1.01,3.643-1.785
		c1.018-0.775,1.815-1.72,2.401-2.833c0.582-1.116,0.875-2.389,0.875-3.826V79.889z"/>
	<path class="st1" d="M587.226,108.099V73.762l-15.643,22.76h-0.226l-15.645-22.76v34.337h-2.823V68.566h2.768l15.868,23.382
		l15.871-23.382h2.765v39.534H587.226z"/>
</g>
</svg>